<svg width="335" height="66" viewBox="0 0 335 66" fill="none" xmlns="http://www.w3.org/2000/svg">
<path d="M332.92 41.9536C332.92 39.7636 332.92 37.5637 332.92 35.3737C332.863 33.1007 332.606 30.8327 332.151 28.5836C331.739 26.7484 331.518 24.8931 331.491 23.0336C331.528 21.2088 331.771 19.3893 332.219 17.5936C332.489 16.6057 332.627 15.601 332.631 14.5936C332.581 13.6536 332.406 12.7193 332.109 11.8037C331.464 9.66366 330.393 7.58363 329.706 5.45363C327.803 3.90043 325.46 2.66552 322.84 1.83363C319.807 2.21307 316.725 2.3439 313.652 2.22365C310.301 2.03365 307.019 1.41367 303.682 1.12367C300.182 0.908646 296.663 0.908646 293.163 1.12367C289.606 1.25367 286.035 1.44366 282.479 1.61366C278.922 1.78366 275.612 1.79366 272.151 2.11366C268.691 2.43366 265.285 2.94365 261.92 3.22365C258.717 3.45727 255.486 3.38665 252.307 3.01363C248.956 2.65363 245.633 2.16363 242.268 1.95363C238.904 1.74363 204.956 1.95364 201.605 2.21364C195.055 2.81364 188.353 4.21364 181.72 3.52364C178.575 3.21364 175.485 2.60362 172.354 2.25362C168.896 1.96362 165.403 1.96362 161.944 2.25362C158.456 2.44362 154.941 2.14367 151.439 2.18367C147.937 2.22367 117.779 2.40366 114.25 2.42366C111.05 2.42366 107.878 2.23362 104.637 2.19362C101.739 2.19362 98.8415 2.19362 95.9439 2.19362C92.2034 2.20742 88.4711 1.93934 84.8064 1.39363C81.8676 1.67363 78.9196 1.92363 75.9625 2.14363C73.9712 2.29363 71.9661 2.42366 69.9611 2.54366C67.9561 2.66366 48.0983 2.79366 46.1207 2.80366C42.2206 2.80366 38.4715 2.00366 34.6263 1.67366C33.66 1.5902 32.688 1.54679 31.7149 1.54366C30.7673 1.54366 29.8334 1.65367 28.8859 1.68367C27.0182 1.68367 25.2466 2.27363 23.3927 2.33363C20.8246 2.41363 18.5175 1.44362 16.0868 1.00362C11.9174 1.60157 8.12579 3.16625 5.27897 5.46364C4.75712 6.13364 4.26269 6.81364 3.78204 7.46364C3.86444 8.84364 3.94687 10.2237 3.98807 11.6037C3.98807 12.7237 3.98804 13.8536 3.91938 14.9736C3.85071 16.0936 3.63098 17.2936 3.43872 18.4536C2.69714 22.9936 3.43872 27.5737 4.04297 32.1137C4.36096 34.373 4.52139 36.6425 4.52363 38.9137C4.53784 39.9202 4.41364 40.9252 4.15286 41.9137C3.84261 42.8678 3.44809 43.8065 2.9718 44.7236C2.54608 45.6136 2.07915 46.4936 1.7221 47.3936C1.34174 48.2286 1.15608 49.104 1.17279 49.9837C1.3794 50.9382 1.79192 51.8629 2.39504 52.7236C2.94387 53.629 3.27372 54.5965 3.37007 55.5836C3.37007 56.1436 3.37007 56.7136 3.37007 57.2736C4.7962 58.1471 6.14905 59.0821 7.42131 60.0736C8.05302 60.5536 8.65727 61.0736 9.22032 61.5636C9.6617 61.9482 10.0568 62.3598 10.4013 62.7937C10.5387 62.9937 10.6623 63.2037 10.7721 63.4137C12.7648 63.954 14.8011 64.4048 16.8695 64.7636C17.9056 64.945 18.9635 65.0521 20.0281 65.0836C21.0482 65.0529 22.0526 64.8904 22.9945 64.6037C24.9583 64.0637 26.7985 63.2836 28.8172 62.8236C31.0597 62.4139 33.3802 62.2788 35.6837 62.4237C40.8335 62.5437 45.9422 63.0336 51.0783 63.2536C52.2868 63.3136 71.4031 63.2536 72.6116 63.4436C73.8192 63.5963 75.0155 63.7932 76.1959 64.0336C77.441 64.295 78.7132 64.4823 79.9999 64.5936C81.2524 64.6591 82.5114 64.5883 83.7353 64.3836C85.9985 63.9998 88.2915 63.716 90.6017 63.5336C93.2175 63.5112 95.8325 63.6148 98.4295 63.8436C103.923 64.1236 109.416 64.4536 114.813 64.3936C120.21 64.3336 152.318 63.8537 157.756 63.6237C160.502 63.5037 163.249 63.5537 165.996 63.4237C168.742 63.2937 171.31 63.0436 173.975 62.9036C178.633 62.7898 183.289 63.1602 187.804 64.0036L188.339 64.1037L188.806 64.0336C193.214 63.4836 228.316 63.8236 232.751 64.0336C234.976 64.1536 237.201 64.2637 239.439 64.2337C241.678 64.2037 243.889 64.0037 246.114 63.9237C255.727 63.6037 265.408 64.1036 275.035 64.3136C277.411 64.4006 279.792 64.327 282.149 64.0936C284.367 63.7465 286.615 63.5126 288.878 63.3936C291.323 63.3936 293.753 63.6137 296.198 63.6637C298.642 63.7136 301.004 63.7237 303.394 63.7937C305.783 63.8637 308.187 63.9037 310.576 63.7937C312.793 63.8109 314.998 63.5574 317.099 63.0437C319.022 62.5037 320.807 61.7536 322.73 61.2136C324.231 60.8061 325.768 60.472 327.33 60.2136C328.753 59.9691 330.01 59.3627 330.873 58.5036C331.464 57.9254 331.897 57.2703 332.151 56.5736C332.398 55.8836 332.563 55.1836 332.865 54.5036C333.149 53.8861 333.566 53.3055 334.101 52.7836C333.95 51.3636 333.785 49.9436 333.62 48.5236C333.263 46.3836 332.961 44.1736 332.92 41.9536Z" fill="#807E77"/>
<path d="M20.0555 65.8436H19.9731C18.8295 65.8151 17.6928 65.7012 16.5811 65.5036C14.4657 65.1378 12.3835 64.6769 10.3463 64.1236C10.1888 64.0846 10.0454 64.0202 9.92656 63.9354C9.80773 63.8506 9.71652 63.7475 9.65968 63.6336C9.57247 63.4547 9.46692 63.2809 9.34385 63.1136C9.04531 62.721 8.69086 62.3523 8.28639 62.0136C7.80573 61.5736 7.25644 61.1136 6.55606 60.5736C5.31066 59.6091 3.99011 58.6977 2.60097 57.8436C2.47151 57.7636 2.36757 57.664 2.29641 57.5517C2.22525 57.4395 2.18861 57.3172 2.189 57.1936C2.189 56.5836 2.189 56.0436 2.189 55.5636C2.09718 54.6705 1.80006 53.795 1.31007 52.9736C1.21394 52.8236 1.13152 52.6736 1.03539 52.5136C0.496743 51.7156 0.14845 50.8567 0.00542052 49.9736C-0.0359076 48.9964 0.159352 48.0215 0.582223 47.0936C0.884348 46.3536 1.24142 45.6236 1.58474 44.9236L1.85938 44.3736C2.31496 43.489 2.69113 42.5838 2.98549 41.6636C3.23604 40.7349 3.3557 39.79 3.34256 38.8436C3.33667 36.5958 3.17624 34.3497 2.8619 32.1136C2.79323 31.5636 2.72456 31.0036 2.64217 30.4436C1.92906 26.4113 1.80018 22.3356 2.25764 18.2836L2.36749 17.6736C2.51855 16.6736 2.68337 15.7936 2.73831 14.8636C2.79324 13.9336 2.83442 12.7836 2.80695 11.5436C2.77949 10.3036 2.69711 8.97361 2.61471 7.71361V7.43364C2.5996 7.2879 2.6425 7.14203 2.73831 7.0136C3.28762 6.2436 3.78199 5.5736 4.26264 4.9536C4.30046 4.90306 4.34658 4.85603 4.39998 4.81359C7.42018 2.38649 11.4297 0.728664 15.8395 0.083608C16.0025 0.0585089 16.1709 0.0585089 16.3339 0.083608C17.1991 0.243608 18.0231 0.463625 18.8333 0.663625C20.2487 1.11125 21.7679 1.35895 23.3102 1.39361C24.1734 1.35055 25.0289 1.24673 25.8646 1.08361C26.8376 0.90653 27.8303 0.792784 28.8309 0.743642C29.2154 0.743642 29.5862 0.743635 29.9845 0.673635C30.3827 0.603635 31.1106 0.603628 31.7011 0.603628C32.7158 0.604459 33.7294 0.651231 34.7361 0.743642C36.1094 0.863642 37.6337 1.05364 39.0345 1.24364C41.3505 1.61121 43.7097 1.81547 46.0795 1.85363C47.6862 1.85363 49.3342 1.75363 50.941 1.66363L69.8512 1.60363C71.7464 1.49363 73.7651 1.3636 75.8251 1.2036C78.4755 1.0136 81.3182 0.763613 84.6416 0.463613C84.7736 0.449522 84.9078 0.449522 85.0399 0.463613C88.6238 0.993675 92.2729 1.25507 95.9301 1.24364H100.297C101.67 1.24364 103.181 1.24364 104.637 1.24364C106.092 1.24364 107.383 1.30363 108.757 1.35363C110.542 1.42363 112.382 1.48362 114.25 1.47362C116.118 1.46362 118.04 1.40363 119.894 1.35363C121.501 1.35363 149.777 1.25363 151.48 1.23363C153.183 1.21363 154.46 1.23363 155.902 1.29363C157.91 1.37863 159.923 1.37863 161.931 1.29363H162.343C165.746 1.0037 169.184 1.0037 172.587 1.29363C174.071 1.45363 175.54 1.68361 176.954 1.89361C178.589 2.14361 180.278 2.39364 181.94 2.55364C186.622 3.01364 191.47 2.42363 196.167 1.85363C197.925 1.63363 199.751 1.41359 201.536 1.25359C205.656 0.883591 239.398 0.793632 242.433 0.983632C244.768 1.13363 247.102 1.41364 249.3 1.68364L252.486 2.05364C255.578 2.41416 258.722 2.48134 261.838 2.25359C263.678 2.10359 265.546 1.88363 267.331 1.66363C268.869 1.48363 270.448 1.29361 272.028 1.14361C274.417 0.923606 276.834 0.843601 279.183 0.763601L282.437 0.643606L285.527 0.493642C288.027 0.373642 290.595 0.243615 293.135 0.153615H293.822C297.158 -0.0512051 300.511 -0.0512051 303.847 0.153615C305.33 0.283615 306.8 0.473625 308.228 0.663625C310.044 0.929464 311.877 1.12636 313.721 1.25359C316.707 1.36472 319.7 1.23734 322.647 0.873647C322.857 0.853468 323.07 0.874171 323.265 0.933645C326.042 1.83953 328.516 3.17355 330.516 4.84362C330.643 4.94623 330.732 5.06984 330.777 5.2036C331.093 6.2036 331.519 7.2036 331.917 8.2036C332.315 9.2036 332.837 10.4336 333.181 11.5736C333.491 12.5421 333.675 13.5298 333.73 14.5236C333.731 15.6016 333.584 16.6771 333.29 17.7336C332.866 19.4842 332.632 21.2563 332.59 23.0336C332.617 24.8529 332.833 26.668 333.235 28.4636C333.7 30.7456 333.961 33.0471 334.018 35.3536C334.018 36.6336 334.018 37.9236 334.018 39.1736C334.018 40.1036 334.018 41.0236 334.018 41.9436C334.018 44.0736 334.279 46.1836 334.554 48.5236V48.8136C334.705 50.1336 334.856 51.4636 334.993 52.8136C335.024 53.0094 334.95 53.2062 334.787 53.3636C334.33 53.8184 333.969 54.3206 333.716 54.8536C333.551 55.2436 333.428 55.6336 333.29 56.0636C333.208 56.3336 333.126 56.6136 333.029 56.8936C332.739 57.694 332.235 58.4449 331.546 59.1036C330.539 60.1023 329.08 60.8104 327.426 61.1036L326.547 61.2736C325.327 61.4792 324.125 61.7397 322.949 62.0536C322.057 62.3136 321.192 62.6136 320.272 62.9336C319.351 63.2536 318.335 63.6036 317.319 63.8836C315.109 64.4329 312.788 64.7101 310.452 64.7036C308.077 64.7636 305.756 64.7036 303.188 64.6536C301.814 64.6536 300.318 64.5936 298.917 64.5736L296.005 64.5236C294.934 64.5236 293.877 64.4436 292.847 64.3836C291.474 64.3136 290.1 64.2336 288.727 64.2536C287.212 64.298 285.704 64.4386 284.223 64.6736L282.163 64.9436C279.738 65.1846 277.287 65.2616 274.843 65.1736C272.33 65.1736 269.775 65.0436 267.303 64.9736C260.313 64.7636 253.09 64.5536 246.004 64.7836C245.07 64.7836 244.109 64.8736 243.188 64.9236C241.911 65.0036 240.607 65.0736 239.288 65.0936C237.009 65.0936 204.173 65.0136 201.894 64.8936L200.616 64.8136C196.708 64.4635 192.756 64.4635 188.847 64.8136H188.531H188.408C188.249 64.8342 188.086 64.8342 187.927 64.8136H187.666H187.405C182.995 63.985 178.444 63.6214 173.892 63.7336C172.656 63.7936 171.379 63.8936 170.157 63.9836C168.934 64.0736 167.41 64.1936 165.913 64.2536C164.416 64.3136 163.084 64.3436 161.711 64.3636C160.338 64.3836 159.06 64.3636 157.742 64.4536C155.751 64.5336 153.732 64.6636 151.782 64.7736C148.376 64.9836 118.246 65.1936 114.703 65.2236C109.704 65.2836 104.623 65.0136 99.7204 64.7536L98.2372 64.6736L95.8202 64.5036C94.0809 64.3413 92.327 64.2778 90.5742 64.3136C88.9831 64.412 87.4041 64.5959 85.8501 64.8636L83.9 65.1536C82.5491 65.3741 81.1608 65.4482 79.7802 65.3736C78.439 65.2537 77.1122 65.0598 75.8113 64.7936L75.5229 64.7336C74.4738 64.5208 73.4104 64.3472 72.3369 64.2136C71.526 64.1356 70.7101 64.0889 69.8924 64.0736C69.5216 64.0736 51.2705 64.0736 50.9135 64.0736C48.7711 63.9836 46.6151 63.8436 44.5277 63.7036C41.5751 63.5136 38.5401 63.3136 35.5463 63.2436C33.377 63.1006 31.1901 63.2257 29.0781 63.6136C27.9803 63.8802 26.9069 64.1975 25.8646 64.5636C25.0406 64.8436 24.1891 65.1236 23.3102 65.3736C22.2703 65.665 21.1694 65.8239 20.0555 65.8436ZM11.596 62.6836C13.3923 63.1611 15.2267 63.5585 17.0892 63.8736C18.0465 64.0517 19.027 64.1556 20.0143 64.1836C20.8903 64.1553 21.7516 64.0095 22.5549 63.7536C23.3652 63.5336 24.148 63.2736 24.972 62.9936C26.1006 62.6083 27.2609 62.2743 28.4464 61.9936C30.8028 61.551 33.2452 61.4022 35.6699 61.5536C38.7186 61.6236 41.7948 61.8236 44.7611 62.0236C46.8348 62.1536 48.9771 62.2936 51.092 62.3836C51.4353 62.3836 69.6727 62.3836 70.0298 62.3836C70.9485 62.4024 71.8652 62.4558 72.7763 62.5436C73.9288 62.6824 75.0703 62.866 76.1958 63.0936L76.4842 63.1536C77.6734 63.3966 78.885 63.577 80.1097 63.6936C81.2567 63.7381 82.4067 63.6709 83.5292 63.4936L85.4381 63.2036C87.1012 62.9214 88.7902 62.7276 90.4918 62.6236C92.3684 62.5793 94.2469 62.6461 96.1086 62.8236C96.8776 62.8836 97.6742 62.9436 98.4432 62.9836L99.9401 63.0636C104.802 63.3236 109.828 63.5836 114.73 63.5336C118.15 63.5336 148.239 63.2936 151.603 63.0936C153.567 62.9736 155.613 62.8536 157.618 62.7636C158.992 62.7036 160.365 62.6836 161.738 62.6636C163.112 62.6436 164.485 62.6636 165.858 62.5636C167.232 62.4636 168.605 62.4036 169.978 62.3036C171.351 62.2036 172.519 62.1136 173.796 62.0436C178.565 61.9206 183.333 62.2978 187.955 63.1636L188.27 63.2236H188.518C192.621 62.842 196.774 62.842 200.877 63.2236L232.765 63.2936C234.976 63.4136 237.146 63.5236 239.329 63.4936C240.579 63.4936 241.843 63.4036 243.079 63.3336C244.026 63.2736 245.001 63.2136 245.976 63.1836C253.159 62.9436 260.437 63.1836 267.482 63.3736C269.94 63.4436 272.495 63.5236 274.994 63.5736C277.287 63.659 279.586 63.5854 281.86 63.3536C282.506 63.2836 283.234 63.1936 283.838 63.1036C285.446 62.8462 287.082 62.6956 288.727 62.6536C290.196 62.6536 291.652 62.7136 293.053 62.7936C294.055 62.7936 295.099 62.9036 296.102 62.9236H298.999L303.311 62.9936C305.838 63.0636 308.104 63.1136 310.411 62.9936C312.501 63.0113 314.581 62.7747 316.564 62.2936C317.498 62.0336 318.404 61.7236 319.31 61.3836C320.217 61.0436 321.164 60.7436 322.139 60.4636C323.406 60.1251 324.699 59.8413 326.012 59.6136L326.877 59.4536C328.045 59.2593 329.078 58.766 329.788 58.0636C330.298 57.5706 330.671 57.0103 330.887 56.4136C330.983 56.1636 331.052 55.9036 331.134 55.6436C331.272 55.2036 331.409 54.7436 331.615 54.2936C331.885 53.6945 332.269 53.1257 332.755 52.6036C332.631 51.3736 332.494 50.1536 332.343 48.9336V48.6436C332.068 46.2736 331.835 44.1236 331.793 41.9436C331.793 41.0136 331.793 40.0836 331.793 39.1536C331.793 37.9136 331.793 36.6236 331.793 35.3636C331.742 33.131 331.495 30.9031 331.052 28.6936C330.634 26.8151 330.409 24.9165 330.379 23.0136C330.407 21.1449 330.655 19.2814 331.121 17.4436C331.374 16.4912 331.502 15.5236 331.505 14.5536C331.46 13.6645 331.299 12.7805 331.024 11.9136C330.695 10.8336 330.242 9.72363 329.802 8.66362C329.363 7.60362 329.019 6.76362 328.69 5.78362C326.991 4.44698 324.941 3.37242 322.661 2.62365C319.653 2.98672 316.6 3.10744 313.556 2.98363C311.592 2.87363 309.656 2.61365 307.775 2.37365C306.401 2.19365 304.946 2.00365 303.531 1.87365C300.333 1.6741 297.116 1.6741 293.918 1.87365H293.218C290.705 1.96365 288.136 2.09361 285.651 2.21361L282.547 2.36364C281.448 2.41364 280.35 2.44363 279.251 2.48363C276.958 2.56363 274.582 2.64363 272.289 2.85363C270.75 2.99363 269.185 3.18364 267.674 3.36364C265.834 3.58364 263.939 3.81361 262.044 3.96361C258.736 4.21306 255.397 4.14242 252.115 3.75359C251.044 3.64359 249.973 3.5136 248.888 3.3836C246.677 3.1236 244.397 2.8436 242.145 2.7036C239.275 2.5236 205.643 2.60361 201.729 2.96361C199.985 3.12361 198.186 3.34364 196.455 3.55364C191.594 4.14364 186.568 4.7536 181.541 4.2636C179.797 4.0936 178.067 3.83361 176.391 3.58361C175.018 3.37361 173.562 3.15364 172.148 2.99364C168.913 2.71865 165.646 2.71865 162.411 2.99364H162.013C159.913 3.07865 157.809 3.07865 155.71 2.99364C154.336 2.99364 152.839 2.90363 151.425 2.92363C150.01 2.94363 121.542 2.99363 119.949 3.04363C118.081 3.04363 116.145 3.15363 114.222 3.16363C112.3 3.17362 110.473 3.11363 108.661 3.04363C107.287 3.04363 105.983 2.95364 104.651 2.93364C103.318 2.91364 101.753 2.93364 100.352 2.93364C98.9514 2.93364 97.4132 2.93364 95.9438 2.93364C92.196 2.94205 88.4562 2.68075 84.7789 2.15362C81.5654 2.44362 78.7227 2.6836 76.1134 2.8836C74.026 3.0336 71.9935 3.17361 70.0847 3.27361L51.1744 3.33361C49.5402 3.43361 47.8373 3.53363 46.1481 3.54363C43.636 3.4993 41.135 3.28503 38.6774 2.90362C37.3041 2.71362 35.9308 2.53362 34.5575 2.41363C33.6464 2.33007 32.7292 2.28666 31.8109 2.28362C31.3061 2.28827 30.8019 2.31164 30.3003 2.35363C29.8884 2.35363 29.4626 2.41363 29.0369 2.42363C28.1692 2.46667 27.3092 2.57048 26.4688 2.73363C25.5007 2.91149 24.5125 3.02525 23.5163 3.0736C21.6791 3.05675 19.8643 2.77817 18.1741 2.25359C17.4737 2.07359 16.8008 1.8936 16.1416 1.7636C12.3043 2.32706 8.80704 3.75429 6.14405 5.84362C5.73206 6.36362 5.32008 6.92364 4.8669 7.55364V7.62365C4.94929 8.89365 5.01798 10.2036 5.05918 11.4936C5.10038 12.7836 5.05915 13.8936 4.99049 14.9236C4.92182 15.9536 4.75703 16.9236 4.60597 17.8536L4.49612 18.4536C4.05857 22.3929 4.19207 26.3547 4.89439 30.2736C4.96305 30.8236 5.04541 31.3836 5.11408 31.9436C5.43627 34.2327 5.59671 36.5325 5.59474 38.8336C5.61227 39.8941 5.47879 40.9532 5.19647 41.9936C4.87595 42.984 4.4724 43.9592 3.98801 44.9136L3.71333 45.4636C3.37001 46.1436 3.02667 46.8436 2.75201 47.5336C2.42452 48.2797 2.27135 49.0606 2.29884 49.8436C2.4374 50.5399 2.72956 51.2152 3.16402 51.8436C3.26015 52.0036 3.35626 52.1636 3.43866 52.3236C4.03727 53.318 4.39505 54.3804 4.49612 55.4636C4.49612 55.8703 4.49612 56.3203 4.49612 56.8136C5.79736 57.6365 7.03954 58.5077 8.21774 59.4236C8.97305 59.9936 9.59106 60.4836 10.0854 60.9636C10.578 61.3875 11.0104 61.8465 11.3763 62.3336C11.445 62.4336 11.5136 62.5536 11.596 62.6736V62.6836Z" fill="#636568"/>
<g style="mix-blend-mode:multiply" opacity="0.52">
<path d="M332.92 41.9536C332.92 39.7636 332.92 37.5637 332.92 35.3737C332.863 33.1007 332.606 30.8326 332.151 28.5836C331.739 26.7484 331.518 24.8931 331.491 23.0336C331.528 21.2088 331.771 19.3892 332.219 17.5936C332.489 16.6056 332.627 15.601 332.631 14.5936C332.581 13.6536 332.406 12.7193 332.109 11.8036C331.464 9.66365 330.393 7.58361 329.706 5.45361C328.379 4.37842 326.838 3.45476 325.133 2.71362C323.487 3.74074 322.008 4.90165 320.725 6.17365C319.709 7.20288 318.584 8.17248 317.36 9.07361C315.776 10.1153 314.061 11.0461 312.238 11.8536C310.917 12.2683 309.791 12.9548 308.998 13.8287C308.205 14.7027 307.78 15.7262 307.775 16.7736C307.342 19.0878 306.134 21.2891 304.259 23.1837C300.359 26.9537 294 29.0236 287.999 30.4436C280.987 31.9707 273.812 33.0679 266.548 33.7236C257.704 34.6536 248.943 35.8636 240.154 37.0036C228.261 38.5536 185.757 40.0036 173.837 41.4636C150.079 44.3036 99.6792 46.9136 75.7976 49.3336C70.0023 49.9136 46.3267 50.5936 40.5039 51.0436C35.2579 51.4436 29.9021 51.6236 24.8072 52.7636C18.2703 54.2336 13.2715 57.4736 8.32764 60.7636C8.64349 61.0336 8.97305 61.3036 9.27517 61.5836C9.71655 61.9682 10.1117 62.3797 10.4562 62.8136C10.5936 63.0136 10.7171 63.2237 10.827 63.4337C12.8197 63.974 14.856 64.4248 16.9244 64.7836C17.9605 64.965 19.0184 65.0721 20.083 65.1036C21.1031 65.073 22.1074 64.9104 23.0493 64.6237C25.0131 64.0837 26.8534 63.3036 28.8721 62.8436C31.1146 62.434 33.4351 62.2987 35.7386 62.4436C40.8884 62.5636 45.9971 63.0536 51.1332 63.2736C52.3417 63.3336 71.458 63.2736 72.6665 63.4636C73.8741 63.6163 75.0704 63.8132 76.2508 64.0536C77.4959 64.315 78.7681 64.5023 80.0548 64.6136C81.3073 64.6791 82.5663 64.6083 83.7902 64.4036C86.0534 64.0198 88.3464 63.736 90.6566 63.5536C93.2535 63.5264 95.8501 63.6232 98.4295 63.8436C103.923 64.1236 109.416 64.4536 114.813 64.3936C120.21 64.3336 152.318 63.8537 157.756 63.6237C160.502 63.5037 163.249 63.5536 165.996 63.4236C168.742 63.2936 171.31 63.0436 173.974 62.9036C178.633 62.7898 183.289 63.1601 187.804 64.0036L188.339 64.1036L188.806 64.0336C193.214 63.4836 228.316 63.8236 232.751 64.0336C234.976 64.1536 237.201 64.2636 239.439 64.2336C241.678 64.2036 243.889 64.0036 246.114 63.9236C255.727 63.6036 265.408 64.1036 275.035 64.3136C277.411 64.4006 279.792 64.327 282.149 64.0936C284.367 63.7465 286.615 63.5126 288.878 63.3936C291.323 63.3936 293.753 63.6136 296.198 63.6636C298.642 63.7136 301.004 63.7236 303.394 63.7936C305.783 63.8636 308.187 63.9036 310.576 63.7936C312.793 63.8109 314.998 63.5574 317.099 63.0436C319.022 62.5036 320.807 61.7536 322.73 61.2136C324.231 60.8061 325.768 60.472 327.33 60.2136C328.753 59.9691 330.01 59.3627 330.873 58.5036C331.464 57.9253 331.897 57.2703 332.151 56.5736C332.398 55.8836 332.563 55.1836 332.865 54.5036C333.149 53.8861 333.566 53.3055 334.101 52.7836C333.95 51.3636 333.785 49.9436 333.62 48.5236C333.263 46.3836 332.961 44.1736 332.92 41.9536Z" fill="#6C6C65"/>
</g>
<g style="mix-blend-mode:multiply" opacity="0.52">
<path d="M298.038 20.2536H298.148C301.137 19.5733 304.033 18.693 306.799 17.6237C309.752 16.5437 312.636 15.3636 315.547 14.2336C316.921 13.7036 318.294 13.2336 319.667 12.6936C321.041 12.1536 322.675 11.6936 324.172 11.1136C326.438 10.3136 328.676 9.48362 330.956 8.71362C330.503 7.62362 330.049 6.52364 329.692 5.42365C328.937 4.81568 328.115 4.2538 327.234 3.74365C322.537 6.21365 317.827 8.67363 313.199 11.2236C307.953 14.0636 302.844 17.0436 298.038 20.2536Z" fill="#6C6C65"/>
</g>
<g style="mix-blend-mode:multiply" opacity="0.52">
<path d="M310.082 28.0636C312.238 28.3336 314.408 28.5236 316.591 28.6536C321.095 28.9036 325.627 28.9336 330.159 28.9536H332.178C332.178 28.8336 332.178 28.7036 332.109 28.5736C331.862 27.3736 331.656 26.1636 331.546 24.9436C327.976 25.3536 324.419 25.7836 320.876 26.2836C317.333 26.7836 313.652 27.3836 310.082 28.0636Z" fill="#6C6C65"/>
</g>
<g style="mix-blend-mode:multiply" opacity="0.52">
<path d="M325.847 52.2036C323.238 51.3436 320.56 50.5736 317.882 49.8336C315.204 49.0936 312.526 48.3736 309.876 47.6136C307.651 46.9636 305.44 46.2836 303.298 45.5136C304.849 47.1836 306.333 48.8936 307.775 50.6136C310.521 53.9336 313.268 57.3136 316.014 60.6136C316.628 61.347 317.259 62.067 317.909 62.7736C319.448 62.2836 320.944 61.7036 322.524 61.2536C324.025 60.8461 325.562 60.512 327.124 60.2536C328.547 60.009 329.804 59.4027 330.667 58.5436C331.258 57.9654 331.691 57.3103 331.945 56.6136C332.164 56.0136 332.329 55.3836 332.563 54.7836C330.402 53.8196 328.159 52.9578 325.847 52.2036Z" fill="#6C6C65"/>
</g>
<g style="mix-blend-mode:multiply" opacity="0.52">
<path d="M25.6449 63.6936C26.4551 62.3736 27.2791 61.0736 28.1168 59.7636C29.662 57.3734 31.0372 54.9269 32.2367 52.4337C30.575 53.4337 28.9133 54.4337 27.2791 55.4337C23.9969 57.4937 20.7834 59.6136 17.666 61.8336C16.5811 62.6136 15.5237 63.4036 14.48 64.2036C15.249 64.3736 16.0181 64.5236 16.8009 64.6536C17.8369 64.835 18.8948 64.9421 19.9594 64.9736C20.9794 64.9429 21.9839 64.7804 22.9257 64.4937C23.8458 64.2737 24.711 63.9836 25.6449 63.6936Z" fill="#6C6C65"/>
</g>
<g style="mix-blend-mode:multiply" opacity="0.52">
<path d="M44.9948 53.8436C44.624 54.4736 44.2395 55.0936 43.8824 55.7236C42.5602 57.9372 41.4004 60.2004 40.408 62.5036C41.589 62.5636 42.7563 62.6436 43.9373 62.7136C44.2257 61.4336 44.5141 60.1436 44.7338 58.8536C45.0816 57.1963 45.1692 55.5154 44.9948 53.8436Z" fill="#6C6C65"/>
</g>
<g style="mix-blend-mode:multiply" opacity="0.52">
<path d="M106.532 48.8436C105.468 49.9486 104.548 51.1237 103.786 52.3536C102.189 55.027 100.952 57.8067 100.091 60.6536C99.7343 61.7336 99.4322 62.8136 99.1438 63.8936C102.041 64.0436 104.939 64.2036 107.85 64.3036C107.85 62.3036 107.96 60.2237 107.85 58.1837C107.865 55.0452 107.423 51.9144 106.532 48.8436Z" fill="#6C6C65"/>
</g>
<g style="mix-blend-mode:multiply" opacity="0.52">
<path d="M182.283 53.5836C181.72 54.5836 181.212 55.6437 180.745 56.6837C179.852 58.6837 179.124 60.8036 178.479 62.8936C179.536 62.9536 180.608 63.0336 181.679 63.1536C181.885 62.0536 182.132 60.9536 182.324 59.8636C182.812 57.7845 182.798 55.6593 182.283 53.5836Z" fill="#6C6C65"/>
</g>
<g style="mix-blend-mode:multiply" opacity="0.52">
<path d="M239.879 53.3436C239.4 54.1661 239.014 55.0155 238.725 55.8836C237.874 58.6279 237.363 61.4226 237.201 64.2336C237.915 64.2336 238.574 64.2336 239.33 64.2336C240.085 64.2336 240.703 64.2336 241.321 64.1636C241.322 60.5315 240.839 56.9078 239.879 53.3436Z" fill="#6C6C65"/>
</g>
<g style="mix-blend-mode:multiply" opacity="0.52">
<path d="M2.90313 44.6436C2.47741 45.5336 2.01048 46.4136 1.65342 47.3136C1.65342 47.4036 1.65344 47.4936 1.54358 47.5936C4.8578 46.2203 8.08961 44.7637 11.239 43.2237C15.1026 41.357 18.8425 39.357 22.4588 37.2237C20.9551 37.0569 19.4309 37.01 17.9132 37.0836C14.7547 37.2136 11.6373 37.6637 8.49245 37.9137C7.14698 38.019 5.79441 38.069 4.44121 38.0636C4.44121 38.3136 4.44121 38.5636 4.44121 38.8136C4.45542 39.8201 4.33122 40.8251 4.07044 41.8136C3.76582 42.7743 3.37589 43.7197 2.90313 44.6436Z" fill="#6C6C65"/>
</g>
<g style="mix-blend-mode:multiply" opacity="0.52">
<path d="M11.0329 7.39362C14.2359 9.01086 17.606 10.4452 21.113 11.6837C20.6889 10.6466 20.1278 9.6419 19.4375 8.68365C17.5704 6.16678 15.3964 3.77715 12.9418 1.54364C10.3086 2.26538 7.91649 3.38686 5.92432 4.83362C7.6272 5.68362 9.31631 6.54362 11.0329 7.39362Z" fill="#6C6C65"/>
</g>
<g style="mix-blend-mode:multiply" opacity="0.52">
<path d="M99.5832 9.93365C99.7892 9.30365 99.954 8.67363 100.091 8.03363C100.503 6.03363 100.682 4.03364 100.915 2.10364H97.8253C97.8523 3.46171 97.9898 4.81743 98.2373 6.16364C98.466 7.45657 98.9182 8.7233 99.5832 9.93365Z" fill="#6C6C65"/>
</g>
<g style="mix-blend-mode:multiply" opacity="0.52">
<path d="M189.795 10.3536C189.31 12.9078 189.195 15.4919 189.452 18.0636C190.287 16.817 190.954 15.5143 191.443 14.1736C192.528 11.3436 193.132 8.43362 194.093 5.58362C194.395 4.67362 194.753 3.75364 195.164 2.85364C193.654 3.03364 192.143 3.21363 190.633 3.34363C190.55 5.68363 190.125 8.02364 189.795 10.3536Z" fill="#6C6C65"/>
</g>
<g style="mix-blend-mode:multiply" opacity="0.52">
<path d="M264.969 14.5636C265.653 13.4221 266.249 12.2536 266.754 11.0636C267.88 8.4736 268.732 5.82364 269.844 3.23364C269.982 2.89364 270.133 2.55364 270.284 2.23364L266.013 2.73364C265.371 6.66029 265.022 10.6094 264.969 14.5636Z" fill="#6C6C65"/>
</g>
<g style="mix-blend-mode:multiply" opacity="0.52">
<path d="M167.094 2.8436C167.232 4.5536 167.328 6.26359 167.561 7.96359C167.733 9.39441 168.087 10.8105 168.619 12.1936C168.79 11.4323 168.9 10.6643 168.948 9.89359C169.14 7.30359 168.948 4.53362 169.772 1.99362C168.857 1.95362 167.941 1.95362 167.026 1.99362L167.094 2.8436Z" fill="#6C6C65"/>
</g>
<g style="mix-blend-mode:multiply" opacity="0.52">
<path d="M78.4481 6.11365C79.0173 8.10017 80.0088 10.0098 81.3869 11.7736C81.6433 10.8999 81.8177 10.0146 81.9088 9.12366C82.101 6.59893 82.101 4.06837 81.9088 1.54364L77.3632 1.92365C77.6104 3.32364 77.9812 4.72365 78.4481 6.11365Z" fill="#6C6C65"/>
</g>
<path d="M321.402 39.8428C321.402 38.0928 321.402 36.3328 321.402 34.5728C321.359 32.7562 321.129 30.9445 320.716 29.1528C320.343 27.6844 320.141 26.1958 320.112 24.7028C320.153 23.2414 320.374 21.7855 320.771 20.3527C321.017 19.5518 321.142 18.7336 321.142 17.9128C321.102 17.159 320.945 16.4109 320.675 15.6828C320.084 13.9628 319.109 12.3028 318.491 10.5928C316.691 9.3287 314.555 8.34531 312.215 7.70277C309.457 8.00611 306.665 8.10995 303.879 8.01277C300.817 7.86277 297.85 7.36277 294.815 7.13277C291.616 6.95574 288.402 6.95574 285.202 7.13277C281.961 7.23277 278.734 7.38278 275.493 7.52278C272.252 7.66278 269.217 7.66274 266.114 7.92274C263.01 8.18274 259.934 8.58275 256.816 8.80275C253.897 8.99959 250.957 8.94591 248.055 8.64278C245.02 8.35278 241.999 7.96274 238.936 7.79274C235.874 7.62274 202.228 7.79276 199.193 8.00276C193.247 8.48276 187.149 9.56276 181.12 9.00276C178.264 8.75276 175.462 8.26276 172.606 8.00276C169.465 7.76777 166.299 7.76777 163.158 8.00276C159.985 8.15276 156.799 7.91276 153.545 7.94276C150.29 7.97276 120.586 8.11277 117.317 8.13277C114.419 8.13277 111.536 7.98277 108.638 7.95277C106.001 7.95277 103.364 7.95277 100.728 7.95277C97.3389 7.97326 93.9549 7.76233 90.6202 7.32277C87.956 7.54277 85.2781 7.74274 82.5864 7.92274C80.7737 8.04274 78.9609 8.14274 77.0933 8.23274C75.2256 8.32274 73.4815 8.44276 71.6688 8.44276C68.1394 8.44276 46.8396 7.81275 43.3514 7.55275C42.4759 7.48122 41.5957 7.44451 40.7147 7.44276C39.8495 7.44276 38.9981 7.53275 38.1466 7.55275C36.4438 7.55275 34.837 8.03277 33.1341 8.07277C30.7995 8.13277 28.7121 7.36276 26.5011 7.00276C22.8075 7.44849 19.385 8.69634 16.682 10.5828C16.2014 11.1128 15.7482 11.6528 15.3087 12.2028C15.3911 13.3028 15.4736 14.4028 15.501 15.5128C15.501 16.4128 15.501 17.3128 15.501 18.2128C15.501 19.1128 15.2264 20.0628 15.0616 20.9928C14.3886 24.6328 15.0616 28.2927 15.6109 31.9227C15.8945 33.7322 16.0412 35.5516 16.0503 37.3728C16.06 38.1763 15.9448 38.9781 15.707 39.7628C15.4243 40.5337 15.0663 41.289 14.6358 42.0228C14.2513 42.7228 13.8256 43.4328 13.496 44.1528C13.1493 44.8166 12.9815 45.5227 13.0016 46.2327C13.1994 47.0034 13.5755 47.7439 14.114 48.4227C14.6138 49.1357 14.9126 49.9144 14.9929 50.7128C14.9929 51.1628 14.9929 51.6128 14.9929 52.0628C16.2729 52.7578 17.4971 53.5057 18.6596 54.3027C19.2364 54.6828 19.7857 55.0828 20.3076 55.4928C20.7064 55.7987 21.0608 56.1338 21.365 56.4928C21.493 56.6509 21.6076 56.8145 21.7083 56.9827C23.5119 57.413 25.3456 57.7735 27.2015 58.0628C28.1463 58.209 29.1065 58.296 30.0717 58.3228C31.011 58.3078 31.94 58.1758 32.8183 57.9328C34.6173 57.5028 36.279 56.9328 38.1192 56.5128C40.1779 56.1806 42.2929 56.0728 44.3951 56.1928C49.0643 56.2828 71.5864 56.6727 76.2556 56.8627C77.3679 56.8627 78.4803 56.8628 79.5652 57.0028C80.6501 57.1428 81.7488 57.3027 82.8337 57.4827C83.9679 57.6876 85.1193 57.8379 86.2806 57.9328C87.4211 57.9765 88.5647 57.9194 89.6864 57.7628C91.7316 57.451 93.7994 57.2239 95.8799 57.0828C98.2518 57.0813 100.622 57.1748 102.98 57.3627C107.91 57.5927 112.909 57.8528 117.853 57.8128C122.797 57.7728 154.355 57.3828 159.312 57.1928C161.784 57.0928 164.256 57.1328 166.728 57.0328C169.2 56.9328 171.548 56.7227 173.979 56.6127C178.202 56.5234 182.424 56.8225 186.545 57.5028L187.025 57.5728H187.451C191.476 57.2476 195.539 57.2476 199.564 57.5728C201.582 57.6728 234.212 57.7627 236.244 57.7327C238.277 57.7027 240.282 57.5427 242.301 57.4827C251.062 57.2327 259.838 57.6328 268.585 57.8027C270.745 57.8695 272.909 57.8059 275.054 57.6127C277.069 57.3358 279.105 57.1488 281.151 57.0527C283.376 57.0527 285.587 57.2328 287.812 57.2728C290.036 57.3128 292.165 57.2728 294.349 57.3728C296.532 57.4728 298.702 57.4628 300.872 57.3728C302.879 57.3903 304.879 57.1881 306.804 56.7728C308.548 56.3428 310.169 55.7728 311.913 55.3027C313.268 54.9929 314.643 54.7326 316.033 54.5228C317.282 54.3422 318.413 53.8637 319.246 53.1628C319.769 52.7057 320.165 52.1793 320.414 51.6127C320.633 51.0627 320.784 50.4928 321.059 49.9528C321.324 49.4516 321.7 48.9854 322.171 48.5728C322.034 47.4428 321.883 46.3027 321.732 45.1727C321.65 43.3927 321.43 41.6228 321.402 39.8428Z" fill="#BABCBE"/>
<g style="mix-blend-mode:screen">
<path d="M16.3888 33.7836C16.5124 31.2636 16.1828 28.7236 16.1004 26.2036C16.1004 25.2036 16.1004 24.2036 16.1691 23.2036C16.1691 22.6936 16.2789 22.2036 16.3751 21.6536C16.4847 21.2088 16.6692 20.7756 16.9244 20.3636C17.1578 19.9236 17.405 19.4836 17.6248 19.0336C17.8688 18.5844 17.9991 18.1067 18.0093 17.6237C17.8649 16.6928 17.6308 15.7706 17.3089 14.8636C17.0408 14.0417 17.0408 13.1856 17.3089 12.3636C17.5087 11.856 17.8144 11.3737 18.2153 10.9337C19.0259 10.0802 20.1226 9.39178 21.4013 8.93365C24.1005 8.06478 26.9679 7.5048 29.902 7.27362C28.9407 7.06362 27.9931 6.82364 27.0181 6.66364C23.3245 7.10936 19.902 8.35722 17.199 10.2437C16.7184 10.7737 16.2652 11.3136 15.8257 11.8636C15.9081 12.9636 15.9905 14.0636 16.018 15.1736C16.018 16.0736 16.018 16.9737 16.018 17.8737C16.018 18.7737 15.7434 19.7236 15.5786 20.6536C14.9056 24.2936 15.5786 27.9536 16.1279 31.5836C16.224 32.3336 16.3201 33.0536 16.3888 33.7836Z" fill="#828078"/>
</g>
<g style="mix-blend-mode:screen">
<path d="M182.448 56.4136C180.976 56.3372 179.512 56.1902 178.067 55.9736C176.529 55.6563 174.941 55.4816 173.343 55.4536C171.722 55.4536 170.102 55.7036 168.495 55.8236C166.888 55.9436 165.227 56.0437 163.606 56.1237C161.986 56.2037 160.393 56.2437 158.786 56.2437C157.179 56.2437 155.572 56.1737 153.966 56.2437C150.78 56.3437 121.007 56.7536 117.82 56.8536C115.623 56.9236 113.426 56.7436 111.242 56.6636C109.187 56.6339 107.136 56.5036 105.104 56.2736C103.73 56.0836 101.931 55.8136 101.108 54.8936C100.586 54.2442 100.356 53.4928 100.448 52.7437C99.8303 54.1337 98.7454 55.5936 96.5069 55.6036C95.0406 55.5033 93.5618 55.5742 92.1262 55.8136C90.5331 56.1936 89.1461 56.9537 87.402 56.9937C85.6712 56.9208 83.9641 56.6648 82.3346 56.2336C80.6753 55.9228 78.9664 55.7748 77.2533 55.7936C75.4952 55.862 73.7326 55.8352 71.9799 55.7136C70.1397 55.5336 50.4604 55.1736 48.6339 54.8536C46.825 54.5405 44.9901 54.3133 43.1407 54.1736C41.9976 54.0135 40.8231 54.0135 39.68 54.1736C38.4086 54.4865 37.1954 54.9131 36.0682 55.4436C34.643 55.9994 33.0781 56.3396 31.4677 56.4436C28.0183 56.6165 24.5893 55.9403 21.731 54.5236C20.562 53.944 19.5553 53.2076 18.7647 52.3536C18.3729 51.8998 18.0286 51.4251 17.7347 50.9337C17.472 50.5806 17.2735 50.204 17.1442 49.8136C17.1344 49.3224 17.0562 48.8333 16.9108 48.3536C16.6098 47.7886 16.2179 47.2515 15.7435 46.7536C14.9902 45.9407 14.3376 45.0807 13.7934 44.1837C13.5368 44.7371 13.4204 45.3199 13.4501 45.9036C13.6478 46.6742 14.024 47.4148 14.5624 48.0936C15.0623 48.8066 15.3611 49.5852 15.4414 50.3836C15.4414 50.8336 15.4414 51.2836 15.4414 51.7336C16.7214 52.4287 17.9456 53.1766 19.108 53.9736C19.6848 54.3536 20.2342 54.7536 20.756 55.1636C21.1549 55.4695 21.5092 55.8047 21.8134 56.1636C21.9414 56.3217 22.0561 56.4854 22.1568 56.6536C23.9604 57.0839 25.794 57.4444 27.6499 57.7336C28.5947 57.8799 29.5549 57.9669 30.5201 57.9937C31.4595 57.9786 32.3884 57.8467 33.2667 57.6036C35.0657 57.1736 36.7274 56.6037 38.5677 56.1837C40.6264 55.8515 42.7414 55.7437 44.8436 55.8636C49.5128 55.9536 72.0348 56.3436 76.704 56.5336C77.8164 56.5336 78.9288 56.5336 80.0137 56.6736C81.0986 56.8136 82.1972 56.9736 83.2821 57.1536C84.4163 57.3585 85.5678 57.5088 86.7291 57.6036C87.8696 57.6474 89.0132 57.5903 90.1349 57.4337C92.1801 57.1218 94.2479 56.8948 96.3284 56.7536C98.7003 56.7521 101.071 56.8456 103.428 57.0336C108.359 57.2636 113.357 57.5236 118.301 57.4836C123.245 57.4436 154.803 57.0536 159.761 56.8636C162.233 56.7636 164.705 56.8036 167.177 56.7036C169.649 56.6036 171.997 56.3936 174.428 56.2836C178.651 56.1943 182.873 56.4934 186.993 57.1736L187.474 57.2437H187.9C188.298 57.1937 188.696 57.1636 189.108 57.1336C186.919 56.7625 184.691 56.5217 182.448 56.4136Z" fill="#828078"/>
</g>
<g style="mix-blend-mode:screen">
<path d="M77.8987 8.6936C81.8538 8.5136 85.7677 8.15363 89.7365 8.09363C91.792 8.05187 93.8489 8.12539 95.8889 8.3136C97.9214 8.4936 100.009 8.74361 101.973 8.88361C103.953 9.00864 105.947 8.9785 107.919 8.79364C109.971 8.56857 112.039 8.42836 114.112 8.37366C114.171 8.37366 114.227 8.39047 114.268 8.42047C114.309 8.45048 114.332 8.4912 114.332 8.53363C114.525 11.0036 114.195 13.4636 114.154 15.9236C115.527 14.1136 114.593 11.7236 116.241 9.92365C116.483 9.62968 116.835 9.39181 117.256 9.23779C117.676 9.08377 118.148 9.01995 118.617 9.05365C120.145 9.17535 121.681 9.2321 123.217 9.22363C126.747 9.08363 156.808 8.38361 160.365 8.51361C162.095 8.57361 163.785 8.79365 165.529 8.74365C167.273 8.69365 168.893 8.55362 170.569 8.52362C172.193 8.50141 173.815 8.61552 175.403 8.86365C177.105 9.11365 178.726 9.56365 180.415 9.86365C182.143 10.1078 183.922 10.0805 185.634 9.78363C187.254 9.51363 188.861 9.38362 190.509 9.21362C194.054 8.81258 197.57 8.28194 201.042 7.62366L199.669 7.72363C193.722 8.20363 187.625 9.28363 181.596 8.72363C178.74 8.47363 175.938 7.98363 173.082 7.72363C169.941 7.48864 166.775 7.48864 163.633 7.72363C160.461 7.87363 157.275 7.63364 154.02 7.66364C150.766 7.69364 121.061 7.83364 117.793 7.85364C114.895 7.85364 112.011 7.70364 109.114 7.67365C106.477 7.67365 103.84 7.67365 101.204 7.67365C97.8148 7.69413 94.4308 7.4832 91.0961 7.04364C88.4319 7.26364 85.754 7.46362 83.0623 7.64362C81.2495 7.76362 79.4368 7.86361 77.5691 7.95361C75.7014 8.04361 73.9573 8.16364 72.1446 8.16364C70.84 8.16364 51.6688 8.08362 50.3916 7.96362C53.6051 8.45362 74.6989 8.8436 77.8987 8.6936Z" fill="#828078"/>
</g>
<g style="mix-blend-mode:screen">
<path d="M322.345 44.8436C322.112 43.0736 321.892 41.3036 321.865 39.5236C321.837 37.7436 321.865 36.0136 321.865 34.2536C321.821 32.437 321.592 30.6254 321.178 28.8336C320.806 27.3653 320.603 25.8767 320.574 24.3836C320.615 22.9222 320.836 21.4665 321.233 20.0336C321.48 19.2328 321.604 18.4144 321.604 17.5936C321.564 16.8399 321.407 16.0918 321.137 15.3637C320.546 13.6437 319.571 11.9836 318.953 10.2736C317.153 9.00955 315.017 8.02616 312.677 7.38362C309.92 7.68696 307.127 7.79079 304.341 7.69362C301.279 7.54362 298.313 7.04361 295.278 6.81361C292.078 6.63659 288.864 6.63659 285.665 6.81361H285.376C287.038 6.81361 288.7 6.94363 290.348 7.08363C293.066 7.30303 295.746 7.73213 298.34 8.36366C299.604 8.69366 300.757 9.21366 302.062 9.48366C302.903 9.60729 303.774 9.5694 304.589 9.37367C305.536 9.21367 306.47 9.01363 307.418 8.89363C308.118 8.72852 308.873 8.72852 309.574 8.89363C310.439 9.20363 310.233 9.99365 309.986 10.5336C309.48 11.5117 308.807 12.4391 307.981 13.2937C307.816 13.487 307.651 13.667 307.486 13.8336L307.83 13.5437C308.654 12.8537 309.505 12.1737 310.398 11.5437C311.133 11.0045 311.943 10.5219 312.815 10.1037C313.391 9.79038 314.102 9.63783 314.82 9.67366C315.644 9.78366 316.124 10.4436 316.468 10.9436C317.036 11.8323 317.496 12.7559 317.841 13.7036C318.019 14.1336 318.184 14.5537 318.335 14.9937C318.486 15.4337 318.692 15.8736 318.816 16.3236C319.107 17.8414 319.033 19.3845 318.596 20.8836C318.427 21.6677 318.34 22.4599 318.335 23.2536C318.356 23.9435 318.439 24.6316 318.582 25.3136C318.857 26.7536 319.036 28.2037 319.228 29.6637C319.47 31.1809 319.603 32.7063 319.626 34.2337C319.619 35.0092 319.55 35.7839 319.42 36.5537C319.297 37.3237 319.063 38.0836 318.857 38.8436C318.625 39.4996 318.468 40.1686 318.39 40.8436C318.346 41.5341 318.539 42.2217 318.953 42.8436C319.571 43.7536 320.78 44.6636 320.505 45.7536C320.388 46.1836 320.1 46.5793 319.678 46.892C319.256 47.2047 318.718 47.4207 318.129 47.5136C317.139 47.5914 316.14 47.4522 315.259 47.1137C314.118 46.7161 313.029 46.2441 312.004 45.7036C310.919 45.1636 309.876 44.5936 308.791 44.0636C308.314 43.8207 307.819 43.597 307.308 43.3936L308.31 44.0636C310.665 45.7018 313.165 47.2251 315.795 48.6237C316.613 48.9469 317.264 49.4561 317.649 50.0736C317.853 50.758 317.691 51.4733 317.195 52.0736C316.125 53.2196 314.543 54.0606 312.718 54.4536C310.724 54.9504 308.661 55.2858 306.566 55.4536C304.078 55.712 301.568 55.8456 299.054 55.8537C295.703 55.8537 292.366 55.6036 289.015 55.5336C287.335 55.4919 285.653 55.5153 283.975 55.6037C282.32 55.7171 280.68 55.9312 279.073 56.2437C277.535 56.5137 275.997 56.8136 274.431 57.0236C273.65 57.1337 272.862 57.2138 272.069 57.2636C271.204 57.3236 270.325 57.2636 269.46 57.2636H265.683L269.089 57.3436C271.249 57.4104 273.412 57.3468 275.557 57.1536C277.572 56.8767 279.608 56.6897 281.655 56.5936C283.879 56.5936 286.09 56.7736 288.315 56.8136C290.54 56.8536 292.668 56.8137 294.852 56.9137C297.035 57.0136 299.205 57.0037 301.375 56.9137C303.383 56.9312 305.383 56.7289 307.308 56.3136C309.052 55.8836 310.672 55.3136 312.416 54.8436C313.771 54.5338 315.146 54.2734 316.536 54.0636C317.785 53.8831 318.916 53.4045 319.75 52.7036C320.272 52.2465 320.669 51.7202 320.917 51.1536C321.137 50.6036 321.288 50.0337 321.562 49.4937C321.827 48.9925 322.203 48.5263 322.675 48.1137C322.647 47.1437 322.496 46.0036 322.345 44.8436Z" fill="#828078"/>
</g>
<g style="mix-blend-mode:screen">
<path d="M101.931 47.5536C101.808 47.8836 101.712 48.2236 101.629 48.5536C101.739 48.2336 101.849 47.8936 101.931 47.5536Z" fill="#828078"/>
</g>
<g style="mix-blend-mode:multiply" opacity="0.39">
<path d="M304.177 44.1336C303.71 43.6924 303.034 43.3932 302.282 43.2937C301.336 43.1101 300.334 43.1496 299.421 43.4066C298.508 43.6635 297.731 44.1247 297.2 44.7236C296.866 45.1609 296.691 45.6532 296.692 46.1536C296.577 46.4222 296.521 46.7024 296.527 46.9837C296.537 47.3185 296.656 47.6467 296.876 47.9408C297.096 48.2349 297.41 48.4863 297.791 48.6737C300.73 50.1537 304.506 47.8236 304.657 45.5736C304.734 45.0674 304.564 44.5577 304.177 44.1336Z" fill="#6C6C65"/>
<path d="M314.408 46.6036C314.229 46.2471 313.915 45.9349 313.501 45.7036C313.367 45.618 313.22 45.5442 313.062 45.4836C312.843 45.3904 312.607 45.3197 312.361 45.2736C312.027 45.2186 311.68 45.2186 311.345 45.2736C310.749 45.3716 310.228 45.633 309.889 46.0036V46.0636C309.889 46.1536 309.752 46.2536 309.711 46.3436C309.666 46.4717 309.634 46.6021 309.615 46.7336C309.608 46.8369 309.608 46.9404 309.615 47.0436C309.608 47.1302 309.608 47.217 309.615 47.3036C309.596 47.507 309.634 47.7109 309.725 47.9036C309.838 48.1407 310.043 48.3489 310.315 48.5036C310.631 48.6607 311.004 48.7475 311.386 48.7536C311.857 48.7492 312.323 48.6814 312.76 48.5536C313.177 48.4394 313.556 48.2621 313.872 48.0336C314.132 47.8536 314.32 47.6252 314.414 47.3731C314.509 47.121 314.506 46.8549 314.408 46.6036Z" fill="#6C6C65"/>
<path d="M314.27 36.8436C314.169 36.4851 313.925 36.1563 313.568 35.8984C313.212 35.6404 312.758 35.4648 312.265 35.3936C311.671 35.2988 311.054 35.3112 310.467 35.4297C309.881 35.5482 309.343 35.7692 308.901 36.0736C308.453 36.3811 308.174 36.7972 308.118 37.2436C308.106 37.4369 308.144 37.6301 308.228 37.8136C308.188 38.1367 308.277 38.4613 308.484 38.7486C308.691 39.0358 309.008 39.2737 309.395 39.4336C309.933 39.6255 310.53 39.7116 311.127 39.6836C311.725 39.6555 312.302 39.5142 312.801 39.2736C313.356 39.0257 313.795 38.6602 314.057 38.2259C314.32 37.7917 314.394 37.3094 314.27 36.8436Z" fill="#6C6C65"/>
<path d="M288.095 41.7536C288.079 41.7083 288.04 41.6692 287.986 41.6436C287.925 41.5857 287.837 41.5464 287.738 41.5337H287.67H287.422C287.313 41.5233 287.202 41.5233 287.093 41.5337L286.804 41.6037C286.531 41.6913 286.298 41.8334 286.132 42.0136C286.055 42.086 286.007 42.1726 285.994 42.2636C285.96 42.3416 285.96 42.4256 285.994 42.5036L286.077 42.6536C286.139 42.7168 286.225 42.7654 286.324 42.7937C286.396 42.8087 286.472 42.8087 286.544 42.7937C286.652 42.8136 286.765 42.8136 286.873 42.7937H286.942C287.032 42.8087 287.126 42.8087 287.216 42.7937C287.28 42.8031 287.345 42.8031 287.409 42.7937C287.512 42.7728 287.61 42.7389 287.697 42.6936L287.848 42.5937L287.986 42.4737C288.027 42.4212 288.055 42.3636 288.068 42.3037V42.2036V42.1336V42.0636V41.9137C288.094 41.8625 288.103 41.8078 288.095 41.7536Z" fill="#6C6C65"/>
<path d="M283.948 49.6637V49.5836C283.948 49.5236 283.948 49.5136 283.948 49.5036C284.566 49.9436 283.811 49.3936 283.77 49.3836L283.55 49.3037H283.426H283.289C283.139 49.2951 282.988 49.3122 282.849 49.3537H282.698L282.41 49.4737L282.149 49.6336L282.053 49.7036C282.014 49.7254 281.981 49.7526 281.957 49.7836L281.792 49.8836L281.655 50.0136V50.0936C281.6 50.1602 281.572 50.2362 281.572 50.3136C281.559 50.3732 281.559 50.4341 281.572 50.4937C281.608 50.5834 281.686 50.6613 281.792 50.7136C281.906 50.7687 282.04 50.7966 282.176 50.7937H282.671L282.959 50.7337L283.261 50.6637C283.42 50.6235 283.562 50.5547 283.673 50.4636L283.811 50.3836C283.891 50.3235 283.96 50.2564 284.017 50.1837V50.1237C284.099 50.0137 284.017 50.0536 284.017 50.0236V49.8336V49.6637H283.948Z" fill="#6C6C65"/>
</g>
<g style="mix-blend-mode:screen">
<path d="M33.2118 36.5136C31.7425 36.7075 30.227 36.5787 28.8585 36.1436C28.1993 35.9736 27.5539 35.8036 26.8947 35.6636C26.5209 35.5783 26.1327 35.5312 25.7411 35.5236L25.8647 35.4536C26.9683 34.6806 27.7491 33.6961 28.1169 32.6136C28.4759 31.4833 28.9346 30.371 29.4902 29.2836C29.6412 29.0436 29.092 29.0536 28.9684 29.2236C28.2595 30.2616 27.6626 31.3382 27.1831 32.4436C26.8008 33.4792 26.0527 34.424 25.0133 35.1837C24.2757 35.5649 23.4946 35.8994 22.6787 36.1837C21.8135 36.5437 20.9483 36.9136 20.1106 37.3136C19.2729 37.7136 18.4627 38.1236 17.6799 38.5736C16.8547 38.9963 16.115 39.5012 15.4826 40.0736C15.1667 40.3936 15.771 40.5537 16.1006 40.3737C16.9245 39.9337 17.6387 39.3736 18.4626 38.8836C19.2866 38.3936 20.0694 38.0236 20.9071 37.6336C21.7448 37.2436 22.7611 36.8037 23.7224 36.4337L24.1618 36.2636C24.876 36.3736 25.5351 36.5736 26.263 36.7036C26.9908 36.8336 27.7598 36.9736 28.5426 37.0636C30.1344 37.2553 31.7674 37.1416 33.2805 36.7336C33.4041 36.6936 33.4453 36.4736 33.2118 36.5136Z" fill="#828078"/>
</g>
<g style="mix-blend-mode:screen">
<path d="M264.31 7.58361C263.458 8.10361 262.744 8.73364 261.962 9.30364C261.179 9.87364 260.588 10.3036 259.86 10.8236C259.724 10.8324 259.593 10.8703 259.486 10.9325C259.379 10.9947 259.299 11.0786 259.256 11.1736C259.25 11.2169 259.25 11.2604 259.256 11.3036C257.936 12.3204 256.698 13.3922 255.548 14.5136C255.328 14.7336 255.809 14.8336 256.001 14.6636C256.949 13.837 257.992 13.0709 259.119 12.3736C259.144 12.9663 259.218 13.5573 259.338 14.1436C259.531 15.1436 259.833 16.2136 259.902 17.2636C259.902 17.5736 260.561 17.4036 260.574 17.1636C260.575 16.1606 260.487 15.1586 260.314 14.1636C260.183 13.343 260.183 12.5142 260.314 11.6936L260.712 11.4436C261.536 10.9336 262.332 10.4436 263.115 9.87365C263.961 9.35293 264.725 8.76607 265.395 8.12365C265.766 7.57365 264.832 7.25361 264.31 7.58361Z" fill="#828078"/>
</g>
<g style="mix-blend-mode:screen">
<path d="M255.878 57.1536C251.401 56.9336 246.883 57.2036 242.406 57.2536C240.264 57.2536 238.121 57.2537 235.979 57.1237C233.836 56.9937 201.056 56.9236 198.9 56.9536C197.705 56.9536 196.497 56.9536 195.288 56.9536C194.029 56.9755 192.772 56.8712 191.553 56.6436C191.36 56.6436 191.086 56.8436 191.333 56.9036C192.274 57.1809 193.243 57.4049 194.231 57.5736C195.261 57.7036 196.291 57.7736 197.321 57.8336C199.463 57.9536 232.189 58.1336 234.4 58.2836C236.607 58.3988 238.826 58.2877 240.991 57.9536C243.29 57.7004 245.616 57.5967 247.94 57.6436C250.536 57.6436 253.159 57.7036 255.741 57.5836C255.988 57.5836 256.359 57.1736 255.878 57.1536Z" fill="#828078"/>
</g>
<g filter="url(#filter0_d_1_30)">
<path d="M58.2781 41.24C63.2941 41.24 66.4861 38.744 66.4861 34.664V34.304H62.4781V34.664C62.4781 36.776 61.2781 37.784 58.3501 37.784C54.8221 37.784 53.5021 36.536 53.5021 32.96C53.5021 29.384 54.8221 28.136 58.3501 28.136C61.2781 28.136 62.4781 29.144 62.4781 31.256V31.616H66.4861V31.256C66.4861 27.176 63.2701 24.68 58.2781 24.68C52.9741 24.68 49.6861 27.944 49.6861 32.96C49.6861 37.976 52.9741 41.24 58.2781 41.24ZM76.9661 41.24C82.4141 41.24 85.7021 37.976 85.7021 32.96C85.7021 27.944 82.4141 24.68 76.9661 24.68C71.6381 24.68 68.3261 27.944 68.3261 32.96C68.3261 37.976 71.6381 41.24 76.9661 41.24ZM76.9661 37.784C73.4381 37.784 72.1421 36.536 72.1421 32.96C72.1421 29.384 73.4381 28.136 76.9661 28.136C80.4941 28.136 81.8621 29.384 81.8621 32.96C81.8621 36.536 80.4941 37.784 76.9661 37.784ZM91.512 41V33.248L91.368 30.296H91.608L93.648 33.32L99.576 41H103.416V24.92H99.816V32.672L99.984 35.912H99.72L97.512 32.528L91.752 24.92H87.912V41H91.512ZM109.566 41V33.248L109.422 30.296H109.662L111.702 33.32L117.63 41H121.47V24.92H117.87V32.672L118.038 35.912H117.774L115.566 32.528L109.806 24.92H105.966V41H109.566ZM137.628 41V37.76H127.62V34.52H137.268V31.304H127.62V28.16H137.628V24.92H124.02V41H137.628ZM148.127 41.24C153.143 41.24 156.335 38.744 156.335 34.664V34.304H152.327V34.664C152.327 36.776 151.127 37.784 148.199 37.784C144.671 37.784 143.351 36.536 143.351 32.96C143.351 29.384 144.671 28.136 148.199 28.136C151.127 28.136 152.327 29.144 152.327 31.256V31.616H156.335V31.256C156.335 27.176 153.119 24.68 148.127 24.68C142.823 24.68 139.535 27.944 139.535 32.96C139.535 37.976 142.823 41.24 148.127 41.24ZM167.487 41V28.16H173.463V24.92H157.911V28.16H163.887V41H167.487ZM188.184 41L190.632 32.96L191.76 28.328H192.024L193.152 32.96L195.552 41H200.904L204.72 24.92H200.784L198.84 34.04L198.288 37.568H198.024L197.28 34.04L194.616 24.92H189.264L186.576 34.04L185.832 37.568H185.568L185.016 34.04L183.072 24.92H179.04L182.832 41H188.184ZM209.555 41L211.091 37.448H219.131L220.643 41H224.771L217.691 24.92H212.555L205.523 41H209.555ZM213.995 30.704L214.979 28.208H215.243L216.227 30.704L217.739 34.208H212.483L213.995 30.704ZM239.427 41V37.76H229.851V24.92H226.251V41H239.427ZM254.692 41V37.76H245.116V24.92H241.516V41H254.692ZM270.389 41V37.76H260.381V34.52H270.029V31.304H260.381V28.16H270.389V24.92H256.781V41H270.389ZM281.607 41V28.16H287.583V24.92H272.031V28.16H278.007V41H281.607Z" fill="white"/>
</g>
<defs>
<filter id="filter0_d_1_30" x="45.686" y="22.68" width="245.897" height="24.56" filterUnits="userSpaceOnUse" color-interpolation-filters="sRGB">
<feFlood flood-opacity="0" result="BackgroundImageFix"/>
<feColorMatrix in="SourceAlpha" type="matrix" values="0 0 0 0 0 0 0 0 0 0 0 0 0 0 0 0 0 0 127 0" result="hardAlpha"/>
<feOffset dy="2"/>
<feGaussianBlur stdDeviation="2"/>
<feComposite in2="hardAlpha" operator="out"/>
<feColorMatrix type="matrix" values="0 0 0 0 0.0263021 0 0 0 0 0.0440596 0 0 0 0 0.0986979 0 0 0 0.68 0"/>
<feBlend mode="normal" in2="BackgroundImageFix" result="effect1_dropShadow_1_30"/>
<feBlend mode="normal" in="SourceGraphic" in2="effect1_dropShadow_1_30" result="shape"/>
</filter>
</defs>
</svg>