<svg width="117" height="32" viewBox="0 0 117 32" fill="none" xmlns="http://www.w3.org/2000/svg">
<path d="M9.7699 17.3143L7.52966 12.4159V17.3143H2.31867V5.60168H1.17419L2.31867 0.727478H9.79425C11.5636 0.727478 13.0085 1.28522 14.1286 2.40071C15.2648 3.5162 15.8332 4.95518 15.8332 6.71717C15.8332 9.02915 14.9239 10.7751 13.1059 11.9551L16.0036 17.3143H9.7699ZM8.77153 5.55318H7.52966V8.29341H8.77153C9.95642 8.29341 10.5491 7.84915 10.5491 6.95967C10.5491 6.02217 9.95642 5.55318 8.77153 5.55318Z" fill="white"/>
<path d="M27.0343 17.3143L26.5717 15.0106H21.8477L21.1659 17.3143H15.8331L19.0961 5.18944H17.9273L19.5587 0.727478H27.8379L32.5619 17.3143H27.0343ZM24.2097 5.72293L22.9191 10.6456H25.5246L24.2097 5.72293Z" fill="white"/>
<path d="M44.7128 6.98393C44.2906 6.61243 43.7631 6.27293 43.13 5.96544C42.4316 5.64244 41.8394 5.48045 41.3524 5.48045C40.4271 5.48045 39.5992 5.7957 38.8687 6.42619C38.1542 7.05668 37.7973 7.82492 37.7973 8.72992C37.7973 9.24741 37.8864 9.72416 38.0651 10.1607C38.2434 10.5972 38.4913 10.973 38.8078 11.2883C39.1244 11.6035 39.4974 11.8504 39.9279 12.0279C40.358 12.2059 40.8328 12.2946 41.3524 12.2946C42.4399 12.2946 43.5357 11.7451 44.6397 10.6457L46.953 15.3986C45.3946 16.8051 43.4709 17.5083 41.182 17.5083C38.763 17.5083 36.6849 16.6921 34.9483 15.0591C33.2111 13.4101 32.3428 11.3814 32.3428 8.97242C32.3428 7.06493 33.0407 5.23019 34.4369 3.46772C36.0601 1.41473 38.1055 0.387996 40.5732 0.387996C40.8815 0.387996 41.2063 0.400121 41.5472 0.424371C41.8881 0.448621 42.2451 0.49324 42.6187 0.557745L42.9596 0L47.1478 1.57624L44.7128 6.98393Z" fill="white"/>
<path d="M60.1505 6.98393C59.7282 6.61243 59.2008 6.27293 58.5677 5.96544C57.8693 5.64244 57.2771 5.48045 56.7901 5.48045C55.8648 5.48045 55.0369 5.7957 54.3064 6.42619C53.5919 7.05668 53.235 7.82492 53.235 8.72992C53.235 9.24741 53.3241 9.72416 53.5028 10.1607C53.6811 10.5972 53.9289 10.973 54.2455 11.2883C54.5621 11.6035 54.9351 11.8504 55.3656 12.0279C55.7956 12.2059 56.2705 12.2946 56.7901 12.2946C57.8776 12.2946 58.9734 11.7451 60.0774 10.6457L62.3907 15.3986C60.8323 16.8051 58.9086 17.5083 56.6197 17.5083C54.2007 17.5083 52.1226 16.6921 50.386 15.0591C48.6488 13.4101 47.7805 11.3814 47.7805 8.97242C47.7805 7.06493 48.4783 5.23019 49.8746 3.46772C51.4978 1.41473 53.5432 0.387996 56.0109 0.387996C56.3192 0.387996 56.644 0.400121 56.9849 0.424371C57.3258 0.448621 57.6828 0.49324 58.0563 0.557745L58.3972 0L62.5855 1.57624L60.1505 6.98393Z" fill="white"/>
<path d="M78.6081 3.00696C76.9192 1.27746 74.825 0.412231 72.3257 0.412231C69.6306 0.412231 67.3903 1.32596 65.605 3.15246C64.0134 4.78592 63.2186 6.6289 63.2186 8.6814C63.2186 11.3489 64.0709 13.4916 65.7754 15.1076C67.5121 16.7411 69.7114 17.5568 72.3744 17.5568C75.0042 17.5568 77.1792 16.6276 78.9003 14.7681C80.3935 13.1356 81.1406 11.3246 81.1406 9.33615C81.1406 6.84715 80.2961 4.73742 78.6081 3.00696ZM72.2147 12.8941C70.3226 12.8941 67.8778 11.4405 67.4249 9.50881C67.5486 8.98162 67.8204 8.48935 68.19 8.05333C67.6022 7.10517 67.7337 5.66231 67.7337 5.66231C68.9424 5.55318 69.7606 6.22199 70.1322 6.61726C70.8213 6.3025 71.5518 6.12402 72.2147 6.12402C72.877 6.12402 73.6075 6.30202 74.2956 6.61678C74.6731 6.22005 75.4864 5.56579 76.683 5.67395C76.683 5.67395 76.813 7.10177 76.2364 8.04945C76.607 8.48692 76.8802 8.98016 77.0044 9.50881C76.5515 11.4405 74.1067 12.8941 72.2147 12.8941Z" fill="white"/>
<path d="M97.4067 14.7681C95.6856 16.6276 93.5106 17.5568 90.8807 17.5568C88.2183 17.5568 86.0184 16.7406 84.2818 15.1076C82.5772 13.4911 81.725 11.3489 81.725 8.6814C81.725 6.62842 82.5203 4.78544 84.1113 3.15246C85.8967 1.32596 88.1369 0.412231 90.832 0.412231C93.3319 0.412231 95.426 1.27746 97.1145 3.00696C98.8024 4.73694 99.6469 6.84667 99.6469 9.33615C99.6469 11.3246 98.8998 13.1356 97.4067 14.7681ZM93.121 6.62017C92.52 5.97367 91.7408 5.65018 90.7833 5.65018C89.8415 5.65018 89.0135 5.95767 88.2996 6.57167C87.6178 7.18616 87.2769 7.9704 87.2769 8.9239C87.2769 9.42539 87.366 9.88177 87.5447 10.294C87.723 10.7063 87.9665 11.0622 88.2752 11.361C88.5835 11.6602 88.9527 11.8906 89.3832 12.0521C89.8132 12.2141 90.2798 12.2946 90.7833 12.2946C91.2538 12.2946 91.6882 12.2097 92.0861 12.04C92.4835 11.8702 92.8288 11.6399 93.121 11.3489C93.4132 11.0579 93.6401 10.7106 93.8028 10.3061C93.965 9.90214 94.0463 9.46564 94.0463 8.99665C94.0463 8.07516 93.7375 7.28316 93.121 6.62017Z" fill="white"/>
<path d="M110.848 17.3143L106.148 9.91814V17.3143H100.937V5.18944H99.7925L100.937 0.727478H106.221L109.849 6.40193V0.727478H115.036V17.3143H110.848Z" fill="white"/>
<path d="M50.6275 24.6329C50.3319 24.373 49.9628 24.1353 49.5196 23.92C49.0306 23.6935 48.6162 23.5805 48.2753 23.5805C47.6275 23.5805 47.048 23.8012 46.5366 24.2425C46.0365 24.6838 45.7867 25.2217 45.7867 25.8551C45.7867 26.2174 45.849 26.5511 45.9742 26.8566C46.0988 27.1622 46.2722 27.425 46.4938 27.6462C46.7154 27.8669 46.9769 28.0395 47.2779 28.1637C47.5788 28.2883 47.911 28.3504 48.2753 28.3504C49.0365 28.3504 49.8035 27.9658 50.5764 27.1961L52.1957 30.5232C51.1048 31.5077 49.7582 32 48.156 32C46.4626 32 45.0079 31.4287 43.7924 30.2855C42.5763 29.1313 41.9685 27.7112 41.9685 26.0249C41.9685 24.6897 42.457 23.4054 43.4344 22.1716C44.5706 20.7345 46.0024 20.0158 47.7298 20.0158C47.9456 20.0158 48.173 20.024 48.4116 20.041C48.6503 20.058 48.9001 20.0895 49.1616 20.1341L49.4003 19.7437L52.3321 20.847L50.6275 24.6329Z" fill="white"/>
<path d="M53.269 31.8642V23.6823H52.4679L53.3031 20.2534H56.8997V31.8642H53.269Z" fill="white"/>
<path d="M65.1837 23.7333H63.036V31.8642H59.4224L59.4053 23.6823H57.2747L58.0587 20.2534H62.7292L62.8314 19.7951H66.1382L65.1837 23.7333Z" fill="white"/>
<path d="M72.5473 26.636V31.8642H68.9337V26.636L65.4394 20.2534H69.5473L70.6893 22.7827L71.8825 20.2534H75.9223L72.5473 26.636Z" fill="white"/>
</svg>
