<svg width="245" height="66" viewBox="0 0 245 66" fill="none" xmlns="http://www.w3.org/2000/svg">
<path d="M242.955 41.9536C242.955 39.7636 242.955 37.5637 242.955 35.3737C242.913 33.1007 242.726 30.8327 242.395 28.5836C242.095 26.7484 241.934 24.8931 241.915 23.0336C241.941 21.2088 242.118 19.3893 242.445 17.5936C242.641 16.6057 242.742 15.601 242.745 14.5936C242.708 13.6536 242.581 12.7193 242.365 11.8037C241.895 9.66366 241.115 7.58363 240.615 5.45363C239.228 3.90043 237.523 2.66552 235.615 1.83363C233.406 2.21307 231.162 2.3439 228.925 2.22365C226.485 2.03365 224.095 1.41367 221.665 1.12367C219.116 0.908646 216.553 0.908646 214.005 1.12367C211.415 1.25367 208.815 1.44366 206.225 1.61366C203.635 1.78366 201.225 1.79366 198.705 2.11366C196.185 2.43366 193.705 2.94365 191.255 3.22365C188.922 3.45727 186.569 3.38665 184.255 3.01363C181.815 2.65363 179.395 2.16363 176.945 1.95363C174.495 1.74363 149.775 1.95364 147.335 2.21364C142.565 2.81364 137.685 4.21364 132.855 3.52364C130.565 3.21364 128.315 2.60362 126.035 2.25362C123.516 1.96362 120.973 1.96362 118.455 2.25362C115.915 2.44362 113.355 2.14367 110.805 2.18367C108.255 2.22367 86.2946 2.40366 83.7246 2.42366C81.3946 2.42366 79.0846 2.23362 76.7246 2.19362C74.6146 2.19362 72.5046 2.19362 70.3946 2.19362C67.6709 2.20742 64.953 1.93934 62.2845 1.39363C60.1445 1.67363 57.9979 1.92363 55.8446 2.14363C54.3946 2.29363 52.9345 2.42366 51.4745 2.54366C50.0145 2.66366 35.5546 2.79366 34.1146 2.80366C31.2746 2.80366 28.5446 2.00366 25.7446 1.67366C25.0409 1.5902 24.3331 1.54679 23.6246 1.54366C22.9346 1.54366 22.2545 1.65367 21.5645 1.68367C20.2045 1.68367 18.9145 2.27363 17.5645 2.33363C15.6945 2.41363 14.0146 1.44362 12.2446 1.00362C9.20849 1.60157 6.44755 3.16625 4.37456 5.46364C3.99456 6.13364 3.63454 6.81364 3.28454 7.46364C3.34454 8.84364 3.40456 10.2237 3.43456 11.6037C3.43456 12.7237 3.43454 13.8536 3.38454 14.9736C3.33454 16.0936 3.17454 17.2936 3.03454 18.4536C2.49454 22.9936 3.03454 27.5737 3.47454 32.1137C3.70609 34.373 3.82291 36.6425 3.82455 38.9137C3.83489 39.9202 3.74445 40.9252 3.55456 41.9137C3.32864 42.8678 3.04136 43.8065 2.69454 44.7236C2.38454 45.6136 2.04454 46.4936 1.78454 47.3936C1.50757 48.2286 1.37237 49.104 1.38454 49.9837C1.53499 50.9382 1.83538 51.8629 2.27456 52.7236C2.6742 53.629 2.91439 54.5965 2.98455 55.5836C2.98455 56.1436 2.98455 56.7136 2.98455 57.2736C4.02302 58.1471 5.00814 59.0821 5.93456 60.0736C6.39456 60.5536 6.83456 61.0736 7.24456 61.5636C7.56596 61.9482 7.85368 62.3598 8.10454 62.7937C8.20454 62.9937 8.29456 63.2037 8.37456 63.4137C9.82558 63.954 11.3083 64.4048 12.8145 64.7636C13.5689 64.945 14.3393 65.0521 15.1146 65.0836C15.8573 65.0529 16.5887 64.8904 17.2746 64.6037C18.7046 64.0637 20.0445 63.2836 21.5145 62.8236C23.1475 62.4139 24.8372 62.2788 26.5145 62.4237C30.2645 62.5437 33.9845 63.0336 37.7245 63.2536C38.6045 63.3136 52.5246 63.2536 53.4046 63.4436C54.2839 63.5963 55.155 63.7932 56.0145 64.0336C56.9212 64.295 57.8476 64.4823 58.7845 64.5936C59.6966 64.6591 60.6133 64.5883 61.5045 64.3836C63.1526 63.9998 64.8223 63.716 66.5045 63.5336C68.4093 63.5112 70.3135 63.6148 72.2046 63.8436C76.2046 64.1236 80.2045 64.4536 84.1345 64.3936C88.0645 64.3336 111.445 63.8537 115.405 63.6237C117.405 63.5037 119.405 63.5537 121.405 63.4237C123.405 63.2937 125.275 63.0436 127.215 62.9036C130.606 62.7898 133.997 63.1602 137.285 64.0036L137.675 64.1037L138.015 64.0336C141.225 63.4836 166.785 63.8236 170.015 64.0336C171.635 64.1536 173.255 64.2637 174.885 64.2337C176.515 64.2037 178.125 64.0037 179.745 63.9237C186.745 63.6037 193.795 64.1036 200.805 64.3136C202.534 64.4006 204.268 64.327 205.985 64.0936C207.6 63.7465 209.237 63.5126 210.885 63.3936C212.665 63.3936 214.435 63.6137 216.215 63.6637C217.995 63.7136 219.715 63.7237 221.455 63.7937C223.195 63.8637 224.945 63.9037 226.685 63.7937C228.299 63.8109 229.904 63.5574 231.435 63.0437C232.835 62.5037 234.135 61.7536 235.535 61.2136C236.628 60.8061 237.747 60.472 238.885 60.2136C239.921 59.9691 240.836 59.3627 241.465 58.5036C241.895 57.9254 242.21 57.2703 242.395 56.5736C242.575 55.8836 242.695 55.1836 242.915 54.5036C243.121 53.8861 243.425 53.3055 243.815 52.7836C243.705 51.3636 243.585 49.9436 243.465 48.5236C243.205 46.3836 242.985 44.1736 242.955 41.9536Z" fill="#807E77"/>
<path d="M15.1345 65.8436H15.0745C14.2417 65.8151 13.414 65.7012 12.6045 65.5036C11.0641 65.1378 9.54785 64.6769 8.06446 64.1236C7.94978 64.0846 7.84533 64.0202 7.7588 63.9354C7.67227 63.8506 7.60585 63.7475 7.56446 63.6336C7.50096 63.4547 7.4241 63.2809 7.33448 63.1136C7.1171 62.721 6.85899 62.3523 6.56446 62.0136C6.21446 61.5736 5.81448 61.1136 5.30448 60.5736C4.39761 59.6091 3.43602 58.6977 2.42448 57.8436C2.33021 57.7636 2.25452 57.664 2.20271 57.5517C2.15089 57.4395 2.12421 57.3172 2.12449 57.1936C2.12449 56.5836 2.12449 56.0436 2.12449 55.5636C2.05763 54.6705 1.84128 53.795 1.48448 52.9736C1.41448 52.8236 1.35446 52.6736 1.28446 52.5136C0.892233 51.7156 0.638616 50.8567 0.534465 49.9736C0.504371 48.9964 0.646554 48.0215 0.954478 47.0936C1.17448 46.3536 1.43449 45.6236 1.68449 44.9236L1.88447 44.3736C2.21621 43.489 2.49013 42.5838 2.70448 41.6636C2.88693 40.7349 2.97405 39.79 2.96449 38.8436C2.9602 36.5958 2.84338 34.3497 2.61448 32.1136C2.56448 31.5636 2.51448 31.0036 2.45448 30.4436C1.93521 26.4113 1.84137 22.3356 2.17448 18.2836L2.25447 17.6736C2.36447 16.6736 2.48449 15.7936 2.52449 14.8636C2.56449 13.9336 2.59447 12.7836 2.57447 11.5436C2.55447 10.3036 2.49449 8.97361 2.43449 7.71361V7.43364C2.42348 7.2879 2.45472 7.14203 2.52449 7.0136C2.92449 6.2436 3.28447 5.5736 3.63447 4.9536C3.66201 4.90306 3.69559 4.85603 3.73448 4.81359C5.93372 2.38649 8.85333 0.728664 12.0645 0.083608C12.1832 0.0585089 12.3058 0.0585089 12.4245 0.083608C13.0545 0.243608 13.6545 0.463625 14.2445 0.663625C15.2751 1.11125 16.3814 1.35895 17.5045 1.39361C18.133 1.35055 18.7559 1.24673 19.3645 1.08361C20.073 0.90653 20.7958 0.792784 21.5245 0.743642C21.8045 0.743642 22.0745 0.743635 22.3645 0.673635C22.6545 0.603635 23.1845 0.603628 23.6145 0.603628C24.3533 0.604459 25.0914 0.651231 25.8245 0.743642C26.8245 0.863642 27.9345 1.05364 28.9545 1.24364C30.6409 1.61121 32.3589 1.81547 34.0845 1.85363C35.2545 1.85363 36.4545 1.75363 37.6245 1.66363L51.3945 1.60363C52.7745 1.49363 54.2445 1.3636 55.7445 1.2036C57.6745 1.0136 59.7445 0.763613 62.1645 0.463613C62.2606 0.449522 62.3583 0.449522 62.4545 0.463613C65.0642 0.993675 67.7214 1.25507 70.3845 1.24364H73.5645C74.5645 1.24364 75.6645 1.24364 76.7245 1.24364C77.7845 1.24364 78.7245 1.30363 79.7245 1.35363C81.0245 1.42363 82.3645 1.48362 83.7245 1.47362C85.0845 1.46362 86.4845 1.40363 87.8345 1.35363C89.0045 1.35363 109.594 1.25363 110.834 1.23363C112.074 1.21363 113.004 1.23363 114.054 1.29363C115.517 1.37863 116.982 1.37863 118.444 1.29363H118.744C121.223 1.0037 123.726 1.0037 126.204 1.29363C127.284 1.45363 128.354 1.68361 129.384 1.89361C130.574 2.14361 131.804 2.39364 133.014 2.55364C136.424 3.01364 139.954 2.42363 143.374 1.85363C144.654 1.63363 145.984 1.41359 147.285 1.25359C150.285 0.883591 174.854 0.793632 177.064 0.983632C178.764 1.13363 180.464 1.41364 182.064 1.68364L184.384 2.05364C186.636 2.41416 188.925 2.48134 191.194 2.25359C192.534 2.10359 193.894 1.88363 195.194 1.66363C196.314 1.48363 197.464 1.29361 198.614 1.14361C200.354 0.923606 202.114 0.843601 203.824 0.763601L206.194 0.643606L208.444 0.493642C210.264 0.373642 212.135 0.243615 213.985 0.153615H214.485C216.914 -0.0512051 219.355 -0.0512051 221.785 0.153615C222.865 0.283615 223.935 0.473625 224.975 0.663625C226.297 0.929464 227.632 1.12636 228.975 1.25359C231.149 1.36472 233.328 1.23734 235.475 0.873647C235.627 0.853468 235.782 0.874171 235.924 0.933645C237.947 1.83953 239.748 3.17355 241.204 4.84362C241.296 4.94623 241.362 5.06984 241.394 5.2036C241.624 6.2036 241.935 7.2036 242.225 8.2036C242.514 9.2036 242.894 10.4336 243.144 11.5736C243.371 12.5421 243.505 13.5298 243.545 14.5236C243.546 15.6016 243.438 16.6771 243.225 17.7336C242.916 19.4842 242.745 21.2563 242.714 23.0336C242.734 24.8529 242.892 26.668 243.184 28.4636C243.522 30.7456 243.713 33.0471 243.754 35.3536C243.754 36.6336 243.754 37.9236 243.754 39.1736C243.754 40.1036 243.754 41.0236 243.754 41.9436C243.754 44.0736 243.944 46.1836 244.144 48.5236V48.8136C244.254 50.1336 244.364 51.4636 244.464 52.8136C244.487 53.0094 244.433 53.2062 244.314 53.3636C243.981 53.8184 243.718 54.3206 243.535 54.8536C243.415 55.2436 243.325 55.6336 243.225 56.0636C243.165 56.3336 243.105 56.6136 243.035 56.8936C242.823 57.694 242.456 58.4449 241.954 59.1036C241.221 60.1023 240.159 60.8104 238.954 61.1036L238.314 61.2736C237.426 61.4792 236.551 61.7397 235.694 62.0536C235.044 62.3136 234.414 62.6136 233.744 62.9336C233.074 63.2536 232.335 63.6036 231.594 63.8836C229.985 64.4329 228.295 64.7101 226.594 64.7036C224.865 64.7636 223.174 64.7036 221.304 64.6536C220.304 64.6536 219.214 64.5936 218.194 64.5736L216.074 64.5236C215.294 64.5236 214.524 64.4436 213.774 64.3836C212.774 64.3136 211.774 64.2336 210.774 64.2536C209.671 64.298 208.574 64.4386 207.494 64.6736L205.994 64.9436C204.229 65.1846 202.444 65.2616 200.665 65.1736C198.835 65.1736 196.974 65.0436 195.174 64.9736C190.084 64.7636 184.825 64.5536 179.665 64.7836C178.985 64.7836 178.284 64.8736 177.614 64.9236C176.684 65.0036 175.734 65.0736 174.774 65.0936C173.114 65.0936 149.205 65.0136 147.545 64.8936L146.614 64.8136C143.769 64.4635 140.89 64.4635 138.045 64.8136H137.814H137.725C137.609 64.8342 137.49 64.8342 137.374 64.8136H137.184H136.994C133.783 63.985 130.469 63.6214 127.154 63.7336C126.254 63.7936 125.324 63.8936 124.434 63.9836C123.544 64.0736 122.434 64.1936 121.344 64.2536C120.254 64.3136 119.284 64.3436 118.284 64.3636C117.284 64.3836 116.354 64.3636 115.394 64.4536C113.944 64.5336 112.474 64.6636 111.054 64.7736C108.574 64.9836 86.6345 65.1936 84.0545 65.2236C80.4145 65.2836 76.7145 65.0136 73.1445 64.7536L72.0645 64.6736L70.3045 64.5036C69.038 64.3413 67.7608 64.2778 66.4845 64.3136C65.3258 64.412 64.176 64.5959 63.0445 64.8636L61.6245 65.1536C60.6408 65.3741 59.6299 65.4482 58.6245 65.3736C57.6479 65.2537 56.6818 65.0598 55.7345 64.7936L55.5245 64.7336C54.7605 64.5208 53.9862 64.3472 53.2045 64.2136C52.614 64.1356 52.0199 64.0889 51.4245 64.0736C51.1545 64.0736 37.8645 64.0736 37.6045 64.0736C36.0445 63.9836 34.4745 63.8436 32.9545 63.7036C30.8045 63.5136 28.5945 63.3136 26.4145 63.2436C24.8348 63.1006 23.2424 63.2257 21.7045 63.6136C20.9051 63.8802 20.1235 64.1975 19.3645 64.5636C18.7645 64.8436 18.1445 65.1236 17.5045 65.3736C16.7472 65.665 15.9456 65.8239 15.1345 65.8436ZM8.97447 62.6836C10.2824 63.1611 11.6182 63.5585 12.9745 63.8736C13.6716 64.0517 14.3855 64.1556 15.1045 64.1836C15.7423 64.1553 16.3695 64.0095 16.9545 63.7536C17.5445 63.5336 18.1145 63.2736 18.7145 62.9936C19.5363 62.6083 20.3813 62.2743 21.2445 61.9936C22.9604 61.551 24.7389 61.4022 26.5045 61.5536C28.7245 61.6236 30.9645 61.8236 33.1245 62.0236C34.6345 62.1536 36.1945 62.2936 37.7345 62.3836C37.9845 62.3836 51.2645 62.3836 51.5245 62.3836C52.1935 62.4024 52.861 62.4558 53.5245 62.5436C54.3637 62.6824 55.1949 62.866 56.0145 63.0936L56.2245 63.1536C57.0904 63.3966 57.9727 63.577 58.8645 63.6936C59.6997 63.7381 60.5371 63.6709 61.3545 63.4936L62.7445 63.2036C63.9555 62.9214 65.1854 62.7276 66.4245 62.6236C67.791 62.5793 69.1588 62.6461 70.5145 62.8236C71.0745 62.8836 71.6545 62.9436 72.2145 62.9836L73.3045 63.0636C76.8445 63.3236 80.5045 63.5836 84.0745 63.5336C86.5645 63.5336 108.474 63.2936 110.924 63.0936C112.354 62.9736 113.844 62.8536 115.304 62.7636C116.304 62.7036 117.304 62.6836 118.304 62.6636C119.304 62.6436 120.304 62.6636 121.304 62.5636C122.304 62.4636 123.304 62.4036 124.304 62.3036C125.304 62.2036 126.154 62.1136 127.084 62.0436C130.557 61.9206 134.029 62.2978 137.394 63.1636L137.624 63.2236H137.804C140.792 62.842 143.817 62.842 146.804 63.2236L170.024 63.2936C171.634 63.4136 173.214 63.5236 174.804 63.4936C175.714 63.4936 176.635 63.4036 177.535 63.3336C178.225 63.2736 178.934 63.2136 179.644 63.1836C184.874 62.9436 190.174 63.1836 195.304 63.3736C197.094 63.4436 198.954 63.5236 200.774 63.5736C202.444 63.659 204.119 63.5854 205.774 63.3536C206.244 63.2836 206.774 63.1936 207.214 63.1036C208.385 62.8462 209.577 62.6956 210.774 62.6536C211.844 62.6536 212.904 62.7136 213.924 62.7936C214.654 62.7936 215.414 62.9036 216.144 62.9236H218.254L221.394 62.9936C223.234 63.0636 224.884 63.1136 226.564 62.9936C228.086 63.0113 229.601 62.7747 231.045 62.2936C231.725 62.0336 232.385 61.7236 233.045 61.3836C233.705 61.0436 234.395 60.7436 235.105 60.4636C236.027 60.1251 236.969 59.8413 237.924 59.6136L238.554 59.4536C239.405 59.2593 240.157 58.766 240.674 58.0636C241.046 57.5706 241.317 57.0103 241.475 56.4136C241.545 56.1636 241.594 55.9036 241.654 55.6436C241.755 55.2036 241.854 54.7436 242.004 54.2936C242.201 53.6945 242.481 53.1257 242.834 52.6036C242.744 51.3736 242.645 50.1536 242.535 48.9336V48.6436C242.335 46.2736 242.164 44.1236 242.134 41.9436C242.134 41.0136 242.134 40.0836 242.134 39.1536C242.134 37.9136 242.134 36.6236 242.134 35.3636C242.097 33.131 241.917 30.9031 241.594 28.6936C241.29 26.8151 241.126 24.9165 241.105 23.0136C241.125 21.1449 241.306 19.2814 241.644 17.4436C241.829 16.4912 241.922 15.5236 241.924 14.5536C241.892 13.6645 241.775 12.7805 241.574 11.9136C241.334 10.8336 241.004 9.72363 240.684 8.66362C240.364 7.60362 240.114 6.76362 239.874 5.78362C238.637 4.44698 237.145 3.37242 235.485 2.62365C233.294 2.98672 231.071 3.10744 228.855 2.98363C227.425 2.87363 226.014 2.61365 224.644 2.37365C223.644 2.19365 222.584 2.00365 221.554 1.87365C219.225 1.6741 216.884 1.6741 214.554 1.87365H214.045C212.215 1.96365 210.344 2.09361 208.535 2.21361L206.274 2.36364C205.474 2.41364 204.674 2.44363 203.874 2.48363C202.204 2.56363 200.474 2.64363 198.804 2.85363C197.684 2.99363 196.544 3.18364 195.444 3.36364C194.104 3.58364 192.725 3.81361 191.344 3.96361C188.936 4.21306 186.505 4.14242 184.114 3.75359C183.334 3.64359 182.554 3.5136 181.764 3.3836C180.154 3.1236 178.495 2.8436 176.855 2.7036C174.765 2.5236 150.274 2.60361 147.424 2.96361C146.154 3.12361 144.844 3.34364 143.584 3.55364C140.044 4.14364 136.385 4.7536 132.725 4.2636C131.454 4.0936 130.195 3.83361 128.975 3.58361C127.975 3.37361 126.914 3.15364 125.884 2.99364C123.529 2.71865 121.15 2.71865 118.795 2.99364H118.504C116.976 3.07865 115.443 3.07865 113.914 2.99364C112.914 2.99364 111.825 2.90363 110.795 2.92363C109.765 2.94363 89.0345 2.99363 87.8745 3.04363C86.5145 3.04363 85.1045 3.15363 83.7045 3.16363C82.3045 3.17362 80.9745 3.11363 79.6545 3.04363C78.6545 3.04363 77.7045 2.95364 76.7345 2.93364C75.7645 2.91364 74.6245 2.93364 73.6045 2.93364C72.5845 2.93364 71.4645 2.93364 70.3945 2.93364C67.6654 2.94205 64.9422 2.68075 62.2645 2.15362C59.9245 2.44362 57.8545 2.6836 55.9545 2.8836C54.4345 3.0336 52.9545 3.17361 51.5645 3.27361L37.7945 3.33361C36.6045 3.43361 35.3645 3.53363 34.1345 3.54363C32.3052 3.4993 30.4841 3.28503 28.6945 2.90362C27.6945 2.71362 26.6945 2.53362 25.6945 2.41363C25.031 2.33007 24.3631 2.28666 23.6945 2.28362C23.3269 2.28827 22.9597 2.31164 22.5945 2.35363C22.2945 2.35363 21.9845 2.41363 21.6745 2.42363C21.0426 2.46667 20.4164 2.57048 19.8045 2.73363C19.0995 2.91149 18.3799 3.02525 17.6545 3.0736C16.3167 3.05675 14.9952 2.77817 13.7645 2.25359C13.2545 2.07359 12.7645 1.8936 12.2845 1.7636C9.49019 2.32706 6.94359 3.75429 5.00447 5.84362C4.70447 6.36362 4.40447 6.92364 4.07447 7.55364V7.62365C4.13447 8.89365 4.18449 10.2036 4.21449 11.4936C4.24449 12.7836 4.21447 13.8936 4.16447 14.9236C4.11447 15.9536 3.99447 16.9236 3.88447 17.8536L3.80448 18.4536C3.48587 22.3929 3.58308 26.3547 4.09449 30.2736C4.14449 30.8236 4.20447 31.3836 4.25447 31.9436C4.48908 34.2327 4.6059 36.5325 4.60447 38.8336C4.61723 39.8941 4.52004 40.9532 4.31446 41.9936C4.08107 42.984 3.78721 43.9592 3.43449 44.9136L3.23448 45.4636C2.98448 46.1436 2.73446 46.8436 2.53446 47.5336C2.296 48.2797 2.18446 49.0606 2.20448 49.8436C2.30537 50.5399 2.51812 51.2152 2.83448 51.8436C2.90448 52.0036 2.97446 52.1636 3.03446 52.3236C3.47036 53.318 3.73089 54.3804 3.80448 55.4636C3.80448 55.8703 3.80448 56.3203 3.80448 56.8136C4.75202 57.6365 5.65654 58.5077 6.51448 59.4236C7.06448 59.9936 7.51449 60.4836 7.87449 60.9636C8.23313 61.3875 8.54803 61.8465 8.81446 62.3336C8.86446 62.4336 8.91447 62.5536 8.97447 62.6736V62.6836Z" fill="#636568"/>
<g style="mix-blend-mode:multiply" opacity="0.52">
<path d="M242.954 41.9536C242.954 39.7636 242.954 37.5637 242.954 35.3737C242.913 33.1007 242.726 30.8326 242.394 28.5836C242.094 26.7484 241.934 24.8931 241.914 23.0336C241.941 21.2088 242.118 19.3892 242.444 17.5936C242.641 16.6056 242.741 15.601 242.744 14.5936C242.708 13.6536 242.581 12.7193 242.364 11.8036C241.894 9.66365 241.114 7.58361 240.614 5.45361C239.648 4.37842 238.526 3.45476 237.284 2.71362C236.086 3.74074 235.009 4.90165 234.074 6.17365C233.335 7.20288 232.516 8.17248 231.624 9.07361C230.471 10.1153 229.222 11.0461 227.894 11.8536C226.933 12.2683 226.113 12.9548 225.535 13.8287C224.958 14.7027 224.648 15.7262 224.644 16.7736C224.329 19.0878 223.45 21.2891 222.084 23.1837C219.244 26.9537 214.614 29.0236 210.244 30.4436C205.138 31.9707 199.913 33.0679 194.624 33.7236C188.184 34.6536 181.804 35.8636 175.404 37.0036C166.744 38.5536 135.794 40.0036 127.114 41.4636C109.814 44.3036 73.1145 46.9136 55.7245 49.3336C51.5045 49.9136 34.2645 50.5936 30.0245 51.0436C26.2045 51.4436 22.3045 51.6236 18.5945 52.7636C13.8345 54.2336 10.1945 57.4736 6.59448 60.7636C6.82448 61.0336 7.06445 61.3036 7.28445 61.5836C7.60586 61.9682 7.8936 62.3797 8.14447 62.8136C8.24447 63.0136 8.33446 63.2237 8.41446 63.4337C9.86548 63.974 11.3483 64.4248 12.8545 64.7836C13.6089 64.965 14.3792 65.0721 15.1545 65.1036C15.8972 65.073 16.6286 64.9104 17.3145 64.6237C18.7445 64.0837 20.0845 63.3036 21.5545 62.8436C23.1874 62.434 24.8772 62.2987 26.5545 62.4436C30.3045 62.5636 34.0245 63.0536 37.7645 63.2736C38.6445 63.3336 52.5645 63.2736 53.4445 63.4636C54.3238 63.6163 55.1949 63.8132 56.0545 64.0536C56.9611 64.315 57.8875 64.5023 58.8245 64.6136C59.7365 64.6791 60.6532 64.6083 61.5445 64.4036C63.1925 64.0198 64.8622 63.736 66.5445 63.5536C68.4354 63.5264 70.3262 63.6232 72.2045 63.8436C76.2045 64.1236 80.2045 64.4536 84.1345 64.3936C88.0645 64.3336 111.444 63.8537 115.404 63.6237C117.404 63.5037 119.404 63.5536 121.404 63.4236C123.404 63.2936 125.274 63.0436 127.214 62.9036C130.606 62.7898 133.997 63.1601 137.284 64.0036L137.674 64.1036L138.014 64.0336C141.224 63.4836 166.784 63.8236 170.014 64.0336C171.634 64.1536 173.254 64.2636 174.884 64.2336C176.514 64.2036 178.124 64.0036 179.744 63.9236C186.744 63.6036 193.794 64.1036 200.804 64.3136C202.534 64.4006 204.268 64.327 205.984 64.0936C207.6 63.7465 209.237 63.5126 210.884 63.3936C212.664 63.3936 214.434 63.6136 216.214 63.6636C217.994 63.7136 219.714 63.7236 221.454 63.7936C223.194 63.8636 224.944 63.9036 226.684 63.7936C228.299 63.8109 229.904 63.5574 231.434 63.0436C232.834 62.5036 234.134 61.7536 235.534 61.2136C236.628 60.8061 237.747 60.472 238.884 60.2136C239.921 59.9691 240.836 59.3627 241.464 58.5036C241.895 57.9253 242.21 57.2703 242.394 56.5736C242.574 55.8836 242.694 55.1836 242.914 54.5036C243.121 53.8861 243.425 53.3055 243.814 52.7836C243.704 51.3636 243.584 49.9436 243.464 48.5236C243.204 46.3836 242.984 44.1736 242.954 41.9536Z" fill="#6C6C65"/>
</g>
<g style="mix-blend-mode:multiply" opacity="0.52">
<path d="M217.554 20.2536H217.634C219.811 19.5733 221.92 18.693 223.934 17.6237C226.084 16.5437 228.184 15.3636 230.304 14.2336C231.304 13.7036 232.304 13.2336 233.304 12.6936C234.304 12.1536 235.494 11.6936 236.584 11.1136C238.234 10.3136 239.864 9.48362 241.524 8.71362C241.194 7.62362 240.864 6.52364 240.604 5.42365C240.055 4.81568 239.456 4.2538 238.814 3.74365C235.394 6.21365 231.964 8.67363 228.594 11.2236C224.774 14.0636 221.054 17.0436 217.554 20.2536Z" fill="#6C6C65"/>
</g>
<g style="mix-blend-mode:multiply" opacity="0.52">
<path d="M226.324 28.0636C227.894 28.3336 229.474 28.5236 231.064 28.6536C234.344 28.9036 237.644 28.9336 240.944 28.9536H242.414C242.414 28.8336 242.414 28.7036 242.364 28.5736C242.184 27.3736 242.034 26.1636 241.954 24.9436C239.354 25.3536 236.764 25.7836 234.184 26.2836C231.604 26.7836 228.924 27.3836 226.324 28.0636Z" fill="#6C6C65"/>
</g>
<g style="mix-blend-mode:multiply" opacity="0.52">
<path d="M237.805 52.2036C235.905 51.3436 233.955 50.5736 232.005 49.8336C230.055 49.0936 228.104 48.3736 226.174 47.6136C224.554 46.9636 222.945 46.2836 221.385 45.5136C222.515 47.1836 223.595 48.8936 224.645 50.6136C226.645 53.9336 228.645 57.3136 230.645 60.6136C231.091 61.347 231.551 62.067 232.025 62.7736C233.145 62.2836 234.235 61.7036 235.385 61.2536C236.478 60.8461 237.597 60.512 238.735 60.2536C239.771 60.009 240.686 59.4027 241.315 58.5436C241.745 57.9654 242.06 57.3103 242.245 56.6136C242.405 56.0136 242.525 55.3836 242.695 54.7836C241.122 53.8196 239.488 52.9578 237.805 52.2036Z" fill="#6C6C65"/>
</g>
<g style="mix-blend-mode:multiply" opacity="0.52">
<path d="M19.2045 63.6936C19.7945 62.3736 20.3945 61.0736 21.0045 59.7636C22.1297 57.3734 23.131 54.9269 24.0045 52.4337C22.7945 53.4337 21.5845 54.4337 20.3945 55.4337C18.0045 57.4937 15.6645 59.6136 13.3945 61.8336C12.6045 62.6136 11.8345 63.4036 11.0745 64.2036C11.6345 64.3736 12.1945 64.5236 12.7645 64.6536C13.5189 64.835 14.2892 64.9421 15.0645 64.9736C15.8072 64.9429 16.5386 64.7804 17.2245 64.4937C17.8945 64.2737 18.5245 63.9836 19.2045 63.6936Z" fill="#6C6C65"/>
</g>
<g style="mix-blend-mode:multiply" opacity="0.52">
<path d="M33.2946 53.8436C33.0246 54.4736 32.7446 55.0936 32.4846 55.7236C31.5218 57.9372 30.6773 60.2004 29.9546 62.5036C30.8146 62.5636 31.6646 62.6436 32.5246 62.7136C32.7346 61.4336 32.9446 60.1436 33.1046 58.8536C33.3578 57.1963 33.4216 55.5154 33.2946 53.8436Z" fill="#6C6C65"/>
</g>
<g style="mix-blend-mode:multiply" opacity="0.52">
<path d="M78.1046 48.8436C77.3298 49.9486 76.6602 51.1237 76.1046 52.3536C74.9423 55.027 74.0414 57.8067 73.4146 60.6536C73.1546 61.7336 72.9346 62.8136 72.7246 63.8936C74.8346 64.0436 76.9446 64.2036 79.0646 64.3036C79.0646 62.3036 79.1446 60.2237 79.0646 58.1837C79.0751 55.0452 78.7534 51.9144 78.1046 48.8436Z" fill="#6C6C65"/>
</g>
<g style="mix-blend-mode:multiply" opacity="0.52">
<path d="M133.265 53.5836C132.855 54.5836 132.485 55.6437 132.145 56.6837C131.495 58.6837 130.965 60.8036 130.495 62.8936C131.265 62.9536 132.045 63.0336 132.825 63.1536C132.975 62.0536 133.155 60.9536 133.295 59.8636C133.65 57.7845 133.64 55.6593 133.265 53.5836Z" fill="#6C6C65"/>
</g>
<g style="mix-blend-mode:multiply" opacity="0.52">
<path d="M175.205 53.3436C174.856 54.1661 174.575 55.0155 174.365 55.8836C173.744 58.6279 173.373 61.4226 173.255 64.2336C173.775 64.2336 174.255 64.2336 174.805 64.2336C175.355 64.2336 175.805 64.2336 176.255 64.1636C176.255 60.5315 175.904 56.9078 175.205 53.3436Z" fill="#6C6C65"/>
</g>
<g style="mix-blend-mode:multiply" opacity="0.52">
<path d="M2.64453 44.6436C2.33453 45.5336 1.99453 46.4136 1.73453 47.3136C1.73453 47.4036 1.73454 47.4936 1.65454 47.5936C4.06787 46.2203 6.42121 44.7637 8.71454 43.2237C11.5279 41.357 14.2512 39.357 16.8845 37.2237C15.7895 37.0569 14.6797 37.01 13.5745 37.0836C11.2745 37.2136 9.00454 37.6637 6.71454 37.9137C5.7348 38.019 4.7499 38.069 3.76453 38.0636C3.76453 38.3136 3.76453 38.5636 3.76453 38.8136C3.77487 39.8201 3.68443 40.8251 3.49454 41.8136C3.27272 42.7743 2.98879 43.7197 2.64453 44.6436Z" fill="#6C6C65"/>
</g>
<g style="mix-blend-mode:multiply" opacity="0.52">
<path d="M8.56445 7.39362C10.8968 9.01086 13.3508 10.4452 15.9045 11.6837C15.5957 10.6466 15.1871 9.6419 14.6845 8.68365C13.3249 6.16678 11.7418 3.77715 9.95447 1.54364C8.03703 2.26538 6.29513 3.38686 4.84448 4.83362C6.08448 5.68362 7.31445 6.54362 8.56445 7.39362Z" fill="#6C6C65"/>
</g>
<g style="mix-blend-mode:multiply" opacity="0.52">
<path d="M73.0446 9.93365C73.1946 9.30365 73.3146 8.67363 73.4146 8.03363C73.7146 6.03363 73.8445 4.03364 74.0145 2.10364H71.7645C71.7841 3.46171 71.8843 4.81743 72.0645 6.16364C72.231 7.45657 72.5603 8.7233 73.0446 9.93365Z" fill="#6C6C65"/>
</g>
<g style="mix-blend-mode:multiply" opacity="0.52">
<path d="M138.735 10.3536C138.381 12.9078 138.298 15.4919 138.485 18.0636C139.093 16.817 139.578 15.5143 139.935 14.1736C140.725 11.3436 141.164 8.43362 141.864 5.58362C142.084 4.67362 142.345 3.75364 142.645 2.85364C141.545 3.03364 140.445 3.21363 139.345 3.34363C139.285 5.68363 138.975 8.02364 138.735 10.3536Z" fill="#6C6C65"/>
</g>
<g style="mix-blend-mode:multiply" opacity="0.52">
<path d="M193.475 14.5636C193.973 13.4221 194.407 12.2536 194.775 11.0636C195.595 8.4736 196.215 5.82364 197.025 3.23364C197.125 2.89364 197.235 2.55364 197.345 2.23364L194.235 2.73364C193.767 6.66029 193.513 10.6094 193.475 14.5636Z" fill="#6C6C65"/>
</g>
<g style="mix-blend-mode:multiply" opacity="0.52">
<path d="M122.205 2.8436C122.305 4.5536 122.375 6.26359 122.545 7.96359C122.67 9.39441 122.927 10.8105 123.315 12.1936C123.439 11.4323 123.52 10.6643 123.555 9.89359C123.695 7.30359 123.555 4.53362 124.155 1.99362C123.488 1.95362 122.821 1.95362 122.155 1.99362L122.205 2.8436Z" fill="#6C6C65"/>
</g>
<g style="mix-blend-mode:multiply" opacity="0.52">
<path d="M57.6545 6.11365C58.069 8.10017 58.791 10.0098 59.7945 11.7736C59.9812 10.8999 60.1082 10.0146 60.1745 9.12366C60.3145 6.59893 60.3145 4.06837 60.1745 1.54364L56.8645 1.92365C57.0445 3.32364 57.3145 4.72365 57.6545 6.11365Z" fill="#6C6C65"/>
</g>
<path d="M234.905 39.5537C234.905 37.8037 234.905 36.0436 234.905 34.2836C234.873 32.4671 234.706 30.6554 234.405 28.8637C234.133 27.3953 233.986 25.9067 233.965 24.4137C233.995 22.9522 234.155 21.4964 234.445 20.0636C234.624 19.2627 234.715 18.4445 234.715 17.6237C234.686 16.8699 234.572 16.1218 234.375 15.3936C233.945 13.6736 233.235 12.0137 232.785 10.3037C231.474 9.03958 229.919 8.05619 228.215 7.41365C226.206 7.71699 224.173 7.82082 222.145 7.72365C219.915 7.57365 217.755 7.07364 215.545 6.84364C213.215 6.66662 210.875 6.66662 208.545 6.84364C206.185 6.94364 203.835 7.09366 201.475 7.23366C199.115 7.37366 196.905 7.37362 194.645 7.63362C192.385 7.89362 190.145 8.29363 187.875 8.51363C185.749 8.71046 183.608 8.65679 181.495 8.35365C179.285 8.06365 177.085 7.67362 174.855 7.50362C172.625 7.33362 148.125 7.50364 145.915 7.71364C141.585 8.19364 137.145 9.27364 132.755 8.71364C130.675 8.46364 128.635 7.97364 126.555 7.71364C124.267 7.47865 121.962 7.47865 119.675 7.71364C117.365 7.86364 115.045 7.62364 112.675 7.65364C110.305 7.68364 88.6746 7.82364 86.2946 7.84364C84.1846 7.84364 82.0846 7.69365 79.9746 7.66365C78.0546 7.66365 76.1346 7.66365 74.2146 7.66365C71.7469 7.68413 69.2828 7.4732 66.8545 7.03365C64.9145 7.25365 62.9645 7.45362 61.0045 7.63362C59.6845 7.75362 58.3645 7.85362 57.0045 7.94362C55.6445 8.03362 54.3746 8.15364 53.0546 8.15364C50.4846 8.15364 34.9746 7.52363 32.4346 7.26363C31.797 7.19209 31.1561 7.15539 30.5145 7.15364C29.8845 7.15364 29.2646 7.24363 28.6446 7.26363C27.4046 7.26363 26.2346 7.74365 24.9946 7.78365C23.2946 7.84365 21.7745 7.07364 20.1645 6.71364C17.475 7.15936 14.9828 8.40722 13.0145 10.2937C12.6645 10.8237 12.3345 11.3637 12.0145 11.9137C12.0745 13.0137 12.1346 14.1136 12.1546 15.2236C12.1546 16.1236 12.1546 17.0237 12.1546 17.9237C12.1546 18.8237 11.9546 19.7736 11.8346 20.7036C11.3446 24.3436 11.8345 28.0036 12.2345 31.6336C12.4411 33.443 12.5479 35.2625 12.5546 37.0836C12.5616 37.8872 12.4777 38.689 12.3046 39.4736C12.0987 40.2446 11.838 40.9998 11.5246 41.7337C11.2446 42.4337 10.9345 43.1437 10.6945 43.8637C10.4421 44.5274 10.3199 45.2336 10.3346 45.9436C10.4786 46.7142 10.7525 47.4548 11.1446 48.1336C11.5085 48.8466 11.7261 49.6253 11.7845 50.4237C11.7845 50.8737 11.7845 51.3236 11.7845 51.7736C12.7166 52.4687 13.6081 53.2165 14.4545 54.0136C14.8745 54.3936 15.2746 54.7936 15.6546 55.2036C15.945 55.5095 16.203 55.8447 16.4246 56.2036C16.5178 56.3617 16.6012 56.5254 16.6746 56.6936C17.9879 57.1239 19.3231 57.4844 20.6746 57.7736C21.3625 57.9198 22.0617 58.0068 22.7645 58.0336C23.4486 58.0186 24.125 57.8867 24.7645 57.6436C26.0745 57.2136 27.2846 56.6436 28.6246 56.2236C30.1237 55.8915 31.6638 55.7837 33.1945 55.9036C36.5945 55.9936 52.9945 56.3836 56.3946 56.5736C57.2046 56.5736 58.0146 56.5736 58.8046 56.7136C59.5946 56.8536 60.3946 57.0136 61.1846 57.1936C62.0105 57.3985 62.8489 57.5488 63.6945 57.6436C64.525 57.6874 65.3578 57.6303 66.1745 57.4736C67.6638 57.1618 69.1695 56.9348 70.6845 56.7937C72.4117 56.7922 74.1377 56.8856 75.8546 57.0736C79.4446 57.3036 83.0845 57.5636 86.6845 57.5236C90.2845 57.4836 113.265 57.0936 116.875 56.9036C118.675 56.8036 120.475 56.8437 122.275 56.7437C124.075 56.6437 125.785 56.4336 127.555 56.3236C130.63 56.2343 133.704 56.5334 136.705 57.2136L137.055 57.2836H137.365C140.296 56.9585 143.254 56.9585 146.185 57.2836C147.655 57.3836 171.415 57.4736 172.895 57.4436C174.375 57.4136 175.835 57.2536 177.305 57.1936C183.685 56.9436 190.075 57.3436 196.445 57.5136C198.017 57.5804 199.592 57.5168 201.155 57.3236C202.622 57.0467 204.105 56.8597 205.595 56.7636C207.215 56.7636 208.825 56.9437 210.445 56.9837C212.065 57.0237 213.615 56.9836 215.205 57.0836C216.795 57.1836 218.375 57.1736 219.955 57.0836C221.416 57.1012 222.873 56.899 224.275 56.4837C225.545 56.0537 226.725 55.4836 227.995 55.0136C228.981 54.7038 229.982 54.4435 230.995 54.2337C231.904 54.0531 232.727 53.5746 233.335 52.8737C233.715 52.4165 234.004 51.8902 234.185 51.3236C234.345 50.7736 234.455 50.2037 234.655 49.6637C234.847 49.1625 235.121 48.6963 235.465 48.2836C235.365 47.1536 235.255 46.0136 235.145 44.8836C235.085 43.1036 234.925 41.3337 234.905 39.5537Z" fill="url(#paint0_linear_47_294)"/>
<g style="mix-blend-mode:screen">
<path d="M12.4645 33.7836C12.5545 31.2636 12.3145 28.7236 12.2545 26.2036C12.2545 25.2036 12.2545 24.2036 12.3045 23.2036C12.3045 22.6936 12.3845 22.2036 12.4545 21.6536C12.5343 21.2088 12.6686 20.7756 12.8545 20.3636C13.0245 19.9236 13.2045 19.4836 13.3645 19.0336C13.5422 18.5844 13.6371 18.1067 13.6445 17.6237C13.5393 16.6928 13.3689 15.7706 13.1345 14.8636C12.9393 14.0417 12.9393 13.1856 13.1345 12.3636C13.28 11.856 13.5026 11.3737 13.7945 10.9337C14.3848 10.0802 15.1834 9.39178 16.1145 8.93365C18.08 8.06478 20.168 7.5048 22.3045 7.27362C21.6045 7.06362 20.9145 6.82364 20.2045 6.66364C17.5149 7.10936 15.0227 8.35722 13.0545 10.2437C12.7045 10.7737 12.3745 11.3136 12.0545 11.8636C12.1145 12.9636 12.1745 14.0636 12.1945 15.1736C12.1945 16.0736 12.1945 16.9737 12.1945 17.8737C12.1945 18.7737 11.9945 19.7236 11.8745 20.6536C11.3845 24.2936 11.8745 27.9536 12.2745 31.5836C12.3445 32.3336 12.4145 33.0536 12.4645 33.7836Z" fill="#934206"/>
</g>
<g style="mix-blend-mode:screen">
<path d="M133.385 56.4136C132.313 56.3372 131.247 56.1902 130.195 55.9736C129.074 55.6563 127.919 55.4816 126.755 55.4536C125.575 55.4536 124.395 55.7036 123.225 55.8236C122.055 55.9436 120.845 56.0437 119.665 56.1237C118.485 56.2037 117.325 56.2437 116.155 56.2437C114.985 56.2437 113.815 56.1737 112.645 56.2437C110.325 56.3437 88.6446 56.7536 86.3246 56.8536C84.7246 56.9236 83.1246 56.7436 81.5346 56.6636C80.0375 56.6339 78.5442 56.5036 77.0646 56.2736C76.0646 56.0836 74.7546 55.8136 74.1546 54.8936C73.7751 54.2442 73.6073 53.4928 73.6746 52.7437C73.2246 54.1337 72.4346 55.5936 70.8046 55.6036C69.7368 55.5033 68.66 55.5742 67.6146 55.8136C66.4546 56.1936 65.4446 56.9537 64.1746 56.9937C62.9142 56.9208 61.6712 56.6648 60.4846 56.2336C59.2764 55.9228 58.032 55.7748 56.7846 55.7936C55.5044 55.862 54.2208 55.8352 52.9446 55.7136C51.6046 55.5336 37.2746 55.1736 35.9446 54.8536C34.6274 54.5405 33.2912 54.3133 31.9446 54.1736C31.1122 54.0135 30.257 54.0135 29.4246 54.1736C28.4987 54.4865 27.6153 54.9131 26.7946 55.4436C25.7568 55.9994 24.6172 56.3396 23.4446 56.4436C20.9328 56.6165 18.4359 55.9403 16.3546 54.5236C15.5033 53.944 14.7703 53.2076 14.1946 52.3536C13.9093 51.8998 13.6586 51.4251 13.4446 50.9337C13.2533 50.5806 13.1087 50.204 13.0146 49.8136C13.0074 49.3224 12.9504 48.8333 12.8446 48.3536C12.6254 47.7886 12.3401 47.2515 11.9946 46.7536C11.4461 45.9407 10.9709 45.0807 10.5746 44.1837C10.3877 44.7371 10.303 45.3199 10.3246 45.9036C10.4686 46.6742 10.7425 47.4148 11.1346 48.0936C11.4985 48.8066 11.7162 49.5852 11.7746 50.3836C11.7746 50.8336 11.7746 51.2836 11.7746 51.7336C12.7067 52.4287 13.5981 53.1766 14.4446 53.9736C14.8646 54.3536 15.2646 54.7536 15.6446 55.1636C15.935 55.4695 16.1931 55.8047 16.4146 56.1636C16.5078 56.3217 16.5913 56.4854 16.6646 56.6536C17.9779 57.0839 19.3131 57.4444 20.6646 57.7336C21.3525 57.8799 22.0518 57.9669 22.7546 57.9937C23.4386 57.9786 24.115 57.8467 24.7546 57.6036C26.0646 57.1736 27.2746 56.6037 28.6146 56.1837C30.1137 55.8515 31.6538 55.7437 33.1846 55.8636C36.5846 55.9536 52.9846 56.3436 56.3846 56.5336C57.1946 56.5336 58.0046 56.5336 58.7946 56.6736C59.5846 56.8136 60.3846 56.9736 61.1746 57.1536C62.0005 57.3585 62.839 57.5088 63.6846 57.6036C64.5151 57.6474 65.3478 57.5903 66.1646 57.4337C67.6538 57.1218 69.1596 56.8948 70.6746 56.7536C72.4017 56.7521 74.1277 56.8456 75.8446 57.0336C79.4346 57.2636 83.0746 57.5236 86.6746 57.4836C90.2746 57.4436 113.255 57.0536 116.865 56.8636C118.665 56.7636 120.465 56.8036 122.265 56.7036C124.065 56.6036 125.775 56.3936 127.545 56.2836C130.62 56.1943 133.694 56.4934 136.695 57.1736L137.045 57.2437H137.355C137.645 57.1937 137.935 57.1636 138.235 57.1336C136.64 56.7625 135.018 56.5217 133.385 56.4136Z" fill="#934206"/>
</g>
<g style="mix-blend-mode:screen">
<path d="M57.2545 8.6936C60.1345 8.5136 62.9845 8.15363 65.8745 8.09363C67.3713 8.05187 68.869 8.12539 70.3545 8.3136C71.8345 8.4936 73.3545 8.74361 74.7845 8.88361C76.2269 9.00864 77.6785 8.9785 79.1145 8.79364C80.6087 8.56857 82.1144 8.42836 83.6245 8.37366C83.6669 8.37366 83.7076 8.39047 83.7376 8.42047C83.7676 8.45048 83.7845 8.4912 83.7845 8.53363C83.9245 11.0036 83.6845 13.4636 83.6545 15.9236C84.6545 14.1136 83.9745 11.7236 85.1745 9.92365C85.3508 9.62968 85.6071 9.39181 85.9134 9.23779C86.2196 9.08377 86.5634 9.01995 86.9045 9.05365C88.0169 9.17535 89.1355 9.2321 90.2545 9.22363C92.8245 9.08363 114.714 8.38361 117.304 8.51361C118.564 8.57361 119.794 8.79365 121.064 8.74365C122.334 8.69365 123.515 8.55362 124.735 8.52362C125.917 8.50141 127.098 8.61552 128.254 8.86365C129.494 9.11365 130.675 9.56365 131.905 9.86365C133.162 10.1078 134.458 10.0805 135.704 9.78363C136.884 9.51363 138.054 9.38362 139.254 9.21362C141.836 8.81258 144.396 8.28194 146.924 7.62366L145.924 7.72363C141.594 8.20363 137.154 9.28363 132.764 8.72363C130.684 8.47363 128.644 7.98363 126.564 7.72363C124.277 7.48864 121.972 7.48864 119.684 7.72363C117.374 7.87363 115.054 7.63364 112.684 7.66364C110.314 7.69364 88.6845 7.83364 86.3045 7.85364C84.1945 7.85364 82.0945 7.70364 79.9845 7.67365C78.0645 7.67365 76.1445 7.67365 74.2245 7.67365C71.7569 7.69413 69.2928 7.4832 66.8645 7.04364C64.9245 7.26364 62.9745 7.46362 61.0145 7.64362C59.6945 7.76362 58.3745 7.86361 57.0145 7.95361C55.6545 8.04361 54.3845 8.16364 53.0645 8.16364C52.1145 8.16364 38.1545 8.08362 37.2245 7.96362C39.5645 8.45362 54.9245 8.8436 57.2545 8.6936Z" fill="#934206"/>
</g>
<g style="mix-blend-mode:screen">
<path d="M235.255 44.8436C235.085 43.0736 234.925 41.3036 234.905 39.5236C234.885 37.7436 234.905 36.0136 234.905 34.2536C234.873 32.437 234.706 30.6254 234.405 28.8336C234.133 27.3653 233.986 25.8767 233.965 24.3836C233.995 22.9222 234.155 21.4665 234.445 20.0336C234.624 19.2328 234.715 18.4144 234.715 17.5936C234.686 16.8399 234.572 16.0918 234.375 15.3637C233.945 13.6437 233.235 11.9836 232.785 10.2736C231.474 9.00955 229.919 8.02616 228.215 7.38362C226.206 7.68696 224.173 7.79079 222.145 7.69362C219.915 7.54362 217.755 7.04361 215.545 6.81361C213.215 6.63659 210.875 6.63659 208.545 6.81361H208.335C209.545 6.81361 210.755 6.94363 211.955 7.08363C213.934 7.30303 215.885 7.73213 217.775 8.36366C218.695 8.69366 219.535 9.21366 220.485 9.48366C221.097 9.60729 221.731 9.5694 222.325 9.37367C223.015 9.21367 223.695 9.01363 224.385 8.89363C224.895 8.72852 225.444 8.72852 225.955 8.89363C226.585 9.20363 226.435 9.99365 226.255 10.5336C225.887 11.5117 225.396 12.4391 224.795 13.2937C224.675 13.487 224.555 13.667 224.435 13.8336L224.685 13.5437C225.285 12.8537 225.905 12.1737 226.555 11.5437C227.09 11.0045 227.68 10.5219 228.315 10.1037C228.734 9.79038 229.252 9.63783 229.775 9.67366C230.375 9.78366 230.725 10.4436 230.975 10.9436C231.389 11.8323 231.723 12.7559 231.975 13.7036C232.105 14.1336 232.225 14.5537 232.335 14.9937C232.445 15.4337 232.595 15.8736 232.685 16.3236C232.896 17.8414 232.842 19.3845 232.525 20.8836C232.401 21.6677 232.338 22.4599 232.335 23.2536C232.35 23.9435 232.41 24.6316 232.515 25.3136C232.715 26.7536 232.845 28.2037 232.985 29.6637C233.161 31.1809 233.258 32.7063 233.275 34.2337C233.269 35.0092 233.219 35.7839 233.125 36.5537C233.035 37.3237 232.865 38.0836 232.715 38.8436C232.545 39.4996 232.431 40.1686 232.375 40.8436C232.342 41.5341 232.483 42.2217 232.785 42.8436C233.235 43.7536 234.115 44.6636 233.915 45.7536C233.829 46.1836 233.62 46.5793 233.312 46.892C233.005 47.2047 232.613 47.4207 232.185 47.5136C231.464 47.5914 230.736 47.4522 230.095 47.1137C229.264 46.7161 228.47 46.2441 227.725 45.7036C226.935 45.1636 226.175 44.5936 225.385 44.0636C225.037 43.8207 224.677 43.597 224.305 43.3936L225.035 44.0636C226.749 45.7018 228.57 47.2251 230.485 48.6237C231.081 48.9469 231.555 49.4561 231.835 50.0736C231.983 50.758 231.865 51.4733 231.505 52.0736C230.725 53.2196 229.573 54.0606 228.245 54.4536C226.792 54.9504 225.29 55.2858 223.765 55.4536C221.952 55.712 220.125 55.8456 218.295 55.8537C215.855 55.8537 213.425 55.6036 210.985 55.5336C209.761 55.4919 208.536 55.5153 207.315 55.6037C206.109 55.7171 204.915 55.9312 203.745 56.2437C202.625 56.5137 201.505 56.8136 200.365 57.0236C199.796 57.1337 199.222 57.2138 198.645 57.2636C198.015 57.3236 197.375 57.2636 196.745 57.2636H193.995L196.475 57.3436C198.047 57.4104 199.622 57.3468 201.185 57.1536C202.652 56.8767 204.134 56.6897 205.625 56.5936C207.245 56.5936 208.855 56.7736 210.475 56.8136C212.095 56.8536 213.645 56.8137 215.235 56.9137C216.825 57.0136 218.405 57.0037 219.985 56.9137C221.446 56.9312 222.903 56.7289 224.305 56.3136C225.575 55.8836 226.755 55.3136 228.025 54.8436C229.011 54.5338 230.012 54.2734 231.025 54.0636C231.934 53.8831 232.757 53.4045 233.365 52.7036C233.745 52.2465 234.034 51.7202 234.215 51.1536C234.375 50.6036 234.485 50.0337 234.685 49.4937C234.877 48.9925 235.151 48.5263 235.495 48.1137C235.475 47.1437 235.365 46.0036 235.255 44.8436Z" fill="#934206"/>
</g>
<g style="mix-blend-mode:screen">
<path d="M74.7545 47.5536C74.6645 47.8836 74.5945 48.2236 74.5345 48.5536C74.6145 48.2336 74.6945 47.8936 74.7545 47.5536Z" fill="#828078"/>
</g>
<g style="mix-blend-mode:multiply" opacity="0.39">
<path d="M222.025 44.1336C221.684 43.6924 221.193 43.3932 220.645 43.2937C219.956 43.1101 219.227 43.1496 218.562 43.4066C217.897 43.6635 217.331 44.1247 216.945 44.7236C216.701 45.1609 216.574 45.6532 216.575 46.1536C216.491 46.4222 216.45 46.7024 216.455 46.9837C216.461 47.3185 216.548 47.6467 216.709 47.9408C216.869 48.2349 217.097 48.4863 217.375 48.6737C219.515 50.1537 222.265 47.8236 222.375 45.5736C222.43 45.0674 222.307 44.5577 222.025 44.1336Z" fill="#6C6C65"/>
<path d="M229.474 46.6036C229.344 46.2471 229.115 45.9349 228.814 45.7036C228.717 45.618 228.609 45.5442 228.494 45.4836C228.335 45.3904 228.163 45.3197 227.984 45.2736C227.741 45.2186 227.488 45.2186 227.244 45.2736C226.81 45.3716 226.431 45.633 226.184 46.0036V46.0636C226.184 46.1536 226.084 46.2536 226.054 46.3436C226.021 46.4717 225.998 46.6021 225.984 46.7336C225.979 46.8369 225.979 46.9404 225.984 47.0436C225.98 47.1302 225.98 47.217 225.984 47.3036C225.971 47.507 225.998 47.7109 226.064 47.9036C226.147 48.1407 226.297 48.3489 226.494 48.5036C226.725 48.6607 226.996 48.7475 227.274 48.7536C227.617 48.7492 227.956 48.6814 228.274 48.5536C228.578 48.4394 228.854 48.2621 229.084 48.0336C229.274 47.8536 229.41 47.6252 229.479 47.3731C229.548 47.121 229.546 46.8549 229.474 46.6036Z" fill="#6C6C65"/>
<path d="M229.375 36.8436C229.301 36.4851 229.123 36.1563 228.863 35.8984C228.604 35.6404 228.274 35.4648 227.915 35.3936C227.482 35.2988 227.032 35.3112 226.605 35.4297C226.178 35.5482 225.787 35.7692 225.465 36.0736C225.138 36.3811 224.936 36.7972 224.895 37.2436C224.886 37.4369 224.913 37.6301 224.975 37.8136C224.946 38.1367 225.011 38.4613 225.161 38.7486C225.312 39.0358 225.542 39.2737 225.825 39.4336C226.216 39.6255 226.651 39.7116 227.086 39.6836C227.521 39.6555 227.941 39.5142 228.305 39.2736C228.709 39.0257 229.028 38.6602 229.22 38.2259C229.411 37.7917 229.465 37.3094 229.375 36.8436Z" fill="#6C6C65"/>
<path d="M210.315 41.7536C210.302 41.7083 210.274 41.6692 210.235 41.6436C210.19 41.5857 210.126 41.5464 210.055 41.5337H210.005H209.825C209.745 41.5233 209.664 41.5233 209.585 41.5337L209.375 41.6037C209.176 41.6913 209.006 41.8334 208.885 42.0136C208.828 42.086 208.794 42.1726 208.785 42.2636C208.759 42.3416 208.759 42.4256 208.785 42.5036L208.845 42.6536C208.89 42.7168 208.952 42.7654 209.025 42.7937C209.077 42.8087 209.132 42.8087 209.185 42.7937C209.263 42.8136 209.346 42.8136 209.424 42.7937H209.475C209.54 42.8087 209.609 42.8087 209.674 42.7937C209.721 42.8031 209.768 42.8031 209.815 42.7937C209.89 42.7728 209.961 42.7389 210.025 42.6936L210.135 42.5937L210.235 42.4737C210.265 42.4212 210.285 42.3636 210.295 42.3037V42.2036V42.1336V42.0636V41.9137C210.313 41.8625 210.32 41.8078 210.315 41.7536Z" fill="#6C6C65"/>
<path d="M207.295 49.6637V49.5836C207.295 49.5236 207.295 49.5136 207.295 49.5036C207.745 49.9436 207.195 49.3936 207.165 49.3836L207.005 49.3037H206.915H206.815C206.705 49.2951 206.596 49.3122 206.495 49.3537H206.385L206.175 49.4737L205.985 49.6336L205.915 49.7036C205.886 49.7254 205.862 49.7526 205.845 49.7836L205.725 49.8836L205.625 50.0136V50.0936C205.585 50.1602 205.564 50.2362 205.565 50.3136C205.555 50.3732 205.555 50.4341 205.565 50.4937C205.591 50.5834 205.647 50.6613 205.725 50.7136C205.807 50.7687 205.905 50.7966 206.005 50.7937H206.365L206.575 50.7337L206.795 50.6637C206.91 50.6235 207.013 50.5547 207.095 50.4636L207.195 50.3836C207.253 50.3235 207.303 50.2564 207.345 50.1837V50.1237C207.405 50.0137 207.345 50.0536 207.345 50.0236V49.8336V49.6637H207.295Z" fill="#6C6C65"/>
</g>
<g style="mix-blend-mode:screen">
<path d="M24.7146 36.5136C23.6446 36.7075 22.5411 36.5787 21.5446 36.1436C21.0646 35.9736 20.5946 35.8036 20.1146 35.6636C19.8424 35.5783 19.5597 35.5312 19.2746 35.5236L19.3646 35.4536C20.1682 34.6806 20.7367 33.6961 21.0045 32.6136C21.266 31.4833 21.6 30.371 22.0045 29.2836C22.1145 29.0436 21.7146 29.0536 21.6246 29.2236C21.1084 30.2616 20.6737 31.3382 20.3246 32.4436C20.0462 33.4792 19.5015 34.424 18.7446 35.1837C18.2075 35.5649 17.6387 35.8994 17.0446 36.1837C16.4146 36.5437 15.7846 36.9136 15.1746 37.3136C14.5646 37.7136 13.9746 38.1236 13.4046 38.5736C12.8037 38.9963 12.2651 39.5012 11.8046 40.0736C11.5746 40.3936 12.0145 40.5537 12.2545 40.3737C12.8545 39.9337 13.3746 39.3736 13.9746 38.8836C14.5746 38.3936 15.1445 38.0236 15.7545 37.6336C16.3645 37.2436 17.1046 36.8037 17.8046 36.4337L18.1246 36.2636C18.6446 36.3736 19.1246 36.5736 19.6546 36.7036C20.1846 36.8336 20.7445 36.9736 21.3145 37.0636C22.4737 37.2553 23.6628 37.1416 24.7646 36.7336C24.8546 36.6936 24.8846 36.4736 24.7146 36.5136Z" fill="#934206"/>
</g>
<g style="mix-blend-mode:screen">
<path d="M192.995 7.58361C192.375 8.10361 191.855 8.73364 191.285 9.30364C190.715 9.87364 190.285 10.3036 189.755 10.8236C189.655 10.8324 189.56 10.8703 189.482 10.9325C189.404 10.9947 189.345 11.0786 189.315 11.1736C189.31 11.2169 189.31 11.2604 189.315 11.3036C188.353 12.3204 187.452 13.3922 186.615 14.5136C186.455 14.7336 186.805 14.8336 186.945 14.6636C187.635 13.837 188.394 13.0709 189.215 12.3736C189.233 12.9663 189.287 13.5573 189.375 14.1436C189.515 15.1436 189.735 16.2136 189.785 17.2636C189.785 17.5736 190.265 17.4036 190.275 17.1636C190.275 16.1606 190.211 15.1586 190.085 14.1636C189.989 13.343 189.989 12.5142 190.085 11.6936L190.375 11.4436C190.975 10.9336 191.555 10.4436 192.125 9.87365C192.74 9.35293 193.297 8.76607 193.785 8.12365C194.055 7.57365 193.375 7.25361 192.995 7.58361Z" fill="#934206"/>
</g>
<g style="mix-blend-mode:screen">
<path d="M186.855 57.1536C183.595 56.9336 180.305 57.2036 177.045 57.2536C175.485 57.2536 173.925 57.2537 172.365 57.1237C170.805 56.9937 146.935 56.9236 145.365 56.9536C144.495 56.9536 143.615 56.9536 142.735 56.9536C141.818 56.9755 140.903 56.8712 140.015 56.6436C139.875 56.6436 139.675 56.8436 139.855 56.9036C140.54 57.1809 141.245 57.4049 141.965 57.5736C142.715 57.7036 143.465 57.7736 144.215 57.8336C145.775 57.9536 169.605 58.1336 171.215 58.2836C172.822 58.3988 174.438 58.2877 176.015 57.9536C177.689 57.7004 179.382 57.5967 181.075 57.6436C182.965 57.6436 184.875 57.7036 186.755 57.5836C186.935 57.5836 187.205 57.1736 186.855 57.1536Z" fill="#934206"/>
</g>
<g filter="url(#filter0_d_47_294)">
<path d="M51.0905 41V36.56H55.8905C59.6105 36.56 62.0105 34.424 62.0105 30.728C62.0105 27.032 59.6105 24.92 55.8905 24.92H47.4905V41H51.0905ZM55.5065 28.16C57.4985 28.16 58.4345 28.76 58.4345 30.728C58.4345 32.744 57.4985 33.32 55.5065 33.32H51.0905V28.16H55.5065ZM77.1034 41V37.76H67.5274V24.92H63.9274V41H77.1034ZM82.1444 41L83.6804 37.448H91.7204L93.2324 41H97.3604L90.2804 24.92H85.1444L78.1124 41H82.1444ZM86.5844 30.704L87.5684 28.208H87.8324L88.8164 30.704L90.3284 34.208H85.0724L86.5844 30.704ZM108.368 41V35.696L115.616 24.92H111.152L108.08 29.624L106.736 31.784H106.472L105.128 29.624L102.056 24.92H97.6162L104.744 35.672V41H108.368ZM128.868 41.24C132.348 41.24 134.028 39.656 134.58 37.544H134.772V41H138.108V32.504H129.06V35.168H134.508C134.412 37.208 133.284 37.784 129.588 37.784C126.06 37.784 124.74 36.536 124.74 32.96C124.74 29.384 126.108 28.136 129.756 28.136C132.852 28.136 134.076 29.024 134.076 30.896V31.088H138.084V30.896C138.084 27.032 134.892 24.68 129.852 24.68C124.332 24.68 120.924 27.944 120.924 32.96C120.924 37.976 123.948 41.24 128.868 41.24ZM143.462 41L144.998 37.448H153.038L154.55 41H158.678L151.598 24.92H146.462L139.43 41H143.462ZM147.902 30.704L148.886 28.208H149.15L150.134 30.704L151.646 34.208H146.39L147.902 30.704ZM163.758 41V32.84L163.614 30.32H163.878L164.814 32.84L168.174 40.04H172.542L175.902 32.84L176.838 30.32H177.102L176.982 32.84V41H180.582V24.92H175.686L172.038 32.84L170.574 36.608H170.31L168.798 32.84L165.03 24.92H160.158V41H163.758ZM196.719 41V37.76H186.711V34.52H196.359V31.304H186.711V28.16H196.719V24.92H183.111V41H196.719Z" fill="white"/>
</g>
<defs>
<filter id="filter0_d_47_294" x="47.4905" y="24.68" width="149.228" height="18.56" filterUnits="userSpaceOnUse" color-interpolation-filters="sRGB">
<feFlood flood-opacity="0" result="BackgroundImageFix"/>
<feColorMatrix in="SourceAlpha" type="matrix" values="0 0 0 0 0 0 0 0 0 0 0 0 0 0 0 0 0 0 127 0" result="hardAlpha"/>
<feOffset dy="2"/>
<feComposite in2="hardAlpha" operator="out"/>
<feColorMatrix type="matrix" values="0 0 0 0 0.575 0 0 0 0 0.259298 0 0 0 0 0.0225209 0 0 0 1 0"/>
<feBlend mode="normal" in2="BackgroundImageFix" result="effect1_dropShadow_47_294"/>
<feBlend mode="normal" in="SourceGraphic" in2="effect1_dropShadow_47_294" result="shape"/>
</filter>
<linearGradient id="paint0_linear_47_294" x1="122.899" y1="6.71088" x2="122.899" y2="58.0336" gradientUnits="userSpaceOnUse">
<stop stop-color="#E3680F"/>
<stop offset="1" stop-color="#953E00"/>
</linearGradient>
</defs>
</svg>
