<svg width="171" height="47" viewBox="0 0 171 47" fill="none" xmlns="http://www.w3.org/2000/svg">
<path d="M169.938 29.4093C169.938 27.8741 169.938 26.332 169.938 24.7968C169.909 23.2034 169.778 21.6136 169.546 20.037C169.335 18.7505 169.223 17.45 169.209 16.1465C169.228 14.8673 169.352 13.5918 169.581 12.3331C169.718 11.6405 169.789 10.9362 169.791 10.2301C169.765 9.57111 169.676 8.91617 169.525 8.27433C169.195 6.7742 168.648 5.3161 168.298 3.82298C167.326 2.7342 166.13 1.86853 164.793 1.28538C163.245 1.55137 161.672 1.64308 160.103 1.55878C158.393 1.42559 156.717 0.99099 155.014 0.787701C153.227 0.636969 151.431 0.636969 149.644 0.787701C147.829 0.878831 146.006 1.01201 144.191 1.13118C142.375 1.25035 140.686 1.25736 138.919 1.48168C137.153 1.706 135.414 2.0635 133.697 2.25977C132.062 2.42354 130.412 2.37404 128.79 2.11255C127.079 1.86019 125.383 1.51671 123.665 1.3695C121.948 1.22229 104.619 1.3695 102.909 1.55176C99.5652 1.97236 96.1444 2.95375 92.7585 2.47006C91.1533 2.25276 89.576 1.82514 87.9778 1.57979C86.2124 1.3765 84.4296 1.3765 82.6642 1.57979C80.8837 1.71298 79.0891 1.50271 77.3016 1.53075C75.514 1.55879 60.1202 1.68497 58.3186 1.69899C56.6853 1.69899 55.066 1.56577 53.4117 1.53773C51.9326 1.53773 50.4535 1.53773 48.9744 1.53773C47.0651 1.5474 45.1599 1.35948 43.2893 0.976941C41.7892 1.17322 40.2844 1.34847 38.7749 1.50269C37.7585 1.60784 36.735 1.69898 35.7115 1.7831C34.6881 1.86722 24.5517 1.95836 23.5423 1.96537C21.5514 1.96537 19.6377 1.40457 17.6749 1.17324C17.1817 1.11473 16.6855 1.0843 16.1888 1.08211C15.7051 1.08211 15.2284 1.15923 14.7448 1.18026C13.7914 1.18026 12.8871 1.59382 11.9408 1.63588C10.6299 1.69196 9.45226 1.01198 8.21149 0.703543C6.08322 1.12271 4.14782 2.21954 2.69466 3.83C2.42829 4.29966 2.17591 4.77634 1.93056 5.23199C1.97262 6.19936 2.0147 7.16674 2.03573 8.13412C2.03573 8.91923 2.03571 9.71135 2.00066 10.4965C1.96561 11.2816 1.85345 12.1228 1.75531 12.9359C1.37677 16.1184 1.75531 19.329 2.06375 22.5115C2.22607 24.0953 2.30796 25.6862 2.3091 27.2783C2.31636 27.9839 2.25296 28.6884 2.11984 29.3813C1.96148 30.0502 1.76009 30.7081 1.51698 31.3511C1.29967 31.975 1.06133 32.5918 0.879067 33.2227C0.684914 33.808 0.590142 34.4217 0.598673 35.0383C0.704136 35.7074 0.914706 36.3557 1.22257 36.959C1.50272 37.5937 1.67109 38.2719 1.72027 38.9639C1.72027 39.3564 1.72027 39.756 1.72027 40.1486C2.44823 40.7609 3.1388 41.4163 3.78821 42.1113C4.11067 42.4478 4.41911 42.8123 4.70652 43.1558C4.93182 43.4254 5.1335 43.7139 5.30936 44.0181C5.37946 44.1583 5.44257 44.3055 5.49865 44.4527C6.5158 44.8314 7.55521 45.1475 8.61104 45.399C9.13988 45.5261 9.67989 45.6013 10.2233 45.6233C10.744 45.6018 11.2567 45.4879 11.7375 45.2869C12.7399 44.9083 13.6792 44.3615 14.7097 44.0391C15.8544 43.7519 17.0389 43.6572 18.2147 43.7587C20.8434 43.8428 23.4511 44.1863 26.0728 44.3405C26.6897 44.3826 36.4476 44.3405 37.0645 44.4737C37.6809 44.5807 38.2915 44.7188 38.8941 44.8873C39.5296 45.0705 40.179 45.2018 40.8358 45.2799C41.4752 45.3257 42.1178 45.2761 42.7425 45.1326C43.8978 44.8636 45.0682 44.6646 46.2475 44.5368C47.5827 44.5211 48.9175 44.5937 50.2432 44.7541C53.0471 44.9504 55.8511 45.1817 58.606 45.1396C61.361 45.0976 77.7502 44.7611 80.5262 44.5999C81.9282 44.5158 83.3302 44.5508 84.7321 44.4597C86.1341 44.3686 87.445 44.1933 88.8049 44.0952C91.1826 44.0154 93.5596 44.275 95.864 44.8662L96.1373 44.9364L96.3757 44.8873C98.6259 44.5017 116.543 44.7401 118.808 44.8873C119.943 44.9714 121.079 45.0485 122.221 45.0275C123.364 45.0065 124.493 44.8663 125.628 44.8102C130.535 44.5859 135.477 44.9363 140.391 45.0836C141.604 45.1446 142.819 45.093 144.022 44.9294C145.154 44.686 146.302 44.522 147.457 44.4386C148.705 44.4386 149.946 44.5929 151.194 44.6279C152.441 44.663 153.647 44.67 154.867 44.7191C156.086 44.7681 157.313 44.7962 158.533 44.7191C159.664 44.7312 160.79 44.5534 161.863 44.1933C162.844 43.8148 163.755 43.289 164.737 42.9105C165.503 42.6248 166.288 42.3906 167.085 42.2095C167.811 42.0381 168.453 41.613 168.894 41.0108C169.195 40.6054 169.416 40.1462 169.546 39.6579C169.672 39.1742 169.756 38.6835 169.91 38.2068C170.055 37.7739 170.268 37.3669 170.541 37.0011C170.464 36.0057 170.38 35.0103 170.296 34.0149C170.113 32.5147 169.959 30.9655 169.938 29.4093Z" fill="#807E77"/>
<path d="M10.2373 46.1561H10.1952C9.61145 46.1361 9.03126 46.0562 8.46379 45.9177C7.38399 45.6613 6.32111 45.3382 5.28126 44.9504C5.20087 44.923 5.12765 44.8779 5.06699 44.8184C5.00633 44.759 4.95978 44.6867 4.93076 44.6068C4.88625 44.4815 4.83237 44.3596 4.76955 44.2424C4.61716 43.9671 4.43623 43.7086 4.22977 43.4712C3.98442 43.1628 3.70404 42.8403 3.34653 42.4618C2.71081 41.7857 2.03674 41.1468 1.32766 40.5481C1.26157 40.492 1.20852 40.4222 1.1722 40.3435C1.13588 40.2648 1.11717 40.1791 1.11737 40.0924C1.11737 39.6648 1.11737 39.2863 1.11737 38.9498C1.0705 38.3238 0.918836 37.7101 0.668721 37.1343C0.619651 37.0291 0.577583 36.9239 0.528513 36.8118C0.253561 36.2524 0.0757762 35.6503 0.00276689 35.0313C-0.0183289 34.3463 0.0813407 33.6629 0.297194 33.0124C0.451413 32.4937 0.63368 31.982 0.808929 31.4913L0.949115 31.1057C1.18166 30.4856 1.37368 29.851 1.52394 29.206C1.65183 28.555 1.71291 27.8926 1.7062 27.2292C1.7032 25.6535 1.62131 24.079 1.46085 22.5115C1.4258 22.126 1.39075 21.7334 1.34869 21.3408C0.984686 18.5142 0.918899 15.6571 1.15241 12.8167L1.20848 12.3891C1.28559 11.6881 1.36972 11.0713 1.39776 10.4193C1.4258 9.76741 1.44682 8.96126 1.4328 8.09203C1.41878 7.2228 1.37673 6.29046 1.33468 5.40721V5.21095C1.32696 5.10879 1.34886 5.00653 1.39776 4.9165C1.67816 4.37673 1.93051 3.90707 2.17586 3.47245C2.19516 3.43702 2.2187 3.40405 2.24596 3.3743C3.78762 1.67292 5.83425 0.51079 8.08524 0.0586088C8.16844 0.0410144 8.25441 0.0410144 8.33761 0.0586088C8.77924 0.170768 9.19984 0.324999 9.61343 0.465198C10.3359 0.778978 11.1114 0.95262 11.8987 0.976911C12.3393 0.946728 12.7759 0.873953 13.2025 0.759604C13.6992 0.635473 14.2059 0.555738 14.7167 0.52129C14.913 0.52129 15.1022 0.521285 15.3055 0.472215C15.5088 0.423145 15.8803 0.42314 16.1817 0.42314C16.6997 0.423723 17.2171 0.45651 17.7309 0.52129C18.4319 0.605409 19.21 0.738598 19.9251 0.871787C21.1073 1.12945 22.3115 1.27264 23.5212 1.29938C24.3413 1.29938 25.1825 1.22928 26.0027 1.16619L35.6554 1.12414C36.6228 1.04703 37.6532 0.955879 38.7047 0.84372C40.0577 0.710531 41.5087 0.535289 43.2051 0.32499C43.2725 0.315113 43.341 0.315113 43.4084 0.32499C45.2378 0.696561 47.1005 0.879797 48.9673 0.871787H51.1964C51.8974 0.871787 52.6686 0.871787 53.4116 0.871787C54.1547 0.871787 54.8136 0.913837 55.5146 0.948887C56.4259 0.997956 57.3652 1.04001 58.3186 1.033C59.2719 1.02599 60.2533 0.983936 61.1997 0.948887C62.0198 0.948887 76.4533 0.87879 77.3226 0.864771C78.1918 0.850751 78.8437 0.864769 79.5797 0.906829C80.6047 0.966414 81.6322 0.966414 82.6571 0.906829H82.8674C84.6046 0.703588 86.3596 0.703588 88.0968 0.906829C88.8539 1.01899 89.604 1.1802 90.326 1.32741C91.1602 1.50266 92.0224 1.67793 92.8706 1.79009C95.261 2.11255 97.7355 1.69895 100.133 1.29938C101.03 1.14517 101.963 0.990921 102.874 0.878761C104.977 0.619393 122.2 0.556333 123.749 0.689522C124.941 0.794671 126.133 0.990958 127.254 1.18023L128.881 1.43959C130.459 1.69232 132.064 1.73941 133.655 1.57976C134.594 1.47461 135.547 1.32041 136.459 1.16619C137.244 1.04001 138.05 0.906811 138.856 0.801662C140.076 0.647443 141.309 0.59136 142.508 0.53528L144.169 0.451164L145.747 0.346041C147.023 0.261921 148.333 0.170773 149.63 0.107684H149.981C151.683 -0.0358945 153.395 -0.0358945 155.098 0.107684C155.855 0.198813 156.605 0.332009 157.334 0.465198C158.261 0.65155 159.197 0.789574 160.138 0.878761C161.662 0.956659 163.19 0.867373 164.695 0.612422C164.802 0.598277 164.91 0.61279 165.01 0.65448C166.428 1.2895 167.69 2.22464 168.711 3.39535C168.776 3.46728 168.821 3.55393 168.844 3.6477C169.006 4.3487 169.223 5.04969 169.426 5.75069C169.63 6.45168 169.896 7.3139 170.071 8.11304C170.23 8.79193 170.324 9.48435 170.352 10.181C170.352 10.9367 170.277 11.6905 170.127 12.4312C169.911 13.6583 169.791 14.9006 169.77 16.1465C169.784 17.4217 169.894 18.6941 170.099 19.9529C170.336 21.5525 170.47 23.1659 170.499 24.7827C170.499 25.68 170.499 26.5843 170.499 27.4605C170.499 28.1125 170.499 28.7573 170.499 29.4023C170.499 30.8954 170.632 32.3745 170.772 34.0148V34.2181C170.849 35.1434 170.926 36.0757 170.997 37.0221C171.012 37.1593 170.974 37.2973 170.891 37.4077C170.658 37.7264 170.473 38.0785 170.345 38.4521C170.261 38.7255 170.197 38.9989 170.127 39.3003C170.085 39.4896 170.043 39.6859 169.994 39.8821C169.846 40.4432 169.589 40.9696 169.237 41.4314C168.723 42.1314 167.978 42.6278 167.134 42.8334L166.685 42.9525C166.063 43.0966 165.449 43.2793 164.849 43.4993C164.393 43.6816 163.952 43.8919 163.482 44.1162C163.012 44.3405 162.493 44.5858 161.975 44.7821C160.846 45.1672 159.662 45.3614 158.47 45.3569C157.257 45.399 156.072 45.3569 154.761 45.3219C154.06 45.3219 153.296 45.2798 152.581 45.2658L151.095 45.2307C150.549 45.2307 150.009 45.1747 149.483 45.1326C148.782 45.0835 148.081 45.0274 147.38 45.0415C146.607 45.0726 145.837 45.1711 145.081 45.3359L144.029 45.5252C142.791 45.6941 141.541 45.7481 140.293 45.6864C139.01 45.6864 137.706 45.5953 136.444 45.5462C132.876 45.399 129.189 45.2518 125.572 45.413C125.095 45.413 124.605 45.4761 124.135 45.5112C123.483 45.5672 122.817 45.6163 122.144 45.6303C120.981 45.6303 104.22 45.5742 103.056 45.4901L102.404 45.434C100.409 45.1886 98.3916 45.1886 96.3967 45.434H96.2354H96.1723C96.0912 45.4484 96.0081 45.4484 95.927 45.434H95.7938H95.6606C93.4093 44.8532 91.0864 44.5983 88.7628 44.677C88.1319 44.719 87.48 44.7891 86.8561 44.8522C86.2322 44.9153 85.4541 44.9994 84.69 45.0415C83.9259 45.0835 83.246 45.1046 82.545 45.1186C81.844 45.1326 81.192 45.1186 80.5191 45.1817C79.5026 45.2378 78.4722 45.3289 77.4768 45.406C75.7383 45.5532 60.3584 45.7004 58.5499 45.7215C55.9983 45.7635 53.4046 45.5742 50.902 45.392L50.145 45.3359L48.9112 45.2167C48.0234 45.103 47.1281 45.0584 46.2334 45.0835C45.4212 45.1525 44.6152 45.2814 43.822 45.4691L42.8266 45.6724C42.137 45.8269 41.4284 45.8789 40.7236 45.8266C40.039 45.7425 39.3618 45.6066 38.6977 45.42L38.5505 45.378C38.015 45.2287 37.4722 45.1071 36.9242 45.0134C36.5103 44.9588 36.0938 44.926 35.6764 44.9153C35.4872 44.9153 26.1709 44.9153 25.9887 44.9153C24.8951 44.8522 23.7946 44.7541 22.729 44.6559C21.2219 44.5227 19.6727 44.3826 18.1445 44.3335C17.0372 44.2332 15.9209 44.3209 14.8428 44.5929C14.2825 44.7797 13.7346 45.0021 13.2025 45.2588C12.7819 45.4551 12.3473 45.6514 11.8987 45.8266C11.3678 46.0308 10.8059 46.1422 10.2373 46.1561ZM5.91917 43.9409C6.83605 44.2756 7.77244 44.5542 8.72315 44.7751C9.21182 44.8999 9.71231 44.9728 10.2163 44.9924C10.6634 44.9726 11.1031 44.8704 11.5131 44.691C11.9267 44.5367 12.3263 44.3545 12.7469 44.1582C13.323 43.8881 13.9153 43.654 14.5204 43.4572C15.7232 43.1469 16.9699 43.0427 18.2076 43.1488C19.7638 43.1979 21.3341 43.3381 22.8482 43.4783C23.9067 43.5694 25.0003 43.6675 26.0798 43.7306C26.255 43.7306 35.5643 43.7306 35.7465 43.7306C36.2155 43.7438 36.6834 43.7812 37.1485 43.8428C37.7368 43.94 38.3195 44.0687 38.894 44.2283L39.0412 44.2704C39.6482 44.4407 40.2667 44.5672 40.8918 44.6489C41.4773 44.6801 42.0643 44.633 42.6373 44.5087L43.6117 44.3054C44.4606 44.1076 45.3228 43.9718 46.1914 43.8989C47.1493 43.8678 48.1081 43.9146 49.0584 44.039C49.451 44.0811 49.8576 44.1232 50.2501 44.1512L51.0142 44.2073C53.4957 44.3895 56.0614 44.5718 58.5639 44.5368C60.3094 44.5368 75.6682 44.3685 77.3856 44.2283C78.388 44.1442 79.4325 44.0601 80.456 43.997C81.157 43.9549 81.858 43.9409 82.559 43.9269C83.26 43.9129 83.961 43.9269 84.662 43.8568C85.363 43.7867 86.0639 43.7447 86.7649 43.6746C87.4659 43.6045 88.0618 43.5414 88.7137 43.4923C91.148 43.4061 93.582 43.6705 95.941 44.2774L96.1022 44.3195H96.2284C98.3229 44.052 100.443 44.052 102.537 44.3195L118.814 44.3685C119.943 44.4527 121.051 44.5298 122.165 44.5087C122.803 44.5087 123.448 44.4456 124.079 44.3966C124.563 44.3545 125.06 44.3125 125.558 44.2914C129.224 44.1232 132.939 44.2914 136.536 44.4246C137.79 44.4737 139.094 44.5297 140.37 44.5648C141.541 44.6247 142.714 44.573 143.875 44.4106C144.205 44.3615 144.576 44.2984 144.884 44.2353C145.705 44.0549 146.54 43.9493 147.38 43.9199C148.13 43.9199 148.873 43.962 149.588 44.018C150.1 44.018 150.633 44.0951 151.144 44.1092H152.623L154.825 44.1582C156.114 44.2073 157.271 44.2424 158.449 44.1582C159.516 44.1706 160.577 44.0048 161.589 43.6675C162.066 43.4853 162.529 43.2679 162.991 43.0296C163.454 42.7913 163.938 42.581 164.435 42.3847C165.082 42.1474 165.742 41.9485 166.412 41.7889L166.854 41.6767C167.45 41.5405 167.977 41.1947 168.34 40.7023C168.6 40.3567 168.79 39.9639 168.901 39.5457C168.95 39.3704 168.985 39.1882 169.027 39.0059C169.097 38.6975 169.167 38.375 169.272 38.0596C169.41 37.6396 169.606 37.2409 169.854 36.8749C169.791 36.0127 169.721 35.1575 169.644 34.3023V34.0989C169.503 32.4376 169.384 30.9304 169.363 29.4023C169.363 28.7503 169.363 28.0984 169.363 27.4465C169.363 26.5773 169.363 25.673 169.363 24.7897C169.337 23.2247 169.211 21.6629 168.985 20.1141C168.771 18.7973 168.656 17.4663 168.641 16.1324C168.656 14.8225 168.782 13.5162 169.02 12.2279C169.149 11.5603 169.215 10.882 169.216 10.202C169.193 9.57876 169.111 8.95907 168.971 8.35139C168.802 7.59432 168.571 6.81622 168.347 6.07316C168.122 5.3301 167.947 4.74127 167.779 4.05429C166.912 3.11731 165.865 2.36405 164.702 1.83916C163.166 2.09368 161.608 2.1783 160.054 2.09151C159.052 2.0144 158.063 1.83215 157.103 1.66392C156.402 1.53774 155.659 1.40455 154.937 1.31342C153.304 1.17353 151.662 1.17353 150.03 1.31342H149.672C148.389 1.37651 147.079 1.46761 145.81 1.55173L144.226 1.6569C143.665 1.69195 143.104 1.71297 142.543 1.74101C141.372 1.79709 140.16 1.85317 138.989 2.00038C138.204 2.09852 137.405 2.23171 136.634 2.35789C135.694 2.51211 134.727 2.67332 133.76 2.77847C132.071 2.95334 130.367 2.90382 128.691 2.63125C128.145 2.55414 127.598 2.46301 127.044 2.37188C125.916 2.18963 124.752 1.99335 123.602 1.89521C122.137 1.76903 104.97 1.82512 102.972 2.07748C102.082 2.18964 101.163 2.34388 100.28 2.49108C97.7986 2.90467 95.233 3.33225 92.6674 2.98876C91.7771 2.86959 90.8938 2.68734 90.0386 2.51209C89.3376 2.36488 88.5946 2.21069 87.8725 2.09853C86.2215 1.90576 84.5536 1.90576 82.9025 2.09853H82.6992C81.6275 2.15812 80.5533 2.15812 79.4816 2.09853C78.7806 2.09853 78.0166 2.03543 77.2945 2.04945C76.5725 2.06347 62.0408 2.09852 61.2277 2.13357C60.2743 2.13357 59.2859 2.21068 58.3046 2.21769C57.3232 2.2247 56.3908 2.18264 55.4655 2.13357C54.7645 2.13357 54.0986 2.07049 53.4186 2.05647C52.7387 2.04245 51.9395 2.05647 51.2245 2.05647C50.5095 2.05647 49.7244 2.05647 48.9743 2.05647C47.0612 2.06236 45.1523 1.87919 43.2752 1.50967C41.6349 1.71296 40.1838 1.88119 38.8519 2.02139C37.7864 2.12654 36.7489 2.22469 35.7746 2.29479L26.1219 2.33684C25.2877 2.40694 24.4184 2.47706 23.5562 2.48407C22.2739 2.45299 20.9973 2.30279 19.7428 2.03542C19.0418 1.90223 18.3408 1.77606 17.6398 1.69194C17.1747 1.63337 16.7066 1.60294 16.2378 1.60081C15.9801 1.60406 15.7228 1.62045 15.4667 1.64988C15.2564 1.64988 15.0391 1.69195 14.8218 1.69896C14.3789 1.72913 13.9399 1.8019 13.511 1.91626C13.0168 2.04094 12.5124 2.12069 12.0038 2.15458C11.0661 2.14277 10.1397 1.94749 9.27694 1.57976C8.91943 1.45358 8.57594 1.32741 8.23946 1.23628C6.28068 1.63126 4.49553 2.63174 3.13622 4.09635C2.92592 4.46087 2.71562 4.85344 2.4843 5.29507V5.34414C2.52636 6.2344 2.56142 7.1527 2.58245 8.05699C2.60348 8.96127 2.58243 9.73937 2.54738 10.4614C2.51233 11.1834 2.42821 11.8634 2.35111 12.5153L2.29504 12.9359C2.07169 15.6973 2.13983 18.4745 2.49833 21.2217C2.53338 21.6072 2.57542 21.9998 2.61047 22.3923C2.77493 23.997 2.85683 25.6091 2.85582 27.2222C2.86477 27.9656 2.79664 28.708 2.65253 29.4373C2.48892 30.1316 2.28293 30.8152 2.03567 31.4842L1.89546 31.8698C1.72021 32.3465 1.54496 32.8372 1.40476 33.3208C1.23759 33.8439 1.15941 34.3912 1.17344 34.9401C1.24416 35.4282 1.3933 35.9016 1.61507 36.3421C1.66414 36.4543 1.7132 36.5664 1.75525 36.6786C2.06082 37.3757 2.24345 38.1204 2.29504 38.8797C2.29504 39.1648 2.29504 39.4802 2.29504 39.8261C2.95925 40.4029 3.59332 41.0136 4.19473 41.6557C4.58027 42.0553 4.89573 42.3987 5.14809 42.7352C5.39949 43.0323 5.62024 43.3541 5.80701 43.6956C5.84206 43.7657 5.87711 43.8498 5.91917 43.9339V43.9409Z" fill="#636568"/>
<g style="mix-blend-mode:multiply" opacity="0.52">
<path d="M169.938 29.4093C169.938 27.8741 169.938 26.3319 169.938 24.7968C169.909 23.2034 169.778 21.6135 169.546 20.037C169.335 18.7505 169.223 17.4499 169.209 16.1465C169.228 14.8672 169.352 13.5918 169.581 12.333C169.718 11.6405 169.789 10.9362 169.791 10.23C169.765 9.57108 169.676 8.91613 169.524 8.27429C169.195 6.77416 168.648 5.31606 168.298 3.82294C167.62 3.06924 166.834 2.42175 165.963 1.90222C165.123 2.62223 164.368 3.43602 163.713 4.32768C163.195 5.04917 162.621 5.72885 161.996 6.36054C161.187 7.09075 160.312 7.74324 159.381 8.30933C158.707 8.60002 158.132 9.08121 157.727 9.69386C157.323 10.3065 157.106 11.024 157.103 11.7582C156.882 13.3804 156.266 14.9235 155.308 16.2516C153.318 18.8944 150.072 20.3454 147.009 21.3408C143.429 22.4113 139.767 23.1804 136.059 23.6401C131.545 24.292 127.072 25.1402 122.586 25.9393C116.515 27.0259 94.8194 28.0423 88.7348 29.0658C76.6076 31.0566 50.881 32.8862 38.6907 34.5826C35.7325 34.9892 23.6474 35.4659 20.6752 35.7813C17.9974 36.0617 15.2635 36.1879 12.6628 36.987C9.32606 38.0175 6.77444 40.2887 4.25085 42.595C4.41208 42.7843 4.5803 42.9735 4.73452 43.1698C4.95982 43.4394 5.16153 43.7279 5.33739 44.032C5.40749 44.1722 5.47057 44.3195 5.52665 44.4667C6.54381 44.8454 7.58323 45.1615 8.63907 45.413C9.16791 45.5401 9.70792 45.6153 10.2514 45.6373C10.772 45.6158 11.2847 45.5019 11.7655 45.3009C12.7679 44.9223 13.7073 44.3755 14.7377 44.0531C15.8824 43.7659 17.0669 43.6711 18.2427 43.7727C20.8714 43.8568 23.4791 44.2003 26.1009 44.3545C26.7177 44.3966 36.4756 44.3545 37.0925 44.4877C37.7089 44.5947 38.3196 44.7328 38.9221 44.9013C39.5576 45.0845 40.207 45.2158 40.8638 45.2938C41.5032 45.3397 42.1458 45.2901 42.7705 45.1466C43.9258 44.8776 45.0962 44.6786 46.2755 44.5508C47.6011 44.5317 48.9265 44.5996 50.2431 44.7541C53.0471 44.9503 55.8511 45.1817 58.606 45.1396C61.3609 45.0975 77.7502 44.7611 80.5262 44.5999C81.9281 44.5158 83.3301 44.5508 84.7321 44.4597C86.1341 44.3685 87.445 44.1933 88.8049 44.0951C91.1826 44.0153 93.5595 44.275 95.8639 44.8662L96.1373 44.9363L96.3756 44.8873C98.6258 44.5017 116.543 44.7401 118.807 44.8873C119.943 44.9714 121.079 45.0485 122.221 45.0275C123.364 45.0064 124.493 44.8662 125.628 44.8102C130.535 44.5858 135.477 44.9363 140.391 45.0835C141.604 45.1445 142.819 45.0929 144.022 44.9293C145.154 44.686 146.302 44.522 147.457 44.4386C148.705 44.4386 149.946 44.5928 151.193 44.6279C152.441 44.6629 153.647 44.67 154.867 44.719C156.086 44.7681 157.313 44.7961 158.533 44.719C159.664 44.7311 160.79 44.5534 161.863 44.1933C162.844 43.8147 163.755 43.289 164.737 42.9104C165.503 42.6248 166.288 42.3906 167.085 42.2095C167.811 42.038 168.453 41.6129 168.894 41.0107C169.195 40.6054 169.416 40.1462 169.546 39.6578C169.672 39.1741 169.756 38.6834 169.91 38.2068C170.055 37.7739 170.268 37.3669 170.541 37.0011C170.464 36.0056 170.38 35.0102 170.296 34.0148C170.113 32.5147 169.959 30.9655 169.938 29.4093Z" fill="#6C6C65"/>
</g>
<g style="mix-blend-mode:multiply" opacity="0.52">
<path d="M152.133 14.1977H152.189C153.715 13.7208 155.193 13.1037 156.605 12.3541C158.112 11.597 159.584 10.7698 161.071 9.9777C161.771 9.60617 162.472 9.27668 163.173 8.89814C163.874 8.5196 164.709 8.19718 165.473 7.7906C166.629 7.2298 167.772 6.64796 168.936 6.10819C168.704 5.34411 168.473 4.57303 168.291 3.80193C167.905 3.37575 167.486 2.98188 167.036 2.62427C164.639 4.35573 162.234 6.08016 159.872 7.8677C157.194 9.85853 154.586 11.9475 152.133 14.1977Z" fill="#6C6C65"/>
</g>
<g style="mix-blend-mode:multiply" opacity="0.52">
<path d="M158.281 19.6725C159.381 19.8617 160.489 19.9949 161.603 20.0861C163.902 20.2613 166.216 20.2823 168.529 20.2963H169.56C169.56 20.2122 169.56 20.1211 169.524 20.03C169.398 19.1888 169.293 18.3406 169.237 17.4854C167.414 17.7728 165.599 18.0742 163.79 18.4247C161.982 18.7752 160.103 19.1958 158.281 19.6725Z" fill="#6C6C65"/>
</g>
<g style="mix-blend-mode:multiply" opacity="0.52">
<path d="M166.328 36.5945C164.996 35.9916 163.629 35.4519 162.262 34.9331C160.895 34.4144 159.528 33.9097 158.175 33.3769C157.04 32.9213 155.911 32.4446 154.818 31.9048C155.61 33.0755 156.367 34.2742 157.103 35.4799C158.505 37.8072 159.907 40.1766 161.309 42.4899C161.622 43.0039 161.944 43.5086 162.276 44.004C163.061 43.6605 163.825 43.2539 164.632 42.9385C165.398 42.6528 166.182 42.4186 166.98 42.2375C167.706 42.066 168.348 41.641 168.788 41.0388C169.09 40.6334 169.311 40.1743 169.44 39.6859C169.553 39.2653 169.637 38.8237 169.756 38.4031C168.653 37.7273 167.508 37.1232 166.328 36.5945Z" fill="#6C6C65"/>
</g>
<g style="mix-blend-mode:multiply" opacity="0.52">
<path d="M13.0903 44.6489C13.5039 43.7236 13.9245 42.8123 14.3521 41.894C15.1409 40.2185 15.8428 38.5035 16.4551 36.7557C15.6069 37.4567 14.7587 38.1577 13.9245 38.8587C12.2491 40.3028 10.6088 41.7889 9.01755 43.3451C8.46376 43.8918 7.92399 44.4456 7.39124 45.0064C7.78379 45.1256 8.17635 45.2307 8.57592 45.3219C9.10476 45.449 9.64475 45.5241 10.1882 45.5462C10.7089 45.5247 11.2216 45.4108 11.7024 45.2097C12.172 45.0555 12.6137 44.8522 13.0903 44.6489Z" fill="#6C6C65"/>
</g>
<g style="mix-blend-mode:multiply" opacity="0.52">
<path d="M22.9674 37.7441C22.7782 38.1858 22.5819 38.6204 22.3996 39.062C21.7247 40.6137 21.1327 42.2002 20.6261 43.8147C21.229 43.8568 21.8248 43.9129 22.4277 43.962C22.5749 43.0647 22.7221 42.1604 22.8342 41.2561C23.0118 40.0943 23.0564 38.9161 22.9674 37.7441Z" fill="#6C6C65"/>
</g>
<g style="mix-blend-mode:multiply" opacity="0.52">
<path d="M54.379 34.2391C53.8359 35.0137 53.3665 35.8375 52.977 36.6996C52.1622 38.5737 51.5307 40.5222 51.0914 42.5179C50.9091 43.275 50.7549 44.032 50.6077 44.7891C52.0868 44.8943 53.5658 45.0064 55.052 45.0765C55.052 43.6745 55.108 42.2165 55.052 40.7865C55.0594 38.5864 54.8338 36.3917 54.379 34.2391Z" fill="#6C6C65"/>
</g>
<g style="mix-blend-mode:multiply" opacity="0.52">
<path d="M93.046 37.5619C92.7586 38.2629 92.4992 39.0059 92.2609 39.735C91.8053 41.137 91.4337 42.623 91.1042 44.0881C91.644 44.1302 92.1908 44.1863 92.7376 44.2704C92.8427 43.4993 92.9689 42.7282 93.0671 41.9641C93.3161 40.5067 93.3089 39.0169 93.046 37.5619Z" fill="#6C6C65"/>
</g>
<g style="mix-blend-mode:multiply" opacity="0.52">
<path d="M122.446 37.3936C122.201 37.9701 122.004 38.5656 121.857 39.1741C121.422 41.0979 121.162 43.0569 121.079 45.0275C121.443 45.0275 121.78 45.0275 122.165 45.0275C122.551 45.0275 122.866 45.0275 123.182 44.9784C123.182 42.4323 122.936 39.8921 122.446 37.3936Z" fill="#6C6C65"/>
</g>
<g style="mix-blend-mode:multiply" opacity="0.52">
<path d="M1.48194 31.295C1.26463 31.9189 1.02629 32.5357 0.844034 33.1666C0.844034 33.2297 0.844043 33.2928 0.787964 33.3629C2.4797 32.4002 4.12937 31.3791 5.73699 30.2996C7.70912 28.991 9.61815 27.5891 11.4641 26.0936C10.6965 25.9767 9.91852 25.9438 9.14382 25.9954C7.53153 26.0866 5.94028 26.402 4.335 26.5773C3.64821 26.6511 2.95779 26.6862 2.26705 26.6824C2.26705 26.8577 2.26705 27.0329 2.26705 27.2082C2.27431 27.9137 2.21091 28.6182 2.07779 29.3111C1.9223 29.9846 1.72326 30.6473 1.48194 31.295Z" fill="#6C6C65"/>
</g>
<g style="mix-blend-mode:multiply" opacity="0.52">
<path d="M5.63173 5.1829C7.26667 6.31658 8.98693 7.32203 10.7771 8.19019C10.5606 7.46322 10.2742 6.75893 9.92184 6.08721C8.96876 4.32289 7.85905 2.64777 6.60612 1.08209C5.26201 1.58803 4.04095 2.37418 3.02405 3.38835C3.89328 3.9842 4.75549 4.58705 5.63173 5.1829Z" fill="#6C6C65"/>
</g>
<g style="mix-blend-mode:multiply" opacity="0.52">
<path d="M50.832 6.96345C50.9371 6.52182 51.0213 6.08017 51.0914 5.63154C51.3017 4.22955 51.3928 2.82756 51.5119 1.47464H49.9347C49.9484 2.42664 50.0187 3.37699 50.145 4.32068C50.2617 5.22702 50.4926 6.11499 50.832 6.96345Z" fill="#6C6C65"/>
</g>
<g style="mix-blend-mode:multiply" opacity="0.52">
<path d="M96.8804 7.25786C96.6328 9.04831 96.5741 10.8598 96.7051 12.6625C97.1315 11.7887 97.4719 10.8754 97.7215 9.93567C98.2753 7.95185 98.5837 5.91194 99.0744 3.9141C99.2286 3.27619 99.4109 2.63129 99.6212 2.0004C98.8501 2.12658 98.079 2.25275 97.308 2.34388C97.2659 3.98421 97.0486 5.62454 96.8804 7.25786Z" fill="#6C6C65"/>
</g>
<g style="mix-blend-mode:multiply" opacity="0.52">
<path d="M135.253 10.209C135.602 9.40881 135.906 8.58971 136.164 7.75552C136.739 5.93995 137.174 4.08234 137.741 2.26676C137.812 2.02842 137.889 1.79008 137.966 1.56577L135.786 1.91626C135.458 4.66883 135.28 7.43714 135.253 10.209Z" fill="#6C6C65"/>
</g>
<g style="mix-blend-mode:multiply" opacity="0.52">
<path d="M85.2929 1.99335C85.363 3.19206 85.412 4.39075 85.5312 5.58245C85.6188 6.58544 85.7995 7.5781 86.0709 8.54764C86.1585 8.01397 86.2147 7.47562 86.2392 6.93536C86.3373 5.11978 86.2392 3.17805 86.6598 1.39753C86.1925 1.36949 85.7251 1.36949 85.2578 1.39753L85.2929 1.99335Z" fill="#6C6C65"/>
</g>
<g style="mix-blend-mode:multiply" opacity="0.52">
<path d="M40.0437 4.28565C40.3342 5.67819 40.8403 7.01683 41.5438 8.25326C41.6747 7.64082 41.7637 7.02019 41.8102 6.39565C41.9083 4.62583 41.9083 2.85191 41.8102 1.08209L39.4899 1.34847C39.616 2.32987 39.8053 3.31126 40.0437 4.28565Z" fill="#6C6C65"/>
</g>
<path d="M164.423 28.0226C164.423 26.7959 164.423 25.5621 164.423 24.3284C164.401 23.055 164.284 21.785 164.073 20.529C163.883 19.4997 163.78 18.4562 163.764 17.4096C163.786 16.3851 163.898 15.3646 164.101 14.3602C164.227 13.7988 164.29 13.2252 164.29 12.6498C164.27 12.1214 164.19 11.597 164.052 11.0866C163.75 9.88086 163.253 8.71723 162.937 7.51853C162.018 6.63241 160.928 5.94305 159.734 5.49264C158.326 5.70528 156.901 5.77807 155.479 5.70995C153.915 5.6048 152.401 5.2543 150.852 5.09307C149.219 4.96898 147.578 4.96898 145.945 5.09307C144.291 5.16317 142.643 5.26833 140.989 5.36647C139.335 5.46461 137.786 5.46458 136.201 5.64684C134.617 5.8291 133.047 6.1095 131.456 6.26372C129.965 6.4017 128.464 6.36408 126.983 6.15158C125.434 5.94829 123.892 5.67488 122.329 5.55571C120.765 5.43654 103.591 5.55572 102.042 5.70293C99.0065 6.03941 95.894 6.79648 92.8167 6.40393C91.3586 6.22868 89.9286 5.88519 88.4705 5.70293C86.8671 5.5382 85.251 5.5382 83.6476 5.70293C82.0283 5.80808 80.402 5.63984 78.7407 5.66087C77.0793 5.6819 61.9168 5.78004 60.2485 5.79406C58.7693 5.79406 57.2973 5.68892 55.8182 5.66789C54.4722 5.66789 53.1263 5.66789 51.7804 5.66789C50.0506 5.68225 48.3233 5.53439 46.6211 5.22626C45.2611 5.38048 43.8942 5.52066 42.5202 5.64684C41.5949 5.73096 40.6696 5.80106 39.7163 5.86415C38.7629 5.92724 37.8727 6.01137 36.9473 6.01137C35.1458 6.01137 24.2734 5.56973 22.4928 5.38747C22.0459 5.33733 21.5966 5.3116 21.1469 5.31038C20.7053 5.31038 20.2707 5.37345 19.8361 5.38747C18.9668 5.38747 18.1467 5.72397 17.2774 5.75201C16.0857 5.79407 15.0202 5.25429 13.8916 5.00194C12.0062 5.31439 10.2592 6.18913 8.87949 7.51151C8.63414 7.88304 8.40281 8.26157 8.17849 8.64712C8.22055 9.41822 8.26262 10.1893 8.27664 10.9674C8.27664 11.5983 8.27664 12.2292 8.27664 12.8601C8.27664 13.491 8.13644 14.1569 8.05232 14.8089C7.70883 17.3605 8.05232 19.9261 8.33271 22.4707C8.4775 23.7391 8.55239 25.0145 8.55704 26.2912C8.56196 26.8544 8.50317 27.4165 8.38179 27.9665C8.23745 28.507 8.05473 29.0364 7.83501 29.5508C7.63873 30.0415 7.42141 30.5392 7.25318 31.0439C7.07621 31.5092 6.99054 32.0042 7.00083 32.502C7.10177 33.0422 7.29377 33.5613 7.56863 34.0372C7.82377 34.537 7.9763 35.0828 8.01726 35.6425C8.01726 35.9579 8.01726 36.2733 8.01726 36.5888C8.67064 37.076 9.29556 37.6003 9.88892 38.159C10.1833 38.4254 10.4637 38.7058 10.7301 38.9932C10.9337 39.2076 11.1146 39.4425 11.2699 39.6942C11.3352 39.805 11.3937 39.9197 11.4451 40.0377C12.3658 40.3393 13.3018 40.592 14.2491 40.7948C14.7314 40.8973 15.2215 40.9582 15.7142 40.977C16.1937 40.9665 16.6679 40.874 17.1162 40.7036C18.0345 40.4022 18.8827 40.0026 19.822 39.7082C20.8729 39.4754 21.9525 39.3998 23.0256 39.4839C25.409 39.547 36.9053 39.8204 39.2887 39.9536C39.8565 39.9536 40.4243 39.9536 40.9781 40.0517C41.5319 40.1498 42.0927 40.262 42.6464 40.3882C43.2254 40.5318 43.8131 40.6372 44.4059 40.7036C44.9881 40.7343 45.5719 40.6943 46.1444 40.5845C47.1884 40.3659 48.2439 40.2067 49.3059 40.1078C50.5166 40.1068 51.7265 40.1723 52.9301 40.3041C55.4466 40.4653 57.9982 40.6475 60.5218 40.6195C63.0454 40.5915 79.1543 40.3181 81.6849 40.1849C82.9466 40.1148 84.2085 40.1429 85.4702 40.0728C86.732 40.0027 87.9307 39.8554 89.1715 39.7783C91.3272 39.7157 93.4823 39.9253 95.5856 40.4022L95.8309 40.4513H96.0482C98.1029 40.2234 100.176 40.2234 102.231 40.4513C103.261 40.5214 119.917 40.5844 120.955 40.5634C121.992 40.5424 123.016 40.4302 124.046 40.3882C128.518 40.2129 132.998 40.4933 137.463 40.6125C138.565 40.6593 139.67 40.6147 140.765 40.4793C141.793 40.2852 142.833 40.1541 143.877 40.0867C145.013 40.0867 146.141 40.2129 147.277 40.241C148.413 40.269 149.499 40.241 150.614 40.3111C151.728 40.3812 152.836 40.3742 153.943 40.3111C154.968 40.3234 155.989 40.1816 156.972 39.8905C157.862 39.5891 158.689 39.1895 159.579 38.86C160.271 38.6428 160.973 38.4603 161.682 38.3132C162.32 38.1867 162.897 37.8512 163.323 37.3599C163.589 37.0395 163.792 36.6705 163.919 36.2733C164.031 35.8878 164.108 35.4882 164.248 35.1097C164.383 34.7584 164.575 34.4316 164.816 34.1423C164.746 33.3502 164.669 32.551 164.592 31.7589C164.55 30.5111 164.437 29.2704 164.423 28.0226Z" fill="#E3680F"/>
<g style="mix-blend-mode:screen">
<path d="M8.3656 23.6822C8.42869 21.9157 8.26044 20.1351 8.21838 18.3686C8.21838 17.6676 8.21839 16.9666 8.25344 16.2656C8.25344 15.9081 8.30951 15.5646 8.35858 15.1791C8.41454 14.8673 8.50872 14.5636 8.63898 14.2748C8.75815 13.9664 8.88433 13.6579 8.99649 13.3425C9.12107 13.0276 9.18757 12.6927 9.19277 12.3541C9.11906 11.7016 8.99959 11.0551 8.83526 10.4193C8.69843 9.84319 8.69843 9.24301 8.83526 8.66685C8.93727 8.31101 9.09331 7.97293 9.29791 7.66444C9.71172 7.06618 10.2715 6.58359 10.9242 6.26245C12.302 5.65337 13.7657 5.26083 15.2634 5.09877C14.7727 4.95156 14.289 4.78333 13.7913 4.67117C11.9059 4.98362 10.1589 5.85837 8.77919 7.18075C8.53384 7.55228 8.30251 7.93081 8.07819 8.31636C8.12025 9.08745 8.1623 9.85854 8.17632 10.6366C8.17632 11.2675 8.17632 11.8984 8.17632 12.5293C8.17632 13.1602 8.03614 13.8262 7.95202 14.4781C7.60853 17.0297 7.95201 19.5954 8.23241 22.14C8.28148 22.6657 8.33055 23.1704 8.3656 23.6822Z" fill="#934206"/>
</g>
<g style="mix-blend-mode:screen">
<path d="M93.1301 39.5457C92.3787 39.4921 91.6317 39.3891 90.8939 39.2373C90.1086 39.0148 89.2984 38.8923 88.4825 38.8727C87.6553 38.8727 86.8281 39.048 86.008 39.1321C85.1878 39.2162 84.3396 39.2863 83.5124 39.3424C82.6853 39.3985 81.8721 39.4265 81.0519 39.4265C80.2318 39.4265 79.4116 39.3775 78.5914 39.4265C76.9651 39.4966 61.7675 39.784 60.1412 39.8541C59.0196 39.9032 57.8981 39.777 56.7835 39.7209C55.734 39.7001 54.6872 39.6087 53.65 39.4475C52.949 39.3144 52.0307 39.1251 51.6101 38.4802C51.3441 38.0249 51.2265 37.4982 51.2736 36.9731C50.9582 37.9474 50.4044 38.9709 49.2618 38.9779C48.5133 38.9076 47.7584 38.9572 47.0256 39.1251C46.2125 39.3914 45.5045 39.9242 44.6142 39.9523C43.7307 39.9012 42.8593 39.7218 42.0275 39.4195C41.1806 39.2016 40.3083 39.0979 39.4338 39.1111C38.5364 39.159 37.6367 39.1402 36.742 39.055C35.8027 38.9288 25.7574 38.6765 24.8251 38.4521C23.9018 38.2326 22.9651 38.0734 22.0211 37.9755C21.4376 37.8632 20.8381 37.8632 20.2546 37.9755C19.6056 38.1948 18.9863 38.4938 18.411 38.8657C17.6835 39.2553 16.8847 39.4938 16.0626 39.5667C14.3019 39.6879 12.5516 39.2139 11.0926 38.2208C10.4959 37.8145 9.98199 37.2982 9.57844 36.6997C9.37845 36.3815 9.20271 36.0488 9.05269 35.7043C8.91859 35.4567 8.81727 35.1928 8.75127 34.9191C8.74622 34.5748 8.70631 34.2319 8.63211 33.8957C8.47844 33.4996 8.27843 33.1231 8.03626 32.7741C7.65177 32.2042 7.31864 31.6013 7.04084 30.9725C6.90984 31.3605 6.85046 31.769 6.86559 32.1782C6.96653 32.7184 7.15853 33.2375 7.43339 33.7134C7.68853 34.2132 7.84108 34.759 7.88204 35.3187C7.88204 35.6341 7.88204 35.9496 7.88204 36.265C8.53542 36.7523 9.16032 37.2765 9.75368 37.8353C10.0481 38.1016 10.3285 38.382 10.5949 38.6694C10.7985 38.8839 10.9794 39.1188 11.1346 39.3704C11.2 39.4813 11.2585 39.596 11.3099 39.7139C12.2306 40.0155 13.1665 40.2683 14.1139 40.471C14.5961 40.5735 15.0863 40.6345 15.579 40.6533C16.0585 40.6428 16.5326 40.5503 16.9809 40.3799C17.8992 40.0785 18.7475 39.6789 19.6868 39.3845C20.7377 39.1516 21.8173 39.076 22.8904 39.1602C25.2737 39.2232 36.77 39.4966 39.1534 39.6298C39.7212 39.6298 40.289 39.6298 40.8428 39.728C41.3966 39.8261 41.9574 39.9382 42.5112 40.0644C43.0902 40.208 43.6779 40.3134 44.2707 40.3799C44.8529 40.4106 45.4366 40.3706 46.0092 40.2607C47.0531 40.0421 48.1086 39.883 49.1706 39.784C50.3814 39.783 51.5913 39.8485 52.7948 39.9803C55.3114 40.1415 57.863 40.3238 60.3866 40.2958C62.9101 40.2677 79.019 39.9943 81.5496 39.8611C82.8114 39.791 84.0732 39.8191 85.335 39.749C86.5968 39.6789 87.7955 39.5317 89.0363 39.4546C91.192 39.392 93.3471 39.6016 95.4504 40.0785L95.6957 40.1275H95.913C96.1163 40.0925 96.3196 40.0714 96.5299 40.0504C95.4122 39.7902 94.2751 39.6214 93.1301 39.5457Z" fill="#934206"/>
</g>
<g style="mix-blend-mode:screen">
<path d="M39.7632 6.09418C41.7821 5.968 43.7799 5.71566 45.8058 5.6736C46.855 5.64432 47.905 5.69586 48.9463 5.8278C49.9838 5.95398 51.0493 6.12923 52.0517 6.22737C53.0628 6.31501 54.0804 6.29389 55.087 6.1643C56.1344 6.00653 57.1899 5.90824 58.2485 5.8699C58.2782 5.8699 58.3068 5.88168 58.3278 5.90271C58.3488 5.92375 58.3606 5.95229 58.3606 5.98204C58.4588 7.7135 58.2905 9.43795 58.2695 11.1624C58.9705 9.8936 58.4938 8.21822 59.335 6.95643C59.4586 6.75037 59.6383 6.58362 59.853 6.47565C60.0676 6.36769 60.3086 6.32294 60.5478 6.34657C61.3275 6.43188 62.1116 6.47166 62.8961 6.46573C64.6976 6.36759 80.0424 5.87687 81.858 5.968C82.7412 6.01006 83.6035 6.16431 84.4937 6.12926C85.384 6.09421 86.2112 5.99605 87.0664 5.97502C87.8953 5.95945 88.7233 6.03944 89.5339 6.21338C90.4031 6.38863 91.2303 6.70407 92.0925 6.91437C92.9743 7.08552 93.8825 7.06639 94.7563 6.85828C95.5835 6.66901 96.4036 6.57788 97.2448 6.45871C99.0546 6.17758 100.849 5.80561 102.621 5.34415L101.92 5.41423C98.8852 5.75071 95.7728 6.50779 92.6954 6.11523C91.2373 5.93998 89.8073 5.59649 88.3492 5.41423C86.7458 5.24951 85.1297 5.24951 83.5264 5.41423C81.9071 5.51938 80.2807 5.35114 78.6194 5.37217C76.958 5.3932 61.7955 5.49135 60.1271 5.50537C58.648 5.50537 57.176 5.40022 55.6969 5.37919C54.351 5.37919 53.005 5.37919 51.6591 5.37919C49.9293 5.39355 48.202 5.24569 46.4998 4.93756C45.1399 5.09178 43.7729 5.23196 42.399 5.35814C41.4737 5.44226 40.5483 5.51236 39.595 5.57545C38.6416 5.63854 37.7514 5.72267 36.8261 5.72267C36.1601 5.72267 26.3742 5.66658 25.7223 5.58246C27.3626 5.92595 38.1299 6.19933 39.7632 6.09418Z" fill="#934206"/>
</g>
<g style="mix-blend-mode:screen">
<path d="M164.541 31.4352C164.421 30.1944 164.309 28.9536 164.295 27.7059C164.281 26.4581 164.295 25.2454 164.295 24.0116C164.273 22.7382 164.156 21.4682 163.945 20.2122C163.755 19.1829 163.651 18.1394 163.636 17.0928C163.657 16.0684 163.77 15.0479 163.973 14.0435C164.099 13.4821 164.162 12.9084 164.162 12.333C164.142 11.8047 164.062 11.2803 163.924 10.7698C163.622 9.56413 163.125 8.40046 162.809 7.20176C161.89 6.31564 160.8 5.62628 159.606 5.17587C158.198 5.38851 156.773 5.4613 155.35 5.39318C153.787 5.28803 152.273 4.93753 150.724 4.7763C149.091 4.6522 147.45 4.6522 145.817 4.7763H145.67C146.518 4.7763 147.366 4.86744 148.207 4.96558C149.595 5.11938 150.963 5.42017 152.287 5.86287C152.932 6.0942 153.521 6.45872 154.187 6.64798C154.616 6.73465 155.061 6.70809 155.477 6.57089C155.96 6.45873 156.437 6.3185 156.921 6.23438C157.278 6.11863 157.664 6.11863 158.021 6.23438C158.463 6.45169 158.358 7.00548 158.232 7.38402C157.974 8.06964 157.63 8.71976 157.208 9.31877C157.124 9.4543 157.04 9.58046 156.956 9.6973L157.131 9.49402C157.552 9.01034 157.986 8.53366 158.442 8.09203C158.817 7.71406 159.231 7.37579 159.676 7.0826C159.97 6.86299 160.333 6.75606 160.699 6.78118C161.12 6.85828 161.365 7.32091 161.54 7.67141C161.831 8.29439 162.065 8.94183 162.241 9.60616C162.332 9.90759 162.417 10.202 162.494 10.5105C162.571 10.8189 162.676 11.1273 162.739 11.4428C162.888 12.5067 162.85 13.5884 162.627 14.6393C162.54 15.1889 162.496 15.7443 162.494 16.3007C162.504 16.7842 162.546 17.2666 162.62 17.7447C162.76 18.7541 162.851 19.7706 162.949 20.7941C163.073 21.8576 163.141 22.9269 163.153 23.9976C163.149 24.5413 163.114 25.0843 163.047 25.6239C162.984 26.1637 162.865 26.6964 162.76 27.2292C162.641 27.689 162.562 28.158 162.522 28.6312C162.499 29.1152 162.598 29.5972 162.809 30.0332C163.125 30.6711 163.741 31.309 163.601 32.0731C163.541 32.3745 163.395 32.6519 163.179 32.871C162.964 33.0902 162.689 33.2417 162.388 33.3068C161.883 33.3614 161.373 33.2638 160.923 33.0264C160.341 32.7478 159.785 32.4169 159.262 32.038C158.708 31.6595 158.175 31.2599 157.622 30.8884C157.378 30.7181 157.125 30.5613 156.865 30.4187L157.376 30.8884C158.578 32.0367 159.854 33.1046 161.197 34.0849C161.615 34.3115 161.947 34.6684 162.143 35.1014C162.247 35.5811 162.165 36.0825 161.912 36.5033C161.366 37.3067 160.558 37.8962 159.627 38.1717C158.609 38.52 157.555 38.7551 156.486 38.8727C155.216 39.0538 153.935 39.1475 152.652 39.1531C150.941 39.1531 149.238 38.9779 147.527 38.9288C146.67 38.8995 145.811 38.9159 144.955 38.9779C144.109 39.0574 143.272 39.2075 142.452 39.4265C141.667 39.6158 140.882 39.8261 140.083 39.9733C139.684 40.0504 139.282 40.1066 138.877 40.1415C138.435 40.1836 137.987 40.1415 137.545 40.1415H135.617L137.356 40.1976C138.458 40.2444 139.563 40.1998 140.658 40.0644C141.686 39.8703 142.726 39.7392 143.77 39.6719C144.906 39.6719 146.034 39.798 147.17 39.8261C148.305 39.8541 149.392 39.8261 150.507 39.8962C151.621 39.9663 152.729 39.9593 153.836 39.8962C154.861 39.9085 155.882 39.7667 156.865 39.4756C157.755 39.1741 158.582 38.7746 159.472 38.4451C160.164 38.2279 160.866 38.0454 161.575 37.8983C162.213 37.7718 162.79 37.4363 163.216 36.945C163.482 36.6245 163.685 36.2556 163.811 35.8584C163.924 35.4729 164.001 35.0734 164.141 34.6948C164.276 34.3435 164.468 34.0167 164.709 33.7274C164.695 33.0475 164.618 32.2483 164.541 31.4352Z" fill="#934206"/>
</g>
<g style="mix-blend-mode:screen">
<path d="M52.0307 33.3349C51.9676 33.5662 51.9185 33.8046 51.8765 34.0359C51.9325 33.8116 51.9886 33.5732 52.0307 33.3349Z" fill="#828078"/>
</g>
<g style="mix-blend-mode:multiply" opacity="0.39">
<path d="M155.266 30.9375C155.028 30.6282 154.683 30.4184 154.299 30.3487C153.816 30.22 153.305 30.2477 152.839 30.4278C152.373 30.6079 151.976 30.9312 151.705 31.3511C151.535 31.6576 151.445 32.0027 151.446 32.3535C151.387 32.5417 151.359 32.7382 151.362 32.9353C151.367 33.17 151.428 33.4001 151.54 33.6063C151.652 33.8125 151.812 33.9887 152.007 34.12C153.507 35.1575 155.435 33.5241 155.512 31.9469C155.551 31.5921 155.464 31.2347 155.266 30.9375Z" fill="#6C6C65"/>
<path d="M160.489 32.6689C160.397 32.419 160.237 32.2001 160.026 32.038C159.957 31.978 159.882 31.9263 159.802 31.8838C159.69 31.8185 159.57 31.7689 159.444 31.7366C159.273 31.698 159.096 31.698 158.925 31.7366C158.621 31.8053 158.355 31.9885 158.182 32.2483V32.2904C158.182 32.3534 158.112 32.4236 158.091 32.4867C158.068 32.5764 158.052 32.6678 158.042 32.7601C158.038 32.8324 158.038 32.905 158.042 32.9774C158.039 33.0381 158.039 33.0989 158.042 33.1596C158.033 33.3022 158.052 33.4451 158.098 33.5802C158.156 33.7464 158.261 33.8924 158.4 34.0008C158.561 34.1109 158.751 34.1718 158.946 34.176C159.187 34.1729 159.424 34.1254 159.647 34.0359C159.86 33.9558 160.054 33.8315 160.215 33.6713C160.348 33.5452 160.444 33.385 160.492 33.2083C160.54 33.0316 160.539 32.845 160.489 32.6689Z" fill="#6C6C65"/>
<path d="M160.419 25.8272C160.367 25.5759 160.242 25.3454 160.06 25.1646C159.878 24.9838 159.647 24.8607 159.395 24.8107C159.092 24.7443 158.777 24.753 158.477 24.8361C158.178 24.9191 157.904 25.0741 157.678 25.2874C157.449 25.503 157.307 25.7947 157.278 26.1076C157.272 26.2431 157.291 26.3785 157.334 26.5071C157.314 26.7336 157.36 26.9612 157.465 27.1626C157.571 27.3639 157.732 27.5307 157.93 27.6428C158.204 27.7773 158.509 27.8377 158.814 27.818C159.119 27.7983 159.414 27.6992 159.669 27.5306C159.952 27.3568 160.176 27.1006 160.31 26.7962C160.444 26.4918 160.482 26.1537 160.419 25.8272Z" fill="#6C6C65"/>
<path d="M147.058 29.2691C147.049 29.2373 147.029 29.2099 147.002 29.192C146.971 29.1514 146.926 29.1238 146.875 29.1149H146.84H146.714C146.658 29.1076 146.602 29.1076 146.546 29.1149L146.399 29.164C146.259 29.2254 146.14 29.325 146.055 29.4513C146.016 29.5021 145.992 29.5628 145.985 29.6266C145.968 29.6813 145.968 29.7401 145.985 29.7948L146.027 29.9C146.059 29.9443 146.103 29.9784 146.153 29.9981C146.19 30.0087 146.229 30.0087 146.266 29.9981C146.321 30.0121 146.379 30.0121 146.434 29.9981H146.469C146.515 30.0087 146.563 30.0087 146.609 29.9981C146.641 30.0048 146.675 30.0048 146.707 29.9981C146.76 29.9835 146.81 29.9598 146.854 29.928L146.932 29.8579L147.002 29.7738C147.023 29.737 147.037 29.6966 147.044 29.6547V29.5845V29.5355V29.4864V29.3813C147.057 29.3454 147.062 29.307 147.058 29.2691Z" fill="#6C6C65"/>
<path d="M144.941 34.814V34.7579C144.941 34.7158 144.941 34.7088 144.941 34.7018C145.256 35.0102 144.871 34.6247 144.849 34.6177L144.737 34.5616H144.674H144.604C144.528 34.5556 144.451 34.5676 144.38 34.5967H144.303L144.155 34.6808L144.022 34.7929L143.973 34.842C143.953 34.8573 143.937 34.8763 143.924 34.8981L143.84 34.9682L143.77 35.0593V35.1154C143.742 35.1621 143.728 35.2153 143.728 35.2696C143.721 35.3114 143.721 35.354 143.728 35.3958C143.746 35.4587 143.786 35.5133 143.84 35.55C143.898 35.5886 143.967 35.6082 144.036 35.6061H144.289L144.436 35.564L144.59 35.515C144.671 35.4868 144.743 35.4386 144.8 35.3748L144.87 35.3187C144.911 35.2765 144.947 35.2295 144.976 35.1785V35.1365C145.018 35.0593 144.976 35.0874 144.976 35.0663V34.9331V34.814H144.941Z" fill="#6C6C65"/>
</g>
<g style="mix-blend-mode:screen">
<path d="M16.9529 25.5959C16.2029 25.7318 15.4293 25.6415 14.7307 25.3365C14.3943 25.2173 14.0648 25.0982 13.7283 25C13.5375 24.9402 13.3394 24.9072 13.1395 24.9019L13.2026 24.8528C13.7659 24.3109 14.1645 23.6208 14.3522 22.862C14.5355 22.0696 14.7696 21.2899 15.0532 20.5277C15.1303 20.3594 14.8499 20.3665 14.7868 20.4856C14.425 21.2132 14.1203 21.9679 13.8755 22.7428C13.6804 23.4688 13.2986 24.131 12.768 24.6636C12.3915 24.9308 11.9928 25.1653 11.5763 25.3646C11.1346 25.6169 10.693 25.8762 10.2654 26.1566C9.8378 26.437 9.42422 26.7245 9.02465 27.0399C8.60343 27.3362 8.22588 27.6901 7.90306 28.0914C7.74183 28.3157 8.05025 28.4279 8.21849 28.3017C8.63909 27.9933 9.00361 27.6007 9.4242 27.2572C9.8448 26.9137 10.2444 26.6544 10.672 26.381C11.0996 26.1076 11.6183 25.7992 12.109 25.5398L12.3334 25.4206C12.6979 25.4977 13.0343 25.6379 13.4059 25.7291C13.7774 25.8202 14.1699 25.9183 14.5695 25.9814C15.3821 26.1158 16.2156 26.0361 16.9879 25.7501C17.051 25.7221 17.0721 25.5678 16.9529 25.5959Z" fill="#934206"/>
</g>
<g style="mix-blend-mode:screen">
<path d="M134.916 5.31608C134.482 5.6806 134.117 6.12225 133.718 6.52181C133.318 6.92138 133.017 7.22278 132.645 7.5873C132.575 7.59347 132.509 7.62001 132.454 7.66363C132.399 7.70725 132.358 7.76605 132.337 7.83267C132.334 7.86298 132.334 7.8935 132.337 7.9238C131.663 8.63654 131.031 9.38785 130.444 10.174C130.332 10.3282 130.577 10.3983 130.675 10.2791C131.159 9.69965 131.691 9.16261 132.267 8.67387C132.28 9.0893 132.317 9.50358 132.379 9.91461C132.477 10.6156 132.631 11.3657 132.666 12.1017C132.666 12.319 133.003 12.1999 133.01 12.0316C133.01 11.3285 132.965 10.6261 132.877 9.92864C132.81 9.35341 132.81 8.77239 132.877 8.19716L133.08 8.02191C133.5 7.6644 133.907 7.32095 134.307 6.92139C134.738 6.55636 135.128 6.14498 135.47 5.69464C135.659 5.3091 135.183 5.08475 134.916 5.31608Z" fill="#828078"/>
</g>
<g style="mix-blend-mode:screen">
<path d="M130.612 40.0644C128.327 39.9102 126.021 40.0995 123.736 40.1345C122.642 40.1345 121.548 40.1345 120.455 40.0434C119.361 39.9523 102.629 39.9032 101.528 39.9242C100.918 39.9242 100.301 39.9242 99.6845 39.9242C99.0419 39.9395 98.4003 39.8664 97.7777 39.7069C97.6796 39.7069 97.5394 39.8471 97.6656 39.8892C98.1458 40.0836 98.6403 40.2406 99.1447 40.3588C99.6704 40.45 100.196 40.499 100.722 40.5411C101.815 40.6252 118.52 40.7514 119.649 40.8566C120.776 40.9373 121.908 40.8594 123.014 40.6252C124.187 40.4477 125.374 40.375 126.561 40.4079C127.885 40.4079 129.224 40.45 130.542 40.3658C130.668 40.3658 130.858 40.0784 130.612 40.0644Z" fill="#934206"/>
</g>
<path d="M34.272 28L35.904 22.64L36.656 19.552H36.832L37.584 22.64L39.184 28H42.752L45.296 17.28H42.672L41.376 23.36L41.008 25.712H40.832L40.336 23.36L38.56 17.28H34.992L33.2 23.36L32.704 25.712H32.528L32.16 23.36L30.864 17.28H28.176L30.704 28H34.272ZM49.1644 28V23.696H54.7644V28H57.1644V17.28H54.7644V21.536H49.1644V17.28H46.7644V28H49.1644ZM61.4919 28V17.28H59.0919V28H61.4919ZM69.3561 28V19.44H73.3401V17.28H62.9721V19.44H66.9561V28H69.3561ZM83.9126 28V25.84H77.2406V23.68H83.6726V21.536H77.2406V19.44H83.9126V17.28H74.8406V28H83.9126ZM88.0369 28V25.04H91.2369C93.7169 25.04 95.3169 23.616 95.3169 21.152C95.3169 18.688 93.7169 17.28 91.2369 17.28H85.6369V28H88.0369ZM90.9809 19.44C92.3089 19.44 92.9329 19.84 92.9329 21.152C92.9329 22.496 92.3089 22.88 90.9809 22.88H88.0369V19.44H90.9809ZM98.7761 28L99.8001 25.632H105.16L106.168 28H108.92L104.2 17.28H100.776L96.0881 28H98.7761ZM101.736 21.136L102.392 19.472H102.568L103.224 21.136L104.232 23.472H100.728L101.736 21.136ZM112.52 28V25.04H115.72C118.2 25.04 119.8 23.616 119.8 21.152C119.8 18.688 118.2 17.28 115.72 17.28H110.12V28H112.52ZM115.464 19.44C116.792 19.44 117.416 19.84 117.416 21.152C117.416 22.496 116.792 22.88 115.464 22.88H112.52V19.44H115.464ZM130.363 28V25.84H123.691V23.68H130.123V21.536H123.691V19.44H130.363V17.28H121.291V28H130.363ZM134.488 28V24.112H136.072C137.32 24.112 137.72 24.384 138.152 25.216L139.624 28H142.408L140.856 25.12C140.456 24.368 140.088 23.856 139.128 23.6V23.472C141.144 23.28 142.152 22.24 142.152 20.496C142.152 18.448 140.648 17.28 138.008 17.28H132.088V28H134.488ZM134.488 19.44H137.992C139.128 19.44 139.64 19.808 139.64 20.864C139.64 21.984 139.128 22.304 137.992 22.304H134.488V19.44Z" fill="#353533"/>
<g filter="url(#filter0_d_24_1915)">
<path d="M34.272 28L35.904 22.64L36.656 19.552H36.832L37.584 22.64L39.184 28H42.752L45.296 17.28H42.672L41.376 23.36L41.008 25.712H40.832L40.336 23.36L38.56 17.28H34.992L33.2 23.36L32.704 25.712H32.528L32.16 23.36L30.864 17.28H28.176L30.704 28H34.272ZM49.1644 28V23.696H54.7644V28H57.1644V17.28H54.7644V21.536H49.1644V17.28H46.7644V28H49.1644ZM61.4919 28V17.28H59.0919V28H61.4919ZM69.3561 28V19.44H73.3401V17.28H62.9721V19.44H66.9561V28H69.3561ZM83.9126 28V25.84H77.2406V23.68H83.6726V21.536H77.2406V19.44H83.9126V17.28H74.8406V28H83.9126ZM88.0369 28V25.04H91.2369C93.7169 25.04 95.3169 23.616 95.3169 21.152C95.3169 18.688 93.7169 17.28 91.2369 17.28H85.6369V28H88.0369ZM90.9809 19.44C92.3089 19.44 92.9329 19.84 92.9329 21.152C92.9329 22.496 92.3089 22.88 90.9809 22.88H88.0369V19.44H90.9809ZM98.7761 28L99.8001 25.632H105.16L106.168 28H108.92L104.2 17.28H100.776L96.0881 28H98.7761ZM101.736 21.136L102.392 19.472H102.568L103.224 21.136L104.232 23.472H100.728L101.736 21.136ZM112.52 28V25.04H115.72C118.2 25.04 119.8 23.616 119.8 21.152C119.8 18.688 118.2 17.28 115.72 17.28H110.12V28H112.52ZM115.464 19.44C116.792 19.44 117.416 19.84 117.416 21.152C117.416 22.496 116.792 22.88 115.464 22.88H112.52V19.44H115.464ZM130.363 28V25.84H123.691V23.68H130.123V21.536H123.691V19.44H130.363V17.28H121.291V28H130.363ZM134.488 28V24.112H136.072C137.32 24.112 137.72 24.384 138.152 25.216L139.624 28H142.408L140.856 25.12C140.456 24.368 140.088 23.856 139.128 23.6V23.472C141.144 23.28 142.152 22.24 142.152 20.496C142.152 18.448 140.648 17.28 138.008 17.28H132.088V28H134.488ZM134.488 19.44H137.992C139.128 19.44 139.64 19.808 139.64 20.864C139.64 21.984 139.128 22.304 137.992 22.304H134.488V19.44Z" fill="white"/>
</g>
<defs>
<filter id="filter0_d_24_1915" x="28.176" y="17.28" width="114.231" height="12.72" filterUnits="userSpaceOnUse" color-interpolation-filters="sRGB">
<feFlood flood-opacity="0" result="BackgroundImageFix"/>
<feColorMatrix in="SourceAlpha" type="matrix" values="0 0 0 0 0 0 0 0 0 0 0 0 0 0 0 0 0 0 127 0" result="hardAlpha"/>
<feOffset dy="2"/>
<feComposite in2="hardAlpha" operator="out"/>
<feColorMatrix type="matrix" values="0 0 0 0 0.575 0 0 0 0 0.259298 0 0 0 0 0.0225209 0 0 0 1 0"/>
<feBlend mode="normal" in2="BackgroundImageFix" result="effect1_dropShadow_24_1915"/>
<feBlend mode="normal" in="SourceGraphic" in2="effect1_dropShadow_24_1915" result="shape"/>
</filter>
</defs>
</svg>
